<?xml version="1.0" standalone="no"?>
<!DOCTYPE svg PUBLIC "-//W3C//DTD SVG 1.1//EN" "http://www.w3.org/Graphics/SVG/1.1/DTD/svg11.dtd" >
<svg xmlns="http://www.w3.org/2000/svg" xmlns:xlink="http://www.w3.org/1999/xlink" version="1.1">
<metadata>
Created by FontForge 20170731 at Wed Jul  1 18:12:49 2015
 By ,,,
Amin Font (c) (Mostafa Amin). 2015. All Rights Reserved 
</metadata>
<defs>
<font id="Amin-Bold" horiz-adv-x="0" >
  <font-face 
    font-family="Amin Bold"
    font-weight="400"
    font-stretch="normal"
    units-per-em="2048"
    panose-1="2 0 5 0 0 0 0 0 0 0"
    ascent="1638"
    descent="-410"
    x-height="1067"
    cap-height="1376"
    bbox="-287 -698 2591 1859"
    underline-thickness="150"
    underline-position="-592"
    unicode-range="U+0020-FEFC"
  />
<missing-glyph horiz-adv-x="2048" 
d="M588 1380h218q13 0 19 -13l485 -1341q4 -10 -1.5 -18t-16.5 -8h-291q-13 0 -19 14l-85 262h-492q-14 -44 -43 -131t-43 -131q-6 -14 -18 -14h-292q-11 0 -16.5 8t-1.5 18l447 1252q19 47 58.5 74.5t91.5 27.5zM811 540l-163 489q-19 -61 -74 -228t-84 -261h321z" />
    <glyph glyph-name="Lig.lillah" unicode="&#xfedf;&#xfee0;&#xfeea;" horiz-adv-x="2071" arabic-form="isolated" 
d="M1466 1430v-1129h157v979q0 69 47 118q49 52 117 52h143q8 0 13.5 -6t5.5 -14v-1188q0 -100 -71 -171t-171 -71h-1595q-8 0 -14 5.5t-6 13.5v134q0 21 0.5 65.5t0.5 67.5q0 224 95 349q96 128 206 185h-1q111 62 205 75q68 10 74 -4q0 19 19 19h272q8 0 13.5 -6t5.5 -14
l2 -589h157v979q0 69 47 118q49 52 117 52h142q8 0 13.5 -6t5.5 -14zM393 301h-20l20 -19v4v15zM463 493q-66 -84 -70 -192h279v298q-145 -25 -209 -106z" />
    <glyph glyph-name="lamalefmad" unicode="&#xfedf;&#xfe82;" horiz-adv-x="1235" arabic-form="isolated" 
d="M1131 1430v-1188q0 -100 -71 -171t-171 -71h-783q-8 0 -14 5.5t-6 13.5v104q0 75 54 126q53 50 128 50l5 2h78q0 120 1 359t1 359v6q0 75 49 127v-1q53 56 127 56h112q8 0 14 -6t6 -14v-886h144v979q0 69 46 118q49 52 118 52h143q8 0 13.5 -6t5.5 -14zM258 1295v103
q0 83 80 110q24 8 52 8q32 0 68 -12q8 -3 30 -10t35 -11h-1l53 -19q58 -18 107 -22q45 -5 76 40q9 11 22 7t13 -19q0 -80 -6 -123q-8 -60 -82 -75v1q-20 -5 -40 -5q-41 0 -85 18q-63 24 -116 40q-56 17 -102 16q-41 -4 -67 -55q-6 -14 -21.5 -10.5t-15.5 18.5z" />
    <glyph glyph-name="lamalefmadM" unicode="&#xfee0;&#xfe82;" horiz-adv-x="1330" arabic-form="final" 
d="M260 1295v103q0 83 80 110q18 8 51 8t68 -12q45 -14 66 -21h-1l53 -19q58 -18 107 -22q41 -4 76 40q8 11 21.5 7t13.5 -19q0 -80 -6 -123q-8 -60 -82 -75v1q-20 -5 -41 -5q-40 0 -84 18q-63 24 -116 40q-56 17 -102 16q-41 -4 -67 -55q-6 -14 -21.5 -10.5t-15.5 18.5z
M1134 1430v-1129h217q8 0 14 -5.5t6 -13.5v-263q0 -8 -6 -13.5t-14 -5.5h-1243q-8 0 -14 5.5t-6 13.5v104q0 74 55 126q56 50 127 50l6 2h77q0 121 0.5 359t0.5 359v6q0 73 51 127q52 55 126 55h113q8 0 13.5 -6t5.5 -14l-1 -172v-714h145v979q0 68 47 118q49 52 118 52h142
q8 0 14 -6t6 -14z" />
    <glyph glyph-name="lamalefhamzaA" unicode="&#xfedf;&#xfe84;" horiz-adv-x="1235" arabic-form="isolated" 
d="M1131 1430v-1188q0 -100 -71 -171t-171 -71h-783q-8 0 -14 5.5t-6 13.5v104q0 75 54 126q53 50 128 50l5 2h78q0 120 1 359t1 359v6q0 75 49 127v-1q53 56 127 56h112q8 0 14 -6t6 -14v-886h144v979q0 69 46 118q49 52 118 52h143q8 0 13.5 -6t5.5 -14zM602 1366v-4h88
q19 0 19 -19v-100q0 -8 -5.5 -14t-13.5 -6h-323q-8 0 -13.5 6t-5.5 14v100q0 19 19 19h35v138q0 8 6 14t14 6h149q59 -8 95 -44q34 -37 41 -87q2 -10 -3.5 -16.5t-15.5 -6.5h-86z" />
    <glyph glyph-name="lamalefhamzaAM" unicode="&#xfee0;&#xfe84;" horiz-adv-x="1330" arabic-form="final" 
d="M587 1366v-4h87q8 0 14 -5.5t6 -13.5v-100q0 -8 -6 -14t-14 -6h-322q-8 0 -14 6t-6 14v100q0 8 6 13.5t14 5.5h35v138q0 8 5.5 14t13.5 6h150q57 -7 94 -44q32 -32 41 -87q2 -10 -4 -16.5t-16 -6.5h-84zM1133 1430v-1129h218q8 0 14 -5.5t6 -13.5v-263q0 -8 -6 -13.5
t-14 -5.5h-1243q-8 0 -14 5.5t-6 13.5v104q0 74 55 126q53 50 127 50l5 2h78q0 121 0.5 359t0.5 359v6q0 73 51 127v-1q53 56 126 56h112q8 0 13.5 -6t5.5 -14v-886h144v979q0 68 47 118q49 52 118 52h142q8 0 14 -6t6 -14z" />
    <glyph glyph-name="lamalefhamzaB" unicode="&#xfedf;&#xfe88;" horiz-adv-x="1235" arabic-form="isolated" 
d="M1131 1430v-1188q0 -100 -71 -171t-171 -71h-783q-8 0 -14 5.5t-6 13.5v104q0 75 54 126q53 50 128 50l5 2h78q0 120 1 359t1 359v6q0 75 49 127v-1q53 56 127 56h112q8 0 14 -6t6 -14v-886h144v979q0 69 46 118q49 52 118 52h143q8 0 13.5 -6t5.5 -14zM602 -231v-4h88
q8 0 13.5 -6t5.5 -14v-99q0 -19 -19 -19h-323q-19 0 -19 19v99q0 8 5.5 14t13.5 6h35v139q0 8 6 13.5t14 5.5h149q61 -9 96 -45l-1 2q36 -36 41 -89q2 -9 -3.5 -15.5t-15.5 -6.5h-86z" />
    <glyph glyph-name="lamalefhamzaBM" unicode="&#xfee0;&#xfe88;" horiz-adv-x="1330" arabic-form="final" 
d="M1133 1430v-1129h218q8 0 14 -5.5t6 -13.5v-263q0 -8 -6 -13.5t-14 -5.5h-1243q-8 0 -14 5.5t-6 13.5v104q0 74 55 126q53 50 127 50l5 2h78q0 121 0.5 359t0.5 359v6q0 73 51 127v-1q53 56 126 56h112q8 0 13.5 -6t5.5 -14v-886h144v979q0 68 47 118q49 52 118 52h142
q8 0 14 -6t6 -14zM587 -231v-4h87q8 0 14 -6t6 -14v-99q0 -8 -6 -13.5t-14 -5.5h-322q-8 0 -14 5.5t-6 13.5v99q0 8 6 14t14 6h35v139q0 19 19 19h150q57 -7 93 -43q33 -32 42 -89q2 -9 -4 -15.5t-16 -6.5h-84z" />
    <glyph glyph-name="lamalef" unicode="&#xfedf;&#xfe8e;" horiz-adv-x="1235" arabic-form="isolated" 
d="M1131 1430v-1188q0 -100 -71 -171t-171 -71h-783q-8 0 -14 5.5t-6 13.5v104q0 75 54 126q53 50 128 50l5 2h78q0 120 1 359t1 359v6q0 75 49 127v-1q53 56 127 56h112q8 0 14 -6t6 -14v-886h144v979q0 69 46 118q49 52 118 52h143q8 0 13.5 -6t5.5 -14z" />
    <glyph glyph-name="lamalefM" unicode="&#xfee0;&#xfe8e;" horiz-adv-x="1330" arabic-form="final" 
d="M1133 1430v-1129h218q8 0 14 -5.5t6 -13.5v-263q0 -8 -6 -13.5t-14 -5.5h-1243q-8 0 -14 5.5t-6 13.5v104q0 74 55 126q53 50 127 50l5 2h78q0 121 0.5 359t0.5 359v6q0 73 51 127v-1q53 56 126 56h112q8 0 13.5 -6t5.5 -14v-886h144v979q0 68 47 118q49 52 118 52h142
q8 0 14 -6t6 -14z" />
    <glyph glyph-name="hamza" unicode="&#x621;" horiz-adv-x="817" arabic-form="isolated" 
d="M524 283v-59h179q8 0 13.5 -6t5.5 -14v-185q0 -19 -19 -19h-600q-19 0 -19 19v185q0 8 5.5 14t13.5 6h82v273q0 19 19 19h276q103 -16 167 -77q54 -62 71 -133q2 -9 -4 -16t-15 -7h-175z" />
    <glyph glyph-name="alefmad" unicode="&#x622;" horiz-adv-x="611" arabic-form="isolated" 
d="M33 1523v103q0 80 82 110q24 6 50 6q30 0 69 -11l44 -16l80 -25q49 -18 100 -22q45 -3 76 40q9 12 22 7.5t13 -18.5q0 -81 -6 -124q-10 -59 -82 -74v1q-19 -5 -41 -5q-47 0 -85 17h1q-20 8 -116 42h1q-51 16 -104 14q-40 -1 -67 -54q-6 -14 -21.5 -10.5t-15.5 19.5z
M303 1450h142q8 0 14 -6t6 -14v-1259q0 -68 -48 -119q-47 -51 -116 -51h-143q-8 0 -14 5.5t-6 13.5v1260q0 68 47 118q49 52 118 52z" />
    <glyph glyph-name="alefhamzaA" unicode="&#x623;" horiz-adv-x="532" arabic-form="isolated" 
d="M263 1450h143q8 0 13.5 -6t5.5 -14v-1259q0 -69 -47 -119q-46 -51 -117 -51h-143q-19 0 -19 19v1260q0 68 47 118q49 52 117 52zM336 1686v-22h88q8 0 13.5 -6t5.5 -14v-100q0 -19 -19 -19h-323q-8 0 -14 5.5t-6 13.5v100q0 8 6 14t14 6h34v64q0 93 94 93h77
q58 -7 93 -45q33 -36 41 -68q2 -9 -4 -15.5t-15 -6.5h-85z" />
    <glyph glyph-name="wawhamza" unicode="&#x624;" horiz-adv-x="1083" arabic-form="isolated" 
d="M694 272v69q0 101 -56 160q-55 58 -153 58q-55 0 -87 -26h2q-29 -32 -29 -81q0 -37 20 -74q30 -28 92 -47h-1l21 -5q41 -8 65 -14q84 -23 126 -40zM784 756q76 -42 138 -145q40 -68 51 -159q10 -76 8 -162q-16 -296 -192 -473q-169 -157 -420 -157q-27 0 -42 1
q-11 0 -18 7q-6 6 -6 14l15 260q2 18 19 18h1q2 -1 4 -1q155 -7 240 88l-44 7q-36 4 -62 12l1 -1q-25 6 -46 6q-149 27 -245 108v-1q-101 83 -101 271q0 199 110 291q109 87 252 87q78 0 159 -10q96 -14 178 -61zM586 1093v-4h87q8 0 14 -5.5t6 -13.5v-99q0 -8 -6 -14
t-14 -6h-322q-8 0 -14 6t-6 14v99q0 8 6 13.5t14 5.5h35v138q0 8 5.5 14t13.5 6h150q58 -8 95 -45q34 -39 41 -86q2 -10 -4 -16.5t-16 -6.5h-85z" />
    <glyph glyph-name="alefhamzaB" unicode="&#x625;" horiz-adv-x="532" arabic-form="isolated" 
d="M263 1450h143q8 0 13.5 -6t5.5 -14v-1259q0 -69 -47 -119q-46 -51 -117 -51h-143q-19 0 -19 19v1260q0 68 47 118q49 52 117 52zM336 -218v-22h88q8 0 13.5 -6t5.5 -14v-100q0 -19 -19 -19h-323q-8 0 -14 5.5t-6 13.5v100q0 8 6 14t14 6h34v64q0 93 94 93h77
q58 -7 93 -45q33 -36 41 -68q2 -9 -4 -15.5t-15 -6.5h-85z" />
    <glyph glyph-name="yahamzaA" unicode="&#x626;" horiz-adv-x="1568" arabic-form="isolated" 
d="M569 282v5q0 286 179 453t482 167h51q70 0 122 -49h-1q55 -49 55 -120v-108q0 -8 -6 -14t-14 -6l-165 -1q-218 0 -312 -94q-87 -87 -92 -214h423q104 0 103 -106q0 -270 -162 -435q-158 -163 -438 -185h-47q-1 0 -2 0.5t-3 0.5h-4q-2 0 -3 -0.5t-3 -0.5l-43 2
q-277 19 -439 183q-161 164 -161 435v173q0 8 5.5 14t13.5 6h109q73 0 122 -55q49 -52 49 -123l-1 -9v-6q0 -129 83 -218q74 -84 272 -102q212 17 294 125h-185q-117 0 -200 83q-82 82 -82 199zM326 667v-4h87q8 0 14 -6t6 -14v-99q0 -8 -6 -13.5t-14 -5.5h-322
q-8 0 -14 5.5t-6 13.5v99q0 8 6 14t14 6h34v138q0 19 19 19h150q59 -8 95 -45q34 -39 41 -86q2 -9 -4 -15.5t-16 -6.5h-84z" />
    <glyph glyph-name="alef" unicode="&#x627;" horiz-adv-x="532" arabic-form="isolated" 
d="M263 1450h143q8 0 13.5 -6t5.5 -14v-1259q0 -69 -47 -119q-46 -51 -117 -51h-143q-19 0 -19 19v1260q0 68 47 118q49 52 117 52z" />
    <glyph glyph-name="ba" unicode="&#x628;" horiz-adv-x="2022" arabic-form="isolated" 
d="M1149 -300v-84q0 -19 -19 -19h-265q-8 0 -14 5.5t-6 13.5v214q0 8 6 13.5t14 5.5h137q72 0 110 -38q39 -39 37 -111zM111 724h300q19 0 19 -19v-42q0 -339 255 -362q78 0 314 -0.5t315 -0.5q249 29 249 363v42q0 8 6 13.5t14 5.5h299q19 0 19 -19v-42q0 -297 -156 -473
q-157 -176 -429 -190h-603l-30 1q-274 9 -433 187q-156 176 -158 475v42q0 19 19 19z" />
    <glyph glyph-name="tamar" unicode="&#x629;" horiz-adv-x="1168" arabic-form="isolated" 
d="M468 649l2 1q-64 -60 -58 -181q8 -126 52 -170q17 -17 62 -33q29 -8 50 -8q17 0 42 5q47 12 80 59q36 46 40 154q0 93 -35 143q-30 46 -78 58q-28 7 -49 7q-19 0 -41 -5q-46 -13 -67 -30zM243 99q-84 63 -122 168q-35 108 -35 216q0 88 30 184q30 91 94 155
q103 99 270 123q53 5 98 5q110 0 194 -28q154 -55 225 -180q69 -114 69 -263q0 -113 -29 -187v1q-27 -83 -73 -138q-103 -115 -245 -138h2q-71 -16 -145 -16q-67 0 -120 10q-129 25 -213 88zM916 1113v-83q0 -8 -6 -13.5t-14 -5.5h-264q-19 0 -19 19v213q0 19 19 19h137
q73 0 111 -39t36 -110zM529 1113v-83q0 -19 -19 -19h-266q-19 0 -19 19v213q0 19 19 19h137q77 0 111 -39q39 -39 37 -110z" />
    <glyph glyph-name="ta" unicode="&#x62a;" horiz-adv-x="2022" arabic-form="isolated" 
d="M1352 914v-83q0 -8 -5.5 -14t-13.5 -6h-265q-8 0 -14 6t-6 14v214q0 8 6 13.5t14 5.5h137q73 0 110 -40q38 -37 37 -110zM111 724h300q19 0 19 -19v-42q0 -339 255 -362q78 0 314 -0.5t315 -0.5q249 29 249 363v42q0 8 6 13.5t14 5.5h299q19 0 19 -19v-42
q0 -297 -156 -473q-157 -176 -429 -190h-603l-30 1q-274 9 -433 187q-156 176 -158 475v42q0 19 19 19zM951 914v-83q0 -8 -5.5 -14t-13.5 -6h-266q-8 0 -13.5 6t-5.5 14v214q0 19 19 19h137q71 0 111 -40q39 -39 37 -110z" />
    <glyph glyph-name="tha" unicode="&#x62b;" horiz-adv-x="2022" arabic-form="isolated" 
d="M1352 914v-83q0 -8 -5.5 -14t-13.5 -6h-265q-8 0 -14 6t-6 14v214q0 8 6 13.5t14 5.5h137q73 0 110 -40q38 -37 37 -110zM111 724h300q19 0 19 -19v-42q0 -339 255 -362q78 0 314 -0.5t315 -0.5q249 29 249 363v42q0 8 6 13.5t14 5.5h299q19 0 19 -19v-42
q0 -297 -156 -473q-157 -176 -429 -190h-603l-30 1q-274 9 -433 187q-156 176 -158 475v42q0 19 19 19zM951 914v-83q0 -8 -5.5 -14t-13.5 -6h-266q-8 0 -13.5 6t-5.5 14v214q0 19 19 19h137q71 0 111 -40q39 -39 37 -110zM1133 1182v-84q0 -8 -6 -13.5t-14 -5.5h-265
q-19 0 -19 19v213q0 19 19 19h137q73 0 111 -39q39 -40 37 -109z" />
    <glyph glyph-name="jeem" unicode="&#x62c;" horiz-adv-x="1457" arabic-form="isolated" 
d="M1024 -211v-82q0 -8 -6 -14t-14 -6h-265q-8 0 -13.5 6t-5.5 14v212q0 8 5.5 14t13.5 6h137q76 0 111 -39q39 -39 37 -111zM1203 0l-522 2q-128 0 -191 -60q-62 -60 -62 -132q0 -74 62 -134q64 -61 191 -61h145q19 0 19 -19v-261q0 -19 -19 -19h-145q-294 0 -444 154
q-149 155 -149 340q0 183 149 338q150 153 444 153h278q-6 126 -94 214q-93 93 -312 94h-160q-8 0 -13.5 6t-5.5 14v108q0 73 54 121q52 49 125 49h42q305 0 484 -167q173 -164 179 -439h71q19 0 19 -19v-263q0 -19 -19 -19h-126z" />
    <glyph glyph-name="ha" unicode="&#x62d;" horiz-adv-x="1457" arabic-form="isolated" 
d="M1203 0l-522 2q-128 0 -191 -60q-62 -60 -62 -132q0 -74 62 -134q64 -61 191 -61h145q19 0 19 -19v-261q0 -19 -19 -19h-145q-294 0 -444 154q-149 155 -149 340q0 183 149 338q150 153 444 153h278q-6 126 -94 214q-93 93 -312 94h-160q-8 0 -13.5 6t-5.5 14v108
q0 73 54 121q52 49 125 49h42q305 0 484 -167q173 -164 179 -439h71q19 0 19 -19v-263q0 -19 -19 -19h-126z" />
    <glyph glyph-name="kha" unicode="&#x62e;" horiz-adv-x="1457" arabic-form="isolated" 
d="M831 1099v-82q0 -8 -5.5 -14t-13.5 -6h-265q-8 0 -14 6t-6 14v212q0 8 6 14t14 6h137q74 0 110 -39q39 -37 37 -111zM1203 0l-522 2q-128 0 -191 -60q-62 -60 -62 -132q0 -74 62 -134q64 -61 191 -61h145q19 0 19 -19v-261q0 -19 -19 -19h-145q-294 0 -444 154
q-149 155 -149 340q0 183 149 338q150 153 444 153h278q-6 126 -94 214q-93 93 -312 94h-160q-8 0 -13.5 6t-5.5 14v108q0 73 54 121q52 49 125 49h42q305 0 484 -167q173 -164 179 -439h71q19 0 19 -19v-263q0 -19 -19 -19h-126z" />
    <glyph glyph-name="dal" unicode="&#x62f;" horiz-adv-x="1161" arabic-form="isolated" 
d="M243 301h517q-6 126 -93 214q-92 92 -312 94h-166q-8 0 -13.5 6t-5.5 14v108q0 72 52 121t123 49h52q295 0 483 -167q179 -179 179 -454v-267q0 -8 -6 -13.5t-14 -5.5h-934q-19 0 -19 19v130q0 64 47 108q44 41 110 44z" />
    <glyph glyph-name="thal" unicode="&#x630;" horiz-adv-x="1161" arabic-form="isolated" 
d="M554 1113v-83q0 -19 -19 -19h-265q-8 0 -14 5.5t-6 13.5v213q0 8 6 13.5t14 5.5h137q72 0 111 -40q37 -39 36 -109zM243 301h517q-6 126 -93 214q-92 92 -312 94h-166q-8 0 -13.5 6t-5.5 14v108q0 72 52 121t123 49h52q295 0 483 -167q179 -179 179 -454v-267
q0 -8 -6 -13.5t-14 -5.5h-934q-19 0 -19 19v130q0 64 47 108q44 41 110 44z" />
    <glyph glyph-name="ra" unicode="&#x631;" horiz-adv-x="709" arabic-form="isolated" 
d="M614 771v-425l-1 -56q-16 -297 -191 -473q-169 -157 -420 -157q-27 0 -42 1q-11 0 -18 7q-6 6 -6 14l14 260q0 18 19 18h3q2 -1 3 -1q135 -7 233 80q97 85 97 307v425q0 8 6 13.5t14 5.5h270q19 0 19 -19z" />
    <glyph glyph-name="zai" unicode="&#x632;" horiz-adv-x="709" arabic-form="isolated" 
d="M614 975v-84q0 -19 -19 -19h-266q-19 0 -19 19v214q0 19 19 19h137q72 0 111 -40q39 -38 37 -109zM614 771v-425l-1 -56q-16 -297 -191 -473q-169 -157 -420 -157q-27 0 -42 1q-11 0 -18 7q-6 6 -6 14l14 260q0 18 19 18h3q2 -1 3 -1q135 -7 233 80q97 85 97 307v425
q0 8 6 13.5t14 5.5h270q19 0 19 -19z" />
    <glyph glyph-name="seen" unicode="&#x633;" horiz-adv-x="2437" arabic-form="isolated" 
d="M2306 611l2 -10v-441q0 -67 -49 -116q-48 -48 -116 -48h-862q-59 -163 -205 -265q-145 -101 -353 -104h-18q-273 5 -436 175q-162 168 -174 458l2 75v11q0 82 55 140q57 60 139 60h125q19 0 19 -19v-263q8 -162 78.5 -249.5t200.5 -89.5q129 2 200.5 90.5t79.5 249.5v453
q0 8 5.5 14t13.5 6h125q80 0 138 -61q56 -59 56 -140l2 -10v-231h187v496q0 19 19 19h124q81 0 138 -60q55 -58 56 -137l3 -11v-307h107v496q0 19 19 19h125q81 0 138 -60q56 -59 56 -140z" />
    <glyph glyph-name="sheen" unicode="&#x634;" horiz-adv-x="2437" arabic-form="isolated" 
d="M2004 1059v-82q0 -8 -5.5 -14t-13.5 -6h-265q-8 0 -14 6t-6 14v212q0 8 6 14t14 6h137q73 0 111 -39t36 -111zM2306 611l2 -10v-441q0 -67 -49 -116q-48 -48 -116 -48h-862q-59 -163 -205 -265q-145 -101 -353 -104h-18q-273 5 -436 175q-162 168 -174 458l2 75v11
q0 82 55 140q57 60 139 60h125q19 0 19 -19v-263q8 -162 78.5 -249.5t200.5 -89.5q129 2 200.5 90.5t79.5 249.5v453q0 8 5.5 14t13.5 6h125q80 0 138 -61q56 -59 56 -140l2 -10v-231h187v496q0 19 19 19h124q81 0 138 -60q55 -58 56 -137l3 -11v-307h107v496q0 19 19 19
h125q81 0 138 -60q56 -59 56 -140zM1765 1380v-83q0 -19 -19 -19h-264q-8 0 -14 5.5t-6 13.5v213q0 8 6 14t14 6h137q71 0 110 -39q37 -39 36 -111zM1571 1059v-82q0 -8 -5.5 -14t-13.5 -6h-266q-8 0 -13.5 6t-5.5 14v212q0 8 5.5 14t13.5 6h137q72 0 111 -39
q39 -40 37 -111z" />
    <glyph glyph-name="sad" unicode="&#x635;" horiz-adv-x="2409" arabic-form="isolated" 
d="M1335 301h-20l20 -19v6v13zM1981 301v-13v-6l19 19h-19zM1434 519q-94 -75 -99 -218h646q-5 143 -99 218q-103 79 -224 79q-120 0 -224 -79zM994 270v453q0 6 2 8q7 69 61 121q56 55 131 55h124q8 0 14 -6t6 -14v-61q121 69 277 80q32 2 51 2q136 0 267 -56
q154 -68 251 -205q102 -141 102 -359v-269q0 -19 -19 -19h-980q-61 -163 -205 -264q-147 -99 -354 -104h-1q-1 -1 -3 -1h-9l-1 1h-3q-273 5 -436 175q-162 168 -174 457l2 76v10q0 83 55 141q57 60 139 60h124q8 0 14 -5.5t6 -13.5v-264q9 -161 79.5 -248.5t200.5 -89.5
q130 2 200.5 90t78.5 250z" />
    <glyph glyph-name="dad" unicode="&#x636;" horiz-adv-x="2409" arabic-form="isolated" 
d="M1810 1066v-84q0 -8 -6 -13.5t-14 -5.5h-265q-19 0 -19 19v214q0 8 5.5 14t13.5 6h137q74 0 111 -40q39 -39 37 -110zM1335 301h-20l20 -19v6v13zM1981 301v-13v-6l19 19h-19zM1434 519q-94 -75 -99 -218h646q-5 143 -99 218q-103 79 -224 79q-120 0 -224 -79zM994 270
v453q0 6 2 8q7 69 61 121q56 55 131 55h124q8 0 14 -6t6 -14v-61q121 69 277 80q32 2 51 2q136 0 267 -56q154 -68 251 -205q102 -141 102 -359v-269q0 -19 -19 -19h-980q-61 -163 -205 -264q-147 -99 -354 -104h-1q-1 -1 -3 -1h-9l-1 1h-3q-273 5 -436 175
q-162 168 -174 457l2 76v10q0 83 55 141q57 60 139 60h124q8 0 14 -5.5t6 -13.5v-264q9 -161 79.5 -248.5t200.5 -89.5q130 2 200.5 90t78.5 250z" />
    <glyph glyph-name="tta" unicode="&#x637;" horiz-adv-x="1767" arabic-form="isolated" 
d="M531 1450h143q8 0 14 -6t6 -14v-610q123 70 279 81h-1q13 2 59 2q133 0 263 -54q148 -61 254 -203q104 -143 104 -358v-269q0 -8 -6 -13.5t-14 -5.5h-1522q-8 0 -14 5.5t-6 13.5v263q0 8 6 13.5t14 5.5h255q0 80 0.5 238.5t0.5 238.5q1 168 1 502q0 68 47 118
q49 52 117 52zM706 282v6v13h-19zM1353 301v-13v-6l19 19h-19zM805 519q-94 -75 -99 -218h647q-5 143 -100 218q-103 79 -223 79q-121 0 -225 -79z" />
    <glyph glyph-name="za" unicode="&#x638;" horiz-adv-x="1767" arabic-form="isolated" 
d="M1181 1066v-84q0 -19 -19 -19h-265q-8 0 -14 5.5t-6 13.5v214q0 8 6 14t14 6h138q70 0 110 -40q38 -36 36 -110zM531 1450h143q8 0 14 -6t6 -14v-610q123 70 279 81h-1q13 2 59 2q133 0 263 -54q148 -61 254 -203q104 -143 104 -358v-269q0 -8 -6 -13.5t-14 -5.5h-1522
q-8 0 -14 5.5t-6 13.5v263q0 8 6 13.5t14 5.5h255q0 80 0.5 238.5t0.5 238.5q1 168 1 502q0 68 47 118q49 52 117 52zM706 282v6v13h-19zM1353 301v-13v-6l19 19h-19zM805 519q-94 -75 -99 -218h647q-5 143 -100 218q-103 79 -223 79q-121 0 -225 -79z" />
    <glyph glyph-name="ain" unicode="&#x639;" horiz-adv-x="1355" arabic-form="isolated" 
d="M1247 282v-263q0 -8 -6 -13.5t-14 -5.5h-562q-109 -12 -166 -71q-53 -63 -48 -131v1q5 -71 68 -126q61 -58 185 -58h5l108 1h244q8 0 14 -5.5t6 -13.5v-263q0 -8 -6 -13.5t-14 -5.5l-244 1h-113q-241 0 -389 110q-147 115 -187 258q-17 65 -17 123q0 88 35 178
q58 147 214 235v66q0 286 177 454q181 167 484 167h52q71 0 123 -49q53 -50 53 -121v-108q0 -8 -6 -14t-14 -6l-166 -1q-220 0 -313 -93q-87 -87 -92 -214h569q8 0 14 -5.5t6 -13.5z" />
    <glyph glyph-name="ghain" unicode="&#x63a;" horiz-adv-x="1355" arabic-form="isolated" 
d="M1247 282v-263q0 -8 -6 -13.5t-14 -5.5h-562q-109 -12 -166 -71q-53 -63 -48 -131v1q5 -71 68 -126q61 -58 185 -58h5l108 1h244q8 0 14 -5.5t6 -13.5v-263q0 -8 -6 -13.5t-14 -5.5l-244 1h-113q-241 0 -389 110q-147 115 -187 258q-17 65 -17 123q0 88 35 178
q58 147 214 235v66q0 286 177 454q181 167 484 167h52q71 0 123 -49q53 -50 53 -121v-108q0 -8 -6 -14t-14 -6l-166 -1q-220 0 -313 -93q-87 -87 -92 -214h569q8 0 14 -5.5t6 -13.5zM1007 1113v-83q0 -8 -6 -13.5t-14 -5.5h-265q-19 0 -19 19v213q0 19 19 19h138
q76 0 110 -39q39 -39 37 -110z" />
    <glyph glyph-name="fa" unicode="&#x641;" horiz-adv-x="2110" arabic-form="isolated" 
d="M1707 1113v-83q0 -8 -6 -13.5t-14 -5.5h-265q-19 0 -19 19v213q0 19 19 19h137q75 0 111 -39q39 -39 37 -110zM685 301h485q-15 69 -15 156q0 210 95 332q51 64 136 93q81 29 169 29q156 0 293 -82q140 -86 140 -322v-488q0 -8 -6 -13.5t-14 -5.5h-1254l-31 1
q-275 9 -432 187q-158 176 -158 475v42q0 19 19 19h299q8 0 14 -5.5t6 -13.5v-42q0 -339 254 -362zM1672 294l-1 -2q1 1 1 2zM1672 294q5 5 13 7h-8q-2 -4 -5 -7zM1467 301h-11l17 -10l-4 7q-2 2 -2 3zM1428 448q0 -94 39 -147h210q37 55 37 147q0 106 -36 163l1 -1
q-38 53 -105 53q-71 0 -107 -53v1q-39 -56 -39 -163z" />
    <glyph glyph-name="qaf" unicode="&#x642;" horiz-adv-x="1447" arabic-form="isolated" 
d="M1199 829h1q139 -85 139 -322v-228l-45 -262q-58 -199 -208 -313q-148 -113 -370 -116q-2 0 -3 -0.5t-3 -0.5h-7q-1 0 -3 0.5t-3 0.5q-275 5 -438 175q-160 169 -171 458l2 75v11q0 82 55 140q57 60 138 60h125q19 0 19 -19v-263q8 -162 79 -249.5t201 -89.5q83 1 187 60
q73 41 101 98q-77 -44 -150 -44q-89 0 -171 63q-168 133 -168 394q0 207 96 332q54 66 137 93h-1q78 29 168 29q157 0 293 -82zM1305 1085v-82q0 -8 -6 -14t-14 -6h-265q-8 0 -14 6t-6 14v213q0 8 6 13.5t14 5.5h137q71 0 111 -39q38 -42 37 -111zM941 1085v-82
q0 -8 -5.5 -14t-13.5 -6h-266q-8 0 -13.5 6t-5.5 14v213q0 19 19 19h137q69 0 111 -39q39 -40 37 -111zM1050 446q-10 126 -37 165l1 -1q-36 53 -104 53q-71 0 -107 -53q-47 -65 -39 -161q6 -105 53 -147q47 -41 101 -36q55 5 96 53q43 48 36 127z" />
    <glyph glyph-name="kaf" unicode="&#x643;" horiz-adv-x="1782" arabic-form="isolated" 
d="M1504 1450h143q8 0 14 -6t6 -14v-1411q0 -8 -6 -13.5t-14 -5.5h-936l-30 1q-273 9 -432 187q-159 177 -159 475v42q0 8 6 13.5t14 5.5h299q19 0 19 -19v-42q0 -339 255 -362h657v979q0 68 47 118q49 52 117 52zM986 828v-4h89q19 0 19 -19v-100q0 -8 -5.5 -14t-13.5 -6
h-323q-8 0 -13.5 6t-5.5 14v100q0 19 19 19h34v63q0 94 94 94h76q57 -7 94 -44q34 -34 41 -87q2 -9 -4 -15.5t-15 -6.5h-86z" />
    <glyph glyph-name="lam" unicode="&#x644;" horiz-adv-x="1435" arabic-form="isolated" 
d="M1327 1430v-903q0 -117 -12 -298q-15 -190 -66 -290q-79 -148 -213.5 -228t-318.5 -84h-19q-273 5 -436 175q-162 168 -174 458q0 95 28 183q31 103 168 103h125q19 0 19 -19v-263q10 -161 80.5 -249t198.5 -90q130 2 209 86q80 81 84 247q0 43 -0.5 130t-0.5 131l1 192
v569q0 68 47 118q49 52 118 52h142q8 0 14 -6t6 -14z" />
    <glyph glyph-name="meem" unicode="&#x645;" horiz-adv-x="1439" arabic-form="isolated" 
d="M583 741q104 89 241 89q57 0 151 -11q90 -10 170 -61h-1q78 -45 132 -146h-1q56 -101 56 -277v-316q0 -8 -6 -13.5t-14 -5.5h-172q-3 0 -12.5 0.5t-14.5 0.5q-11 1 -27 1q-98 -2 -300 70q-189 66 -261 164q-126 -92 -129 -332q0 -43 1 -128.5t1 -129.5q0 -8 -6 -13.5
t-14 -5.5h-270q-19 0 -19 19v258l1 56q12 234 119 388q106 151 278 210q22 119 97 183zM1033 273v60q0 99 -44 151q-43 52 -124 52q-45 0 -67 -24l1 1q-23 -29 -23 -76q0 -30 18 -72q27 -27 71 -38h-1l19 -5q39 -10 53 -14q70 -21 97 -35z" />
    <glyph glyph-name="noon" unicode="&#x646;" horiz-adv-x="1435" arabic-form="isolated" 
d="M853 761v-83q0 -8 -6 -13.5t-14 -5.5h-265q-8 0 -14 5.5t-6 13.5v213q0 8 6 14t14 6h137q71 0 111 -39q38 -43 37 -111zM1325 488l2 -93v-115l-32 -263q-57 -199 -208 -313q-148 -113 -370 -116l-3 -1h-5q-1 0 -5 0.5t-6 0.5q-274 5 -437 175q-161 170 -173 458l2 75v11
q0 82 55 140q57 60 139 60h125q19 0 19 -19v-263q8 -161 78.5 -249t200.5 -90q280 4 280 362v431q0 8 5.5 14t13.5 6h125q80 0 138 -61q56 -59 56 -139v-11z" />
    <glyph glyph-name="haa" unicode="&#x647;" horiz-adv-x="1168" arabic-form="isolated" 
d="M468 649l2 1q-64 -60 -58 -181q8 -126 52 -170q17 -17 62 -33q29 -8 50 -8q17 0 42 5q47 12 80 59q36 46 40 154q0 93 -35 143q-30 46 -78 58q-28 7 -49 7q-19 0 -41 -5q-46 -13 -67 -30zM243 99q-84 63 -122 168q-35 108 -35 216q0 88 30 184q30 91 94 155
q103 99 270 123q53 5 98 5q110 0 194 -28q154 -55 225 -180q69 -114 69 -263q0 -113 -29 -187v1q-27 -83 -73 -138q-103 -115 -245 -138h2q-71 -16 -145 -16q-67 0 -120 10q-129 25 -213 88z" />
    <glyph glyph-name="waw" unicode="&#x648;" horiz-adv-x="1083" arabic-form="isolated" 
d="M694 272v69q0 101 -56 160q-55 58 -153 58q-55 0 -87 -26h2q-29 -32 -29 -81q0 -37 20 -74q30 -28 92 -47h-1l21 -5q41 -8 65 -14q84 -23 126 -40zM784 756q76 -42 138 -145q40 -68 51 -159q10 -76 8 -162q-16 -296 -192 -473q-169 -157 -420 -157q-27 0 -42 1
q-11 0 -18 7q-6 6 -6 14l15 260q2 18 19 18h1q2 -1 4 -1q155 -7 240 88l-44 7q-36 4 -62 12l1 -1q-25 6 -46 6q-149 27 -245 108v-1q-101 83 -101 271q0 199 110 291q109 87 252 87q78 0 159 -10q96 -14 178 -61z" />
    <glyph glyph-name="alefmaq" unicode="&#x649;" horiz-adv-x="1568" arabic-form="isolated" 
d="M569 282v5q0 286 179 453t483 167h50q71 0 123 -49h-1q54 -48 54 -120v-108q0 -8 -5.5 -14t-13.5 -6l-166 -1q-218 0 -312 -94q-87 -87 -92 -214h423q104 0 103 -106q0 -268 -161 -435q-160 -163 -439 -185h-47q-1 0 -2 0.5t-3 0.5h-4q-2 0 -3 -0.5t-3 -0.5l-43 2
q-277 19 -439 183q-161 164 -161 435v173q0 8 5.5 14t13.5 6h109q72 0 123 -55q48 -53 48 -123l-1 -9v-6q0 -129 83 -218q74 -84 272 -102q212 17 294 125h-185q-117 0 -200 83q-82 82 -82 199z" />
    <glyph glyph-name="ya" unicode="&#x64a;" horiz-adv-x="1568" arabic-form="isolated" 
d="M1121 -596v-82q0 -8 -6 -14t-14 -6h-264q-8 0 -13.5 6t-5.5 14v213q0 19 19 19h137q76 0 112 -40t35 -110zM569 282v5q0 286 179 453t483 167h50q71 0 123 -49h-1q54 -48 54 -120v-108q0 -8 -5.5 -14t-13.5 -6l-166 -1q-218 0 -312 -94q-87 -87 -92 -214h423
q104 0 103 -106q0 -268 -161 -435q-160 -163 -439 -185h-47q-1 0 -2 0.5t-3 0.5h-4q-2 0 -3 -0.5t-3 -0.5l-43 2q-277 19 -439 183q-161 164 -161 435v173q0 8 5.5 14t13.5 6h109q72 0 123 -55q48 -53 48 -123l-1 -9v-6q0 -129 83 -218q74 -84 272 -102q212 17 294 125h-185
q-117 0 -200 83q-82 82 -82 199zM781 -596v-82q0 -8 -6 -14t-14 -6h-265q-8 0 -13.5 6t-5.5 14v213q0 19 19 19h137q75 0 111 -39q39 -39 37 -111z" />
    <glyph glyph-name="alefhamzatwasl" unicode="&#x671;" horiz-adv-x="532" arabic-form="isolated" 
d="M263 1450h143q8 0 13.5 -6t5.5 -14v-1259q0 -69 -48 -119q-47 -51 -116 -51h-143q-19 0 -19 19v1260q0 69 46 118q49 52 118 52zM-25 1561v84q0 8 6 14t14 6h53v116q0 33 21.5 55.5t53.5 22.5h40q7 0 12.5 -5.5t6.5 -13.5q39 19 91 19q87 0 150.5 -56.5t63.5 -155.5v-86
q0 -8 -5.5 -14t-13.5 -6h-473q-8 0 -14 6t-6 14zM165 1665l18 -18q0 11 1 18h-19zM209 1710q-21 -17 -25 -45l179 2q-6 27 -26 43q-30 24 -64 24t-64 -24z" />
    <glyph glyph-name="te" unicode="&#x679;" horiz-adv-x="2022" arabic-form="isolated" 
d="M111 724h300q19 0 19 -19v-42q0 -339 255 -362q78 0 314 -0.5t315 -0.5q249 29 249 363v42q0 8 6 13.5t14 5.5h299q19 0 19 -19v-42q0 -297 -156 -473q-157 -176 -429 -190h-603l-30 1q-274 9 -433 187q-156 176 -158 475v42q0 19 19 19zM885 1352h53q8 0 14 -6t6 -14
v-209q56 24 113 24q100 0 172.5 -63.5t72.5 -178.5v-100q0 -8 -5.5 -14t-13.5 -6h-569q-8 0 -14 6t-6 14v98q0 8 6 13.5t14 5.5h83v167q0 32 0.5 94t0.5 93t21.5 53.5t51.5 22.5zM943 922l20 -17q0 10 1 17h-21zM995 981q-27 -20 -31 -59l215 2q-5 39 -31 57q-35 28 -76 28
q-39 0 -77 -28z" />
    <glyph glyph-name="peh" unicode="&#x67e;" horiz-adv-x="2022" arabic-form="isolated" 
d="M1308 -300v-84q0 -8 -6 -13.5t-14 -5.5h-265q-19 0 -19 19v214q0 19 19 19h137q73 0 111 -38q39 -40 37 -111zM111 724h300q19 0 19 -19v-42q0 -339 255 -362q78 0 314 -0.5t315 -0.5q249 29 249 363v42q0 8 6 13.5t14 5.5h299q19 0 19 -19v-42q0 -297 -156 -473
q-157 -176 -429 -190h-603l-30 1q-274 9 -433 187q-156 176 -158 475v42q0 19 19 19zM950 -300v-84q0 -19 -19 -19h-266q-19 0 -19 19v214q0 19 19 19h137q73 0 111 -38q39 -40 37 -111zM1130 -588v-83q0 -8 -6 -14t-14 -6h-265q-8 0 -13.5 6t-5.5 14v213q0 8 5.5 14t13.5 6
h137q72 0 111 -39t37 -111z" />
    <glyph glyph-name="tche" unicode="&#x686;" horiz-adv-x="1307" arabic-form="isolated" 
d="M1035 -292v-57q0 -8 -6 -13.5t-14 -5.5h-183q-19 0 -19 19v147q0 19 19 19h95q55 0 81 -29l-1 1q28 -27 28 -81zM922 -124v-58q0 -8 -6 -13.5t-14 -5.5h-182q-8 0 -14 5.5t-6 13.5v148q0 8 6 13.5t14 5.5h94q56 0 82 -29q28 -28 26 -80zM1147 -124v-58q0 -19 -19 -19
h-183q-19 0 -19 19v148q0 19 19 19h94q56 0 82 -29q28 -28 26 -80zM1202 0l-522 2q-127 0 -190 -60q-62 -60 -62 -132q0 -74 62 -134q66 -61 190 -61h146q19 0 19 -19v-261q0 -19 -19 -19h-146q-293 0 -443 154q-149 155 -149 340q0 183 149 338q150 153 443 153h279
q-6 126 -94 214q-93 93 -312 94h-164q-8 0 -13.5 6t-5.5 14v108q0 72 52 121t124 49h49q295 0 483 -167q173 -173 179 -439h72q19 0 19 -19v-263q0 -19 -19 -19h-127z" />
    <glyph glyph-name="tal" unicode="&#x688;" horiz-adv-x="1161" arabic-form="isolated" 
d="M243 301h517q-6 126 -93 214q-92 92 -312 94h-166q-8 0 -13.5 6t-5.5 14v108q0 72 52 121t123 49h52q295 0 483 -167q179 -179 179 -454v-267q0 -8 -6 -13.5t-14 -5.5h-934q-19 0 -19 19v130q0 64 47 108q44 41 110 44zM344 1590h54q8 0 13.5 -6t5.5 -14v-209
q56 24 113 24q101 0 173.5 -63.5t72.5 -178.5v-100q0 -8 -6 -14t-14 -6h-569q-8 0 -13.5 6t-5.5 14v98q0 19 19 19h84v167q0 32 0.5 94t0.5 93t21 53.5t51 22.5zM403 1160l19 -17q0 10 1 17h-20zM454 1220q-27 -25 -31 -60l216 2q-6 39 -31 58q-38 27 -77 27q-38 0 -77 -27z
" />
    <glyph glyph-name="arre" unicode="&#x691;" horiz-adv-x="709" arabic-form="isolated" 
d="M615 771v-425l-1 -56q-16 -295 -191 -473q-169 -157 -420 -157q-27 0 -42 1q-13 0 -18 7q-6 6 -6 14l13 260q0 18 20 18q2 0 3 -0.5t3 -0.5q135 -7 233 80q97 85 97 307v425q0 8 6 13.5t14 5.5h270q19 0 19 -19zM309 1442h53q8 0 14 -5.5t6 -13.5v-209q54 23 113 23
q100 0 172.5 -63.5t72.5 -178.5v-100q0 -19 -19 -19h-569q-8 0 -14 5.5t-6 13.5v98q0 8 6 14t14 6h83v167q0 32 0.5 93t0.5 93q0 31 21.5 53.5t51.5 22.5zM367 1013l20 -18q0 11 1 18h-21zM419 1072q-27 -22 -31 -59l215 2q-4 37 -31 57q-37 27 -76 27q-38 0 -77 -27z" />
    <glyph glyph-name="zhe" unicode="&#x698;" horiz-adv-x="709" arabic-form="isolated" 
d="M615 771v-425l-1 -56q-16 -297 -191 -473q-169 -157 -420 -157q-27 0 -42 1q-11 0 -18 7q-6 6 -6 14l14 260q0 18 19 18q2 0 3 -0.5t3 -0.5q135 -7 233 80q97 85 97 307v425q0 8 6 13.5t14 5.5h270q19 0 19 -19zM778 1103v-84q0 -8 -6 -13.5t-14 -5.5h-265q-19 0 -19 19
v214q0 8 5.5 14t13.5 6h137q71 0 111 -40q39 -39 37 -110zM376 1103v-84q0 -19 -19 -19h-265q-8 0 -14 5.5t-6 13.5v214q0 8 6 14t14 6h137q70 0 110 -40q38 -37 37 -110zM558 1370v-83q0 -8 -5.5 -14t-13.5 -6h-266q-8 0 -13.5 6t-5.5 14v212q0 8 5.5 14t13.5 6h137
q72 0 111 -39q38 -40 37 -110z" />
    <glyph glyph-name="veh" unicode="&#x6a4;" horiz-adv-x="2110" arabic-form="isolated" 
d="M685 301h485q-15 69 -15 156q0 210 95 332q51 64 136 93q81 29 169 29q156 0 293 -82q140 -86 140 -322v-488q0 -8 -6 -13.5t-14 -5.5h-1254l-31 1q-275 9 -432 187q-158 176 -158 475v42q0 19 19 19h299q8 0 14 -5.5t6 -13.5v-42q0 -339 254 -362zM1672 294l-1 -2
q1 1 1 2zM1672 294q5 5 13 7h-8q-2 -4 -5 -7zM1467 301h-11l17 -10l-4 7q-2 2 -2 3zM1428 448q0 -94 39 -147h210q37 55 37 147q0 106 -36 163l1 -1q-38 53 -105 53q-71 0 -107 -53v1q-39 -56 -39 -163zM1927 1103v-84q0 -19 -19 -19h-265q-8 0 -14 5.5t-6 13.5v214
q0 8 6 14t14 6h137q73 0 110 -40q38 -37 37 -110zM1526 1103v-84q0 -19 -19 -19h-266q-19 0 -19 19v214q0 8 5.5 14t13.5 6h137q71 0 111 -40q39 -39 37 -110zM1708 1370v-83q0 -8 -6 -14t-14 -6h-265q-8 0 -13.5 6t-5.5 14v212q0 8 5.5 14t13.5 6h137q72 0 111 -39
q38 -40 37 -110z" />
    <glyph glyph-name="keh" unicode="&#x6a9;" horiz-adv-x="1789" arabic-form="isolated" 
d="M1653 0h-990q-2 0 -8 2q-263 18 -412 191q-153 180 -153 470v42q0 8 6 13.5t14 5.5h298q8 0 14 -5.5t6 -13.5v-42q0 -163 63.5 -254t182.5 -108h700q-6 126 -93 214q-93 93 -312 94h-165q-8 0 -14 6t-6 14v108q0 51 28 92q21 28 46 46l536 534q14 14 28 0l196 -198
q14 -14 0 -27l-325 -323q163 -59 272 -202q108 -152 108 -373v-4l-1 -263q0 -19 -19 -19z" />
    <glyph glyph-name="gaf" unicode="&#x6af;" horiz-adv-x="1789" arabic-form="isolated" 
d="M706 815l-58 60q-14 13 0 27l623 619q13 13 27 0l59 -59q13 -13 0 -27l-623 -620q-14 -12 -28 0zM1653 0h-990q-2 0 -8 2q-263 18 -412 191q-153 180 -153 470v42q0 8 6 13.5t14 5.5h298q8 0 14 -5.5t6 -13.5v-42q0 -163 63.5 -254t182.5 -108h700q-6 126 -93 214
q-93 93 -312 94h-165q-8 0 -14 6t-6 14v108q0 51 28 92q21 28 46 46l536 534q14 14 28 0l196 -198q14 -14 0 -27l-325 -323q163 -59 272 -202q108 -152 108 -373v-4l-1 -263q0 -19 -19 -19z" />
    <glyph glyph-name="alefhamzatwaslF" unicode="&#x671;" horiz-adv-x="546" arabic-form="final" 
d="M82 242v1188q0 8 5.5 14t13.5 6h142q68 0 117 -52q47 -50 47 -118v-979h176q8 0 14 -5.5t6 -13.5v-263q0 -8 -6 -13.5t-14 -5.5h-260q-100 0 -171 71q-70 73 -70 171zM-24 1561v84q0 8 5.5 14t13.5 6h54v116q0 33 21.5 55.5t53.5 22.5h40q7 0 12.5 -5.5t6.5 -13.5
q39 19 91 19q87 0 150.5 -56.5t63.5 -155.5v-86q0 -8 -5.5 -14t-13.5 -6h-474q-8 0 -13.5 6t-5.5 14zM165 1665l19 -18q0 11 1 18h-20zM210 1710q-21 -17 -25 -45l179 2q-6 28 -27 43q-29 24 -63 24t-64 -24z" />
    <glyph glyph-name="pehF" unicode="&#x67e;" horiz-adv-x="2184" arabic-form="final" 
d="M114 724h298q19 0 19 -19v-42q0 -339 255 -362q78 0 313.5 -0.5t315.5 -0.5q249 29 249 363v42q0 19 19 19h299q8 0 14 -5.5t6 -13.5v-42q0 -24 -1 -35q0 -2 -0.5 -7t-0.5 -8q23 -315 283 -315h1q1 1 3 1q8 0 14 -5.5t6 -13.5v-261q0 -8 -6 -13.5t-14 -5.5h-5
q-287 0 -450 175q-155 -161 -415 -175h-603l-30 1q-273 9 -432 187q-158 179 -158 475v42q0 8 6 13.5t14 5.5zM1310 -300v-84q0 -8 -6 -13.5t-14 -5.5h-265q-19 0 -19 19v214q0 19 19 19h137q73 0 111 -38q39 -40 37 -111zM952 -300v-84q0 -19 -19 -19h-265q-8 0 -14 5.5
t-6 13.5v214q0 8 6 13.5t14 5.5h137q72 0 110 -38q39 -39 37 -111zM1132 -588v-83q0 -8 -5.5 -14t-13.5 -6h-266q-8 0 -13.5 6t-5.5 14v213q0 8 5.5 14t13.5 6h137q72 0 111 -39t37 -111z" />
    <glyph glyph-name="pehI" unicode="&#x67e;" horiz-adv-x="747" arabic-form="initial" 
d="M-36 19v263q0 8 6 13.5t14 5.5l81 -1q249 29 249 363v42q0 19 19 19h300q19 0 19 -19v-42q-2 -298 -157 -473q-157 -177 -428 -190h-83q-8 0 -14 5.5t-6 13.5zM390 -588v-83q0 -8 -6 -14t-14 -6h-265q-8 0 -13.5 6t-5.5 14v213q0 8 5.5 14t13.5 6h137q72 0 111 -39
t37 -111zM210 -300v-84q0 -19 -19 -19h-266q-19 0 -19 19v214q0 19 19 19h137q73 0 111 -38q39 -40 37 -111zM568 -300v-84q0 -8 -6 -13.5t-14 -5.5h-265q-8 0 -14 5.5t-6 13.5v214q0 8 6 13.5t14 5.5h137q71 0 111 -38q39 -40 37 -111z" />
    <glyph glyph-name="pehM" unicode="&#x67e;" horiz-adv-x="841" arabic-form="medial" 
d="M246 663v42q0 19 19 19h299q19 0 19 -19v-42q0 -365 284 -365h1q2 1 4 1q19 0 19 -19v-261q0 -19 -19 -19h-6q-285 0 -451 178q-169 -178 -452 -178h-6q-19 0 -19 19l1 261q0 19 19 19l2 -1h3q283 0 283 365zM766 -300v-84q0 -8 -6 -13.5t-14 -5.5h-265q-19 0 -19 19v214
q0 19 19 19h137q73 0 111 -38q39 -40 37 -111zM408 -300v-84q0 -19 -19 -19h-265q-8 0 -14 5.5t-6 13.5v214q0 8 6 13.5t14 5.5h137q72 0 110 -38q39 -39 37 -111zM588 -588v-83q0 -8 -5.5 -14t-13.5 -6h-266q-8 0 -13.5 6t-5.5 14v213q0 8 5.5 14t13.5 6h137q72 0 111 -39
t37 -111z" />
    <glyph glyph-name="teF" unicode="&#x679;" horiz-adv-x="2184" arabic-form="final" 
d="M114 724h298q19 0 19 -19v-42q0 -339 255 -362q78 0 313.5 -0.5t315.5 -0.5q249 29 249 363v42q0 19 19 19h299q8 0 14 -5.5t6 -13.5v-42q0 -24 -1 -35q0 -2 -0.5 -7t-0.5 -8q23 -315 283 -315h1q1 1 3 1q8 0 14 -5.5t6 -13.5v-261q0 -8 -6 -13.5t-14 -5.5h-5
q-287 0 -450 175q-155 -161 -415 -175h-603l-30 1q-273 9 -432 187q-158 179 -158 475v42q0 8 6 13.5t14 5.5zM887 1352h54q8 0 13.5 -6t5.5 -14v-209q56 24 113 24q101 0 173.5 -63.5t72.5 -178.5v-100q0 -8 -6 -14t-14 -6h-569q-8 0 -14 6t-6 14v98q0 8 6 13.5t14 5.5h83
v167q0 32 0.5 94t0.5 93t21.5 53.5t51.5 22.5zM945 922l20 -17q0 10 1 17h-21zM997 981q-27 -20 -31 -59l216 2q-7 39 -31 57q-37 28 -77 28q-39 0 -77 -28z" />
    <glyph glyph-name="teI" unicode="&#x679;" horiz-adv-x="747" arabic-form="initial" 
d="M-35 19v263q0 19 19 19l82 -1q249 29 249 363v42q0 19 19 19h299q8 0 14 -5.5t6 -13.5v-42q-2 -296 -158 -473q-155 -176 -427 -190h-84q-19 0 -19 19zM244 1352h53q8 0 14 -6t6 -14v-209q56 24 112 24q101 0 173.5 -63.5t72.5 -178.5v-100q0 -8 -5.5 -14t-13.5 -6h-570
q-8 0 -13.5 6t-5.5 14v98q0 19 19 19h84v167q0 32 0.5 94t0.5 93t21.5 53.5t51.5 22.5zM302 922l19 -17q0 10 1 17h-20zM353 981q-27 -22 -31 -59l216 2q-7 39 -31 57q-35 28 -77 28q-39 0 -77 -28z" />
    <glyph glyph-name="teM" unicode="&#x679;" horiz-adv-x="841" arabic-form="medial" 
d="M246 663v42q0 19 19 19h299q19 0 19 -19v-42q0 -365 284 -365h1q2 1 4 1q19 0 19 -19v-261q0 -19 -19 -19h-6q-285 0 -451 178q-169 -178 -452 -178h-6q-19 0 -19 19l1 261q0 19 19 19l2 -1h3q283 0 283 365zM269 1352h54q8 0 13.5 -6t5.5 -14v-209q56 24 113 24
q101 0 173.5 -63.5t72.5 -178.5v-100q0 -8 -6 -14t-14 -6h-569q-8 0 -14 6t-6 14v98q0 8 6 13.5t14 5.5h83v167q0 32 0.5 94t0.5 93t21.5 53.5t51.5 22.5zM328 922l19 -17q0 10 1 17h-20zM379 981q-27 -22 -31 -59l216 2q-7 39 -31 57q-37 28 -77 28q-39 0 -77 -28z" />
    <glyph glyph-name="vehF" unicode="&#x6a4;" horiz-adv-x="2199" arabic-form="final" 
d="M1988 507v-206h214q19 0 19 -19v-263q0 -19 -19 -19h-1487l-30 1q-273 9 -432 187q-158 177 -159 475v42q0 8 6 13.5t14 5.5h299q19 0 19 -19v-42q0 -339 255 -362h484q-16 65 -16 156q0 208 97 332q53 65 136 93h-1q77 29 169 29q158 0 292 -82q140 -86 140 -322z
M1681 298h-5v-1h2q2 0 3 1zM1467 301h-9l13 -6l-2 3q-2 2 -2 3zM1429 448q0 -94 38 -147l209 -3q39 60 39 150q0 108 -37 163l1 -1q-39 53 -105 53q-70 0 -107 -52q-38 -56 -38 -163zM1929 1103v-84q0 -19 -19 -19h-266q-19 0 -19 19v214q0 8 5.5 14t13.5 6h137
q74 0 111 -40q39 -39 37 -110zM1528 1103v-84q0 -8 -6 -13.5t-14 -5.5h-265q-8 0 -14 5.5t-6 13.5v214q0 8 6 14t14 6h137q70 0 111 -40q39 -39 37 -110zM1709 1370v-83q0 -8 -5.5 -14t-13.5 -6h-265q-8 0 -14 6t-6 14v212q0 8 6 14t14 6h137q71 0 110 -39t37 -110z" />
    <glyph glyph-name="vehI" unicode="&#x6a4;" horiz-adv-x="1108" arabic-form="initial" 
d="M-42 301h230q-15 69 -15 156q0 209 96 332q54 66 137 93h-1q80 29 168 29q157 0 293 -82q140 -86 140 -322v-488q0 -8 -6 -13.5t-14 -5.5h-1028q-19 0 -19 19v263q0 19 19 19zM696 301l-2 -4l-2 -2l13 6h-9zM485 301h-10l14 -6l-2 3q-2 2 -2 3zM446 448q0 -93 39 -147
h211q37 60 37 147q0 105 -37 163l1 -1q-41 53 -105 53q-73 0 -107 -52q-39 -58 -39 -163zM951 1103v-84q0 -19 -19 -19h-265q-8 0 -14 5.5t-6 13.5v214q0 8 6 14t14 6h137q73 0 110 -40q38 -37 37 -110zM550 1103v-84q0 -19 -19 -19h-266q-19 0 -19 19v214q0 8 5.5 14
t13.5 6h137q71 0 111 -40q39 -39 37 -110zM732 1370v-83q0 -8 -6 -14t-14 -6h-265q-8 0 -13.5 6t-5.5 14v212q0 8 5.5 14t13.5 6h137q72 0 111 -39q38 -40 37 -110z" />
    <glyph glyph-name="vehM" unicode="&#x6a4;" horiz-adv-x="1187" arabic-form="medial" 
d="M995 507v-206h215q8 0 14 -5.5t6 -13.5v-263q0 -8 -6 -13.5t-14 -5.5h-1250q-8 0 -14 5.5t-6 13.5l3 263q0 8 6 13.5t14 5.5h215q-16 70 -16 156q0 207 96 332q54 66 137 93h-1q80 29 168 29q157 0 293 -82q140 -86 140 -322zM688 298h-5v-1h2q2 0 3 1zM474 301h-10
l14 -6l-2 3q-2 2 -2 3zM435 448q0 -93 39 -147l209 -3q39 63 39 150q0 105 -37 163l1 -1q-38 53 -104 53q-72 0 -108 -53v1q-39 -58 -39 -163zM953 1103v-84q0 -8 -6 -13.5t-14 -5.5h-265q-19 0 -19 19v214q0 8 5.5 14t13.5 6h137q74 0 111 -40q39 -39 37 -110zM552 1103
v-84q0 -8 -6 -13.5t-14 -5.5h-265q-8 0 -14 5.5t-6 13.5v214q0 8 6 14t14 6h137q70 0 111 -40q39 -39 37 -110zM733 1370v-83q0 -8 -5.5 -14t-13.5 -6h-265q-8 0 -14 6t-6 14v212q0 8 6 14t14 6h137q71 0 110 -39t37 -110z" />
    <glyph glyph-name="tcheF" unicode="&#x686;" horiz-adv-x="1469" arabic-form="final" 
d="M681 301h278q-6 126 -93 214q-93 93 -312 94h-164q-8 0 -13.5 6t-5.5 14v108q0 72 52 121t125 49h47q295 0 483 -167q173 -173 179 -439h231q19 0 19 -19v-263q0 -19 -19 -19h-286l-521 2q-127 0 -190 -60q-62 -60 -62 -132q0 -74 62 -134q66 -61 190 -61h145
q19 0 19 -19v-261q0 -19 -19 -19h-145q-293 0 -443 154q-149 155 -149 340q0 183 149 338q149 153 443 153zM1036 -292v-57q0 -8 -6 -13.5t-14 -5.5h-182q-8 0 -14 5.5t-6 13.5v147q0 8 6 13.5t14 5.5h94q55 0 81 -29l-1 1q30 -27 28 -81zM923 -124v-58q0 -8 -6 -13.5
t-14 -5.5h-182q-8 0 -14 5.5t-6 13.5v148q0 8 6 13.5t14 5.5h94q56 0 82 -29q28 -28 26 -80zM1148 -124v-58q0 -19 -19 -19h-183q-19 0 -19 19v148q0 19 19 19h95q55 0 81 -29q28 -28 26 -80z" />
    <glyph glyph-name="tcheI" unicode="&#x686;" horiz-adv-x="1028" arabic-form="initial" 
d="M-62 19v263q0 8 6 13.5t14 5.5h593q-6 126 -93 214q-92 93 -313 94h-161q-8 0 -14 6t-6 14v108q0 71 53 121q52 49 123 49h47q303 0 484 -167q173 -164 179 -439h58q19 0 19 -19v-263q0 -19 -19 -19h-950q-8 0 -14 5.5t-6 13.5zM807 -300v-84q0 -8 -6 -13.5t-14 -5.5
h-265q-19 0 -19 19v214q0 19 19 19h137q73 0 111 -38q39 -40 37 -111zM449 -300v-84q0 -19 -19 -19h-265q-8 0 -14 5.5t-6 13.5v214q0 8 6 13.5t14 5.5h137q72 0 110 -38q39 -39 37 -111zM629 -588v-83q0 -8 -5.5 -14t-13.5 -6h-266q-8 0 -13.5 6t-5.5 14v213q0 8 5.5 14
t13.5 6h137q72 0 111 -39t37 -111z" />
    <glyph glyph-name="tcheM" unicode="&#x686;" horiz-adv-x="1048" arabic-form="medial" 
d="M1094 282v-263q0 -8 -6 -13.5t-14 -5.5h-1115q-8 0 -14 5.5t-6 13.5v263q0 8 6 13.5t14 5.5h658q-6 126 -94 214q-92 92 -312 94h-161q-8 0 -13.5 6t-5.5 14v108q0 72 52 121t125 49h45q295 0 483 -167q173 -173 179 -439h159q8 0 14 -5.5t6 -13.5zM850 -300v-84
q0 -8 -6 -13.5t-14 -5.5h-265q-19 0 -19 19v214q0 19 19 19h137q73 0 111 -38q39 -40 37 -111zM492 -300v-84q0 -19 -19 -19h-265q-8 0 -14 5.5t-6 13.5v214q0 8 6 13.5t14 5.5h137q72 0 110 -38q39 -39 37 -111zM672 -588v-83q0 -8 -5.5 -14t-13.5 -6h-266q-8 0 -13.5 6
t-5.5 14v213q0 8 5.5 14t13.5 6h137q72 0 111 -39t37 -111z" />
    <glyph glyph-name="talF" unicode="&#x688;" horiz-adv-x="1161" arabic-form="final" 
d="M243 301h517q-6 126 -93 214q-92 92 -312 94h-166q-8 0 -13.5 6t-5.5 14v108q0 72 52 121t123 49h52q295 0 483 -167q179 -179 179 -454v-267q0 -8 -6 -13.5t-14 -5.5h-934q-19 0 -19 19v130q0 64 47 108q44 41 110 44zM378 1590h54q8 0 13.5 -6t5.5 -14v-209
q56 24 113 24q101 0 173.5 -63.5t72.5 -178.5v-100q0 -8 -6 -14t-14 -6h-569q-8 0 -13.5 6t-5.5 14v98q0 19 19 19h84v167q0 32 0.5 94t0.5 93t21 53.5t51 22.5zM437 1160l19 -17q0 10 1 17h-20zM488 1220q-27 -25 -31 -60l216 2q-6 39 -31 58q-38 27 -77 27q-38 0 -77 -27z
" />
    <glyph glyph-name="zheF" unicode="&#x698;" horiz-adv-x="790" arabic-form="final" 
d="M616 771l1 -425l-1 -45h206q19 0 19 -19v-263q0 -19 -19 -19h-271q-69 -164 -223 -257q-140 -83 -324 -83q-29 0 -42 1q-12 0 -19 7q-5 5 -5 14l13 260q0 18 20 18q1 0 2 -0.5t3 -0.5q137 -8 235 80q97 87 96 307v425q0 19 19 19h270q8 0 14 -5.5t6 -13.5zM802 1103v-84
q0 -19 -19 -19h-265q-8 0 -14 5.5t-6 13.5v214q0 8 6 14t14 6h137q73 0 110 -40q38 -37 37 -110zM401 1103v-84q0 -19 -19 -19h-266q-19 0 -19 19v214q0 8 5.5 14t13.5 6h137q71 0 111 -40q39 -39 37 -110zM583 1370v-83q0 -8 -6 -14t-14 -6h-265q-8 0 -13.5 6t-5.5 14v212
q0 8 5.5 14t13.5 6h137q72 0 111 -39q38 -40 37 -110z" />
    <glyph glyph-name="arreF" unicode="&#x691;" horiz-adv-x="790" arabic-form="final" 
d="M616 771l1 -425l-1 -45h206q19 0 19 -19v-263q0 -19 -19 -19h-271q-69 -164 -223 -257q-140 -83 -324 -83q-29 0 -42 1q-12 0 -19 7q-5 5 -5 14l13 260q0 18 20 18q1 0 2 -0.5t3 -0.5q137 -8 235 80q97 87 96 307v425q0 19 19 19h270q8 0 14 -5.5t6 -13.5zM343 1466h53
q8 0 14 -5.5t6 -13.5v-209q54 23 112 23q101 0 173.5 -62.5t72.5 -179.5v-100q0 -19 -19 -19h-570q-19 0 -19 19v98q0 8 5.5 14t13.5 6h84v167q0 31 0.5 93t0.5 94q0 30 21.5 52.5t51.5 22.5zM401 1037l20 -18v18h-20zM453 1096q-27 -21 -32 -59l216 2q-7 40 -31 57
q-34 27 -77 27q-41 0 -76 -27z" />
    <glyph glyph-name="kehF" unicode="&#x6a9;" horiz-adv-x="1873" arabic-form="final" 
d="M1565 659q105 -147 109 -358h209q19 0 19 -19v-263q0 -19 -19 -19h-1201l-20 1q-264 17 -417 192q-153 180 -153 470v42q0 19 19 19h298q19 0 19 -19v-42q0 -163 63.5 -253.5t183.5 -108.5h700q-6 126 -94 214q-93 93 -311 94h-166q-8 0 -13.5 6t-5.5 14v108q0 51 28 92
q18 27 45 45l536 535q14 14 27 0l198 -198q13 -14 0 -27l-325 -323q171 -61 271 -202z" />
    <glyph glyph-name="kehI" unicode="&#x6a9;" horiz-adv-x="1071" arabic-form="initial" 
d="M108 829l3 3q15 22 42 43l537 534q13 14 27 0l197 -198q14 -14 0 -27l-324 -323q169 -61 271 -202q109 -151 109 -373v-4l-1 -263q0 -8 -6 -13.5t-14 -5.5h-990q-8 0 -14 5.5t-6 13.5v263q0 8 6 13.5t14 5.5h711q-6 126 -93 214q-93 93 -312 94h-165q-8 0 -14 6t-6 14
v108q0 52 28 92z" />
    <glyph glyph-name="kehM" unicode="&#x6a9;" horiz-adv-x="1141" arabic-form="medial" 
d="M109 829h1q19 28 45 46l536 534q14 14 27 0l197 -198q13 -14 0 -27l-324 -323q167 -60 270 -202q105 -149 109 -358h195q8 0 14 -5.5t6 -13.5v-263q0 -8 -6 -13.5t-14 -5.5h-1206q-19 0 -19 19v263q0 19 19 19h713q-6 126 -94 214q-92 92 -311 94h-167q-8 0 -13.5 6
t-5.5 14v108q0 51 28 92z" />
    <glyph glyph-name="gafF" unicode="&#x6af;" horiz-adv-x="1873" arabic-form="final" 
d="M707 815l-58 60q-14 13 0 27l623 619q13 14 27 0l58 -59q14 -13 0 -27l-623 -620q-13 -13 -27 0zM1565 659q105 -147 109 -358h209q19 0 19 -19v-263q0 -19 -19 -19h-1201l-20 1q-264 17 -417 192q-153 180 -153 470v42q0 19 19 19h298q19 0 19 -19v-42
q0 -163 63.5 -253.5t183.5 -108.5h700q-6 126 -94 214q-93 93 -311 94h-166q-8 0 -13.5 6t-5.5 14v108q0 51 28 92q18 27 45 45l536 535q14 14 27 0l198 -198q13 -14 0 -27l-325 -323q171 -61 271 -202z" />
    <glyph glyph-name="gafI" unicode="&#x6af;" horiz-adv-x="1071" arabic-form="initial" 
d="M3 815l-59 60q-13 13 0 27l623 619q14 14 27 0l59 -59q13 -13 0 -27l-623 -620q-14 -13 -27 0zM108 829l3 3q15 22 42 43l537 534q13 14 27 0l197 -198q14 -14 0 -27l-324 -323q169 -61 271 -202q109 -151 109 -373v-4l-1 -263q0 -8 -6 -13.5t-14 -5.5h-990q-8 0 -14 5.5
t-6 13.5v263q0 8 6 13.5t14 5.5h711q-6 126 -93 214q-93 93 -312 94h-165q-8 0 -14 6t-6 14v108q0 52 28 92z" />
    <glyph glyph-name="gafM" unicode="&#x6af;" horiz-adv-x="1141" arabic-form="medial" 
d="M109 829h1q19 28 45 46l536 534q14 14 27 0l197 -198q13 -14 0 -27l-324 -323q167 -60 270 -202q105 -149 109 -358h195q8 0 14 -5.5t6 -13.5v-263q0 -8 -6 -13.5t-14 -5.5h-1206q-19 0 -19 19v263q0 19 19 19h713q-6 126 -94 214q-92 92 -311 94h-167q-8 0 -13.5 6
t-5.5 14v108q0 51 28 92zM6 815l-58 60q-14 13 0 27l623 619q13 14 27 0l58 -59q14 -13 0 -27l-623 -620q-13 -13 -27 0z" />
    <glyph glyph-name="shaddaA.dammatanA" unicode="&#xfc5e;" arabic-form="isolated" 
d="M163 -95h-314q-69 0 -69 70v153q0 81 79 81h42q8 0 14 -6t6 -14v-155h17v155q0 8 5.5 14t13.5 6h42q80 0 80 -81v-94h12v155q0 8 5.5 14t13.5 6h43q78 0 78 -81l1 -4v-149q0 -70 -69 -70zM212 526q21 -15 39 -42q19 -33 17 -88q-9 -177 -179 -171q-19 1 -19 21l4 64
q2 20 20 18h16q-40 6 -65 31q-30 23 -30 78q0 57 34 84q31 25 72 25q29 0 41 -3q25 -2 50 -17zM167 410v-25l28 17q-20 9 -28 11v-3zM159 416l8 -3q-1 16 -9 25q-12 12 -29 12q-7 0 -9 -2q-4 -4 -4 -11q0 -1 3 -10l13 -5q-1 -1 2 -1q1 0 7 -0.5t13 -2.5h-3q6 -2 8 -2z
M-45 526q24 -15 39 -41q20 -32 18 -89q-10 -177 -180 -171q-18 1 -18 21l4 64q0 8 6 13.5t14 4.5h15q-36 6 -65 31q-30 24 -30 78q0 55 33 84q31 25 73 25q22 0 42 -3q24 -2 49 -17zM-89 410v-25l27 17q-16 8 -27 11v-3zM-98 416l9 -3q0 16 -10 25q-12 12 -28 12
q-9 0 -11 -2q-3 -3 -3 -11l3 -9q5 -4 14 -6q-1 -1 2 -1q1 0 7 -0.5t12 -2.5h-3z" />
    <glyph glyph-name="shaddaA.kasratanB" unicode="&#xfc5f;" arabic-form="isolated" 
d="M150 68h-313q-70 0 -70 70v40l1 110v4q0 80 78 80h43q8 0 14 -5.5t6 -13.5v-156h15v156q0 8 6 13.5t14 5.5h42q79 0 79 -80l1 -4v-91h12v156q0 19 19 19h42q80 0 80 -80v-154q0 -70 -69 -70zM213 -134l9 -45q5 -18 -15 -23l-358 -78q-63 -14 -76 53l-10 44q-5 19 15 24
l359 76l-1 -1q60 15 77 -50zM213 11l9 -45q5 -18 -15 -23l-358 -77q-63 -13 -76 51l-10 45q-5 18 15 23l359 78l-1 -1q62 15 77 -51z" />
    <glyph glyph-name="shaddaA.fathaA" unicode="&#xfc60;" arabic-form="isolated" 
d="M151 -161h-314q-69 0 -69 70v153q0 81 79 81h43q8 0 14 -6t6 -14v-155h16v155q0 8 5.5 14t13.5 6h43q79 0 79 -81l1 -4v-90h11v155q0 8 5.5 14t13.5 6h43q79 0 79 -81l1 -4v-149q0 -70 -70 -70zM215 333l9 -44q5 -19 -15 -24l-360 -76q-63 -14 -76 52l-9 44q-5 18 15 23
l359 78q62 14 77 -53z" />
    <glyph glyph-name="shaddaA.dammaA" unicode="&#xfc61;" arabic-form="isolated" 
d="M163 -95h-315q-69 0 -69 70v153q0 81 80 81h42q8 0 13.5 -6t5.5 -14v-155h18v155q0 8 5.5 14t13.5 6h42q80 0 80 -81v-94h11v155q0 8 6 14t14 6h43q78 0 78 -81l1 -4v-149q0 -70 -69 -70zM66 526q21 -15 39 -42q18 -32 18 -88q-11 -177 -180 -171q-19 1 -19 21l4 64
q1 8 7 13.5t14 4.5h15q-36 6 -65 31q-30 24 -30 78q0 56 34 84q31 25 72 25q23 0 42 -3q24 -2 49 -17zM21 410v-25l28 17q-20 9 -28 11v-3zM13 416l8 -3q-1 17 -9 25q-12 12 -28 12q-8 0 -10 -2q-4 -4 -4 -11q0 -1 3 -10l13 -5l22 -4h-3q6 -2 8 -2z" />
    <glyph glyph-name="shaddaA.kasraB" unicode="&#xfc62;" arabic-form="isolated" 
d="M150 68h-313q-70 0 -70 70v40l1 110v4q0 80 78 80h43q8 0 14 -5.5t6 -13.5v-156h15v156q0 8 6 13.5t14 5.5h42q79 0 79 -80l1 -4v-91h12v156q0 19 19 19h42q80 0 80 -80v-154q0 -70 -69 -70zM213 11l9 -45q5 -18 -15 -23l-358 -77q-63 -13 -76 51l-10 45q-5 18 15 23
l359 78l-1 -1q62 15 77 -51z" />
    <glyph glyph-name="alefmadF" unicode="&#x622;" horiz-adv-x="546" arabic-form="final" 
d="M82 242v1188q0 8 5.5 14t13.5 6h142q68 0 117 -52q47 -50 47 -118v-979h176q8 0 14 -5.5t6 -13.5v-263q0 -8 -6 -13.5t-14 -5.5h-260q-100 0 -171 71q-70 73 -70 171zM-25 1523v103q0 80 82 110q23 6 49 6q31 0 69 -11q6 -2 21 -7.5t24 -8.5q49 -16 80 -25
q49 -18 100 -22q44 -3 75 40q9 12 22 7.5t13 -18.5q0 -76 -5 -124q-10 -59 -82 -74v1q-19 -5 -42 -5q-46 0 -84 17h1q-20 8 -116 42h1q-51 16 -104 14q-41 -1 -67 -54q-8 -14 -22.5 -10.5t-14.5 19.5z" />
    <glyph glyph-name="alefhamzaAF" unicode="&#x623;" horiz-adv-x="546" arabic-form="final" 
d="M83 242v1188q0 8 5.5 14t13.5 6h142q68 0 117 -52q47 -50 47 -118v-979h176q8 0 14 -5.5t6 -13.5v-263q0 -8 -6 -13.5t-14 -5.5h-260q-100 0 -171 71q-70 73 -70 171zM336 1686v-22h88q8 0 13.5 -6t5.5 -14v-100q0 -19 -19 -19h-323q-8 0 -14 5.5t-6 13.5v100q0 8 6 14
t14 6h34v64q0 93 94 93h77q58 -7 93 -45q33 -36 41 -68q2 -9 -4 -15.5t-15 -6.5h-85z" />
    <glyph glyph-name="wawhamzaF" unicode="&#x624;" horiz-adv-x="1134" arabic-form="final" 
d="M984 327q0 -5 -0.5 -13.5t-0.5 -12.5h177q19 0 19 -19v-263q0 -19 -19 -19h-241q-72 -164 -224 -257q-140 -83 -323 -83q-29 0 -42 1q-12 0 -19 7q-6 6 -6 14l15 260q1 7 6.5 12.5t12.5 5.5h1q2 -1 4 -1q71 -3 134 21t106 67l-43 7q-44 5 -63 11h1q-25 6 -45 6
q-158 30 -247 108q-100 82 -100 270q0 198 110 291q110 87 252 87q76 0 160 -10q93 -12 176 -61q77 -43 138 -145q61 -111 61 -284zM696 272v69q0 105 -55 160q-58 58 -154 58q-59 0 -85 -26h1q-30 -31 -30 -81q0 -39 21 -74q28 -28 91 -47h-1l21 -5l66 -14q95 -27 125 -40z
M586 1109v-20h88q19 0 19 -19v-99q0 -8 -5.5 -14t-13.5 -6h-323q-8 0 -13.5 6t-5.5 14v99q0 19 19 19h34v138q0 8 6 14t14 6h149q58 -8 95 -45q33 -36 41 -70q2 -9 -4 -16t-15 -7h-85z" />
    <glyph glyph-name="alefhamzaBF" unicode="&#x625;" horiz-adv-x="546" arabic-form="final" 
d="M83 242v1188q0 8 5.5 14t13.5 6h142q68 0 117 -52q47 -50 47 -118v-979h176q8 0 14 -5.5t6 -13.5v-263q0 -8 -6 -13.5t-14 -5.5h-260q-100 0 -171 71q-70 73 -70 171zM336 -210v-22h88q8 0 13.5 -6t5.5 -14v-100q0 -19 -19 -19h-323q-8 0 -14 5.5t-6 13.5v100q0 8 6 14
t14 6h34v64q0 93 94 93h77q58 -7 93 -45q33 -36 41 -68q2 -9 -4 -15.5t-15 -6.5h-85z" />
    <glyph glyph-name="yahamzaAF" unicode="&#x626;" horiz-adv-x="1765" arabic-form="final" 
d="M815 301h962q8 0 14 -5.5t6 -13.5v-263q0 -8 -6 -13.5t-14 -5.5h-405q-49 -184 -196 -293q-149 -112 -379 -132h-43q-2 0 -4 1h-1h-4q-1 0 -3 -0.5t-3 -0.5h-3l-43 2q-281 18 -440 183q-162 165 -162 435v173q0 8 6 14t14 6h109q73 0 122 -55v1q50 -53 50 -124l-1 -9v-6
q0 -123 81 -218q82 -88 273 -102q206 17 293 125h-6q-9 0 -15 6q-78 16 -139 77q-82 82 -82 199q0 19 19 19zM307 723v-20h88q19 0 19 -19v-99q0 -8 -5.5 -14t-13.5 -6h-323q-8 0 -13.5 6t-5.5 14v99q0 19 19 19h34v138q0 8 6 14t14 6h149q58 -8 95 -45q33 -36 41 -70
q2 -9 -4 -16t-15 -7h-85z" />
    <glyph glyph-name="yahamzaAI" unicode="&#x626;" horiz-adv-x="747" arabic-form="initial" 
d="M-35 19v263q0 19 19 19l82 -1q248 29 248 363v42q0 8 6 13.5t14 5.5h299q8 0 14 -5.5t6 -13.5v-42q-2 -296 -158 -473q-155 -176 -427 -190h-84q-19 0 -19 19zM553 1003v-20h88q19 0 19 -19v-99q0 -8 -5.5 -14t-13.5 -6h-323q-8 0 -13.5 6t-5.5 14v99q0 19 19 19h34v138
q0 8 6 14t14 6h149q58 -8 95 -45q33 -36 41 -70q2 -9 -4 -16t-15 -7h-85z" />
    <glyph glyph-name="yahamzaAM" unicode="&#x626;" horiz-adv-x="841" arabic-form="medial" 
d="M246 663v42q0 19 19 19h299q19 0 19 -19v-42q0 -365 284 -365h1q2 1 4 1q19 0 19 -19v-261q0 -19 -19 -19h-6q-285 0 -451 178q-169 -178 -452 -178h-6q-19 0 -19 19l1 261q0 19 19 19l2 -1h3q283 0 283 365zM480 970v-20h88q19 0 19 -19v-99q0 -8 -5.5 -14t-13.5 -6
h-323q-8 0 -13.5 6t-5.5 14v99q0 19 19 19h34v138q0 8 6 14t14 6h149q58 -8 95 -45q33 -36 41 -70q2 -9 -4 -16t-15 -7h-85z" />
    <glyph glyph-name="alefF" unicode="&#x627;" horiz-adv-x="546" arabic-form="final" 
d="M83 242v1188q0 8 5.5 14t13.5 6h142q68 0 117 -52q47 -50 47 -118v-979h176q8 0 14 -5.5t6 -13.5v-263q0 -8 -6 -13.5t-14 -5.5h-260q-100 0 -171 71q-70 73 -70 171z" />
    <glyph glyph-name="baF" unicode="&#x628;" horiz-adv-x="2184" arabic-form="final" 
d="M114 724h298q19 0 19 -19v-42q0 -339 255 -362q78 0 313.5 -0.5t315.5 -0.5q249 29 249 363v42q0 19 19 19h299q8 0 14 -5.5t6 -13.5v-42q0 -24 -1 -35q0 -2 -0.5 -7t-0.5 -8q23 -315 283 -315h1q1 1 3 1q8 0 14 -5.5t6 -13.5v-261q0 -8 -6 -13.5t-14 -5.5h-5
q-287 0 -450 175q-155 -161 -415 -175h-603l-30 1q-273 9 -432 187q-158 179 -158 475v42q0 8 6 13.5t14 5.5zM1097 -300v-84q0 -19 -19 -19h-265q-19 0 -19 19v214q0 19 19 19h137q72 0 110 -38q39 -41 37 -111z" />
    <glyph glyph-name="baI" unicode="&#x628;" horiz-adv-x="747" arabic-form="initial" 
d="M-35 19v263q0 19 19 19l82 -1q248 29 248 363v42q0 8 6 13.5t14 5.5h299q8 0 14 -5.5t6 -13.5v-42q-2 -296 -158 -473q-155 -176 -427 -190h-84q-19 0 -19 19zM473 -300v-84q0 -8 -6 -13.5t-14 -5.5h-265q-19 0 -19 19v214q0 19 19 19h137q73 0 111 -38q39 -41 37 -111z
" />
    <glyph glyph-name="baM" unicode="&#x628;" horiz-adv-x="841" arabic-form="medial" 
d="M246 663v42q0 19 19 19h299q19 0 19 -19v-42q0 -365 284 -365h1q2 1 4 1q19 0 19 -19v-261q0 -19 -19 -19h-6q-285 0 -451 178q-169 -178 -452 -178h-6q-19 0 -19 19l1 261q0 19 19 19l2 -1h3q283 0 283 365zM540 -300v-84q0 -19 -19 -19h-265q-8 0 -14 5.5t-6 13.5v214
q0 8 6 13.5t14 5.5h137q69 0 110 -38q39 -40 37 -111z" />
    <glyph glyph-name="tamarF" unicode="&#x629;" horiz-adv-x="1129" arabic-form="final" 
d="M979 301h176q19 0 19 -19v-263q0 -19 -19 -19h-1049q-19 0 -19 19v134q0 21 0.5 65.5t0.5 67.5q0 225 94 349q96 128 206 185h-1q112 61 205 75q74 10 74 -5q0 8 5.5 14t13.5 6h273q8 0 14 -6t6 -14zM387 301h-19l19 -19v4v15zM457 493q-66 -84 -70 -192h279v298
q-144 -26 -209 -106zM990 1113v-83q0 -19 -19 -19h-265q-8 0 -14 5.5t-6 13.5v213q0 8 6 13.5t14 5.5h137q75 0 111 -39q38 -38 36 -110zM624 1113v-83q0 -8 -6 -13.5t-14 -5.5h-265q-19 0 -19 19v213q0 19 19 19h137q75 0 111 -39q39 -39 37 -110z" />
    <glyph glyph-name="taF" unicode="&#x62a;" horiz-adv-x="2184" arabic-form="final" 
d="M114 724h298q19 0 19 -19v-42q0 -339 255 -362q78 0 313.5 -0.5t315.5 -0.5q249 29 249 363v42q0 19 19 19h299q8 0 14 -5.5t6 -13.5v-42q0 -24 -1 -35q0 -2 -0.5 -7t-0.5 -8q23 -315 283 -315h1q1 1 3 1q8 0 14 -5.5t6 -13.5v-261q0 -8 -6 -13.5t-14 -5.5h-5
q-287 0 -450 175q-155 -161 -415 -175h-603l-30 1q-273 9 -432 187q-158 179 -158 475v42q0 8 6 13.5t14 5.5zM1313 914v-83q0 -8 -6 -14t-14 -6h-264q-8 0 -13.5 6t-5.5 14v214q0 19 19 19h137q71 0 111 -40q38 -39 36 -110zM912 914v-83q0 -8 -5.5 -14t-13.5 -6h-264
q-8 0 -14 6t-6 14v214q0 8 6 13.5t14 5.5h137q70 0 110 -40q38 -36 36 -110z" />
    <glyph glyph-name="taI" unicode="&#x62a;" horiz-adv-x="747" arabic-form="initial" 
d="M-36 19v263q0 8 6 13.5t14 5.5l81 -1q249 29 249 363v42q0 8 6 13.5t14 5.5h299q19 0 19 -19v-42q-2 -298 -157 -473q-157 -177 -428 -190h-83q-8 0 -14 5.5t-6 13.5zM651 914v-83q0 -8 -5.5 -14t-13.5 -6h-264q-8 0 -14 6t-6 14v214q0 8 6 13.5t14 5.5h136q71 0 112 -40
q36 -38 35 -110zM250 914v-83q0 -8 -5.5 -14t-13.5 -6h-266q-8 0 -13.5 6t-5.5 14v214q0 19 19 19h138q70 0 110 -40q38 -38 37 -110z" />
    <glyph glyph-name="taM" unicode="&#x62a;" horiz-adv-x="841" arabic-form="medial" 
d="M246 663v42q0 19 19 19h299q19 0 19 -19v-42q0 -365 284 -365h1q2 1 4 1q19 0 19 -19v-261q0 -19 -19 -19h-6q-285 0 -451 178q-169 -178 -452 -178h-6q-19 0 -19 19l1 261q0 19 19 19l2 -1h3q283 0 283 365zM767 914v-83q0 -8 -6 -14t-14 -6h-264q-8 0 -13.5 6t-5.5 14
v214q0 19 19 19h137q71 0 111 -40q38 -39 36 -110zM365 914v-83q0 -8 -5.5 -14t-13.5 -6h-265q-8 0 -14 6t-6 14v214q0 8 6 13.5t14 5.5h138q70 0 111 -40q36 -38 35 -110z" />
    <glyph glyph-name="thaF" unicode="&#x62b;" horiz-adv-x="2184" arabic-form="final" 
d="M114 724h298q19 0 19 -19v-42q0 -339 255 -362q78 0 313.5 -0.5t315.5 -0.5q249 29 249 363v42q0 19 19 19h299q8 0 14 -5.5t6 -13.5v-42q0 -24 -1 -35q0 -2 -0.5 -7t-0.5 -8q23 -315 283 -315h1q1 1 3 1q8 0 14 -5.5t6 -13.5v-261q0 -8 -6 -13.5t-14 -5.5h-5
q-287 0 -450 175q-155 -161 -415 -175h-603l-30 1q-273 9 -432 187q-158 179 -158 475v42q0 8 6 13.5t14 5.5zM1313 914v-83q0 -8 -6 -14t-14 -6h-264q-8 0 -13.5 6t-5.5 14v214q0 19 19 19h137q71 0 111 -40q38 -39 36 -110zM912 914v-83q0 -8 -5.5 -14t-13.5 -6h-264
q-8 0 -14 6t-6 14v214q0 8 6 13.5t14 5.5h137q70 0 110 -40q38 -36 36 -110zM1093 1182v-84q0 -19 -19 -19h-264q-19 0 -19 19v213q0 19 19 19h137q71 0 110 -40q37 -39 36 -108z" />
    <glyph glyph-name="thaI" unicode="&#x62b;" horiz-adv-x="747" arabic-form="initial" 
d="M-36 19v263q0 8 6 13.5t14 5.5l81 -1q249 29 249 363v42q0 8 6 13.5t14 5.5h299q19 0 19 -19v-42q-2 -298 -157 -473q-157 -177 -428 -190h-83q-8 0 -14 5.5t-6 13.5zM651 954v-83q0 -8 -5.5 -14t-13.5 -6h-264q-8 0 -14 6t-6 14v214q0 8 6 13.5t14 5.5h136q71 0 112 -40
q36 -38 35 -110zM250 954v-83q0 -8 -5.5 -14t-13.5 -6h-266q-8 0 -13.5 6t-5.5 14v214q0 19 19 19h138q70 0 110 -40q38 -38 37 -110zM432 1222v-84q0 -8 -6 -13.5t-14 -5.5h-265q-19 0 -19 19v213q0 19 19 19h138q74 0 110 -39q38 -42 37 -109z" />
    <glyph glyph-name="thaM" unicode="&#x62b;" horiz-adv-x="841" arabic-form="medial" 
d="M246 663v42q0 19 19 19h299q19 0 19 -19v-42q0 -365 284 -365h1q2 1 4 1q19 0 19 -19v-261q0 -19 -19 -19h-6q-285 0 -451 178q-169 -178 -452 -178h-6q-19 0 -19 19l1 261q0 19 19 19l2 -1h3q283 0 283 365zM767 964v-83q0 -8 -6 -14t-14 -6h-264q-8 0 -13.5 6t-5.5 14
v214q0 19 19 19h137q71 0 111 -40q38 -39 36 -110zM365 964v-83q0 -8 -5.5 -14t-13.5 -6h-265q-8 0 -14 6t-6 14v214q0 8 6 13.5t14 5.5h138q70 0 111 -40q36 -38 35 -110zM547 1232v-84q0 -19 -19 -19h-266q-19 0 -19 19v213q0 19 19 19h138q72 0 111 -40q37 -39 36 -108z
" />
    <glyph glyph-name="jeemF" unicode="&#x62c;" horiz-adv-x="1469" arabic-form="final" 
d="M681 301h278q-6 126 -93 214q-93 93 -312 94h-164q-8 0 -13.5 6t-5.5 14v108q0 72 52 121t125 49h47q295 0 483 -167q173 -173 179 -439h231q19 0 19 -19v-263q0 -19 -19 -19h-286l-521 2q-127 0 -190 -60q-62 -60 -62 -132q0 -74 62 -134q66 -61 190 -61h145
q19 0 19 -19v-261q0 -19 -19 -19h-145q-293 0 -443 154q-149 155 -149 340q0 183 149 338q149 153 443 153zM1024 -211v-82q0 -8 -5.5 -14t-13.5 -6h-265q-8 0 -13.5 6t-5.5 14v212q0 8 5.5 14t13.5 6h137q75 0 110 -39q38 -42 37 -111z" />
    <glyph glyph-name="jeemI" unicode="&#x62c;" horiz-adv-x="1028" arabic-form="initial" 
d="M890 -300v-84q0 -19 -19 -19h-265q-8 0 -14 5.5t-6 13.5v214q0 8 6 13.5t14 5.5h138q70 0 110 -38q38 -39 36 -111zM-62 19v263q0 8 6 13.5t14 5.5h593q-6 126 -93 214q-92 93 -313 94h-161q-8 0 -14 6t-6 14v108q0 71 53 121q52 49 123 49h47q303 0 484 -167
q173 -164 179 -439h58q19 0 19 -19v-263q0 -19 -19 -19h-950q-8 0 -14 5.5t-6 13.5z" />
    <glyph glyph-name="jeemM" unicode="&#x62c;" horiz-adv-x="1048" arabic-form="medial" 
d="M1094 282v-263q0 -8 -6 -13.5t-14 -5.5h-1115q-8 0 -14 5.5t-6 13.5v263q0 8 6 13.5t14 5.5h658q-6 126 -94 214q-92 92 -312 94h-161q-8 0 -13.5 6t-5.5 14v108q0 72 52 121t125 49h45q295 0 483 -167q173 -173 179 -439h159q8 0 14 -5.5t6 -13.5zM753 -300v-84
q0 -8 -6 -13.5t-14 -5.5h-265q-19 0 -19 19v214q0 19 19 19h137q73 0 111 -38q38 -42 37 -111z" />
    <glyph glyph-name="haF" unicode="&#x62d;" horiz-adv-x="1469" arabic-form="final" 
d="M681 301h278q-6 126 -93 214q-93 93 -312 94h-164q-8 0 -13.5 6t-5.5 14v108q0 72 52 121t125 49h47q295 0 483 -167q173 -173 179 -439h231q19 0 19 -19v-263q0 -19 -19 -19h-286l-521 2q-127 0 -190 -60q-62 -60 -62 -132q0 -74 62 -134q66 -61 190 -61h145
q19 0 19 -19v-261q0 -19 -19 -19h-145q-293 0 -443 154q-149 155 -149 340q0 183 149 338q149 153 443 153z" />
    <glyph glyph-name="haI" unicode="&#x62d;" horiz-adv-x="1028" arabic-form="initial" 
d="M-62 19v263q0 8 6 13.5t14 5.5h593q-6 126 -93 214q-92 93 -313 94h-161q-8 0 -14 6t-6 14v108q0 71 53 121q52 49 123 49h47q303 0 484 -167q173 -164 179 -439h58q19 0 19 -19v-263q0 -19 -19 -19h-950q-8 0 -14 5.5t-6 13.5z" />
    <glyph glyph-name="haM" unicode="&#x62d;" horiz-adv-x="1048" arabic-form="medial" 
d="M1094 282v-263q0 -8 -6 -13.5t-14 -5.5h-1115q-8 0 -14 5.5t-6 13.5v263q0 8 6 13.5t14 5.5h658q-6 126 -94 214q-92 92 -312 94h-161q-8 0 -13.5 6t-5.5 14v108q0 72 52 121t125 49h45q295 0 483 -167q173 -173 179 -439h159q8 0 14 -5.5t6 -13.5z" />
    <glyph glyph-name="khaF" unicode="&#x62e;" horiz-adv-x="1469" arabic-form="final" 
d="M681 301h278q-6 126 -93 214q-93 93 -312 94h-164q-8 0 -13.5 6t-5.5 14v108q0 72 52 121t125 49h47q295 0 483 -167q173 -173 179 -439h231q19 0 19 -19v-263q0 -19 -19 -19h-286l-521 2q-127 0 -190 -60q-62 -60 -62 -132q0 -74 62 -134q66 -61 190 -61h145
q19 0 19 -19v-261q0 -19 -19 -19h-145q-293 0 -443 154q-149 155 -149 340q0 183 149 338q149 153 443 153zM833 1099v-82q0 -8 -6 -14t-14 -6h-265q-8 0 -14 6t-6 14v212q0 8 6 14t14 6h137q73 0 111 -39q39 -40 37 -111z" />
    <glyph glyph-name="khaI" unicode="&#x62e;" horiz-adv-x="1028" arabic-form="initial" 
d="M-62 19v263q0 8 6 13.5t14 5.5h593q-6 126 -93 214q-92 93 -313 94h-161q-8 0 -14 6t-6 14v108q0 71 53 121q52 49 123 49h47q303 0 484 -167q173 -164 179 -439h58q19 0 19 -19v-263q0 -19 -19 -19h-950q-8 0 -14 5.5t-6 13.5zM424 1099v-82q0 -8 -5.5 -14t-13.5 -6
h-266q-8 0 -13.5 6t-5.5 14v212q0 8 5.5 14t13.5 6h137q72 0 111 -39q38 -43 37 -111z" />
    <glyph glyph-name="khaM" unicode="&#x62e;" horiz-adv-x="1048" arabic-form="medial" 
d="M489 1099v-82q0 -8 -5.5 -14t-13.5 -6h-265q-8 0 -14 6t-6 14v212q0 8 6 14t14 6h137q72 0 110 -39q39 -40 37 -111zM1094 282v-263q0 -8 -6 -13.5t-14 -5.5h-1115q-8 0 -14 5.5t-6 13.5v263q0 8 6 13.5t14 5.5h658q-6 126 -94 214q-92 92 -312 94h-161q-8 0 -13.5 6
t-5.5 14v108q0 72 52 121t125 49h45q295 0 483 -167q173 -173 179 -439h159q8 0 14 -5.5t6 -13.5z" />
    <glyph glyph-name="dalF" unicode="&#x62f;" horiz-adv-x="1175" arabic-form="final" 
d="M881 740q173 -173 179 -439h140q19 0 19 -19v-263q0 -19 -19 -19h-1093q-8 0 -14 5.5t-6 13.5v130q0 63 47 108q44 41 111 44h516q-5 126 -93 214q-93 93 -312 94h-166q-8 0 -13.5 6t-5.5 14v108q0 72 52 121t125 49h50q295 0 483 -167z" />
    <glyph glyph-name="thalF" unicode="&#x630;" horiz-adv-x="1175" arabic-form="final" 
d="M881 740q173 -173 179 -439h140q19 0 19 -19v-263q0 -19 -19 -19h-1093q-8 0 -14 5.5t-6 13.5v130q0 63 47 108q44 41 111 44h516q-5 126 -93 214q-93 93 -312 94h-166q-8 0 -13.5 6t-5.5 14v108q0 72 52 121t125 49h50q295 0 483 -167zM586 1113v-83q0 -8 -6 -13.5
t-14 -5.5h-265q-8 0 -14 5.5t-6 13.5v213q0 8 6 13.5t14 5.5h137q74 0 111 -39q38 -40 37 -110z" />
    <glyph glyph-name="raF" unicode="&#x631;" horiz-adv-x="790" arabic-form="final" 
d="M616 771l1 -425l-1 -45h206q19 0 19 -19v-263q0 -19 -19 -19h-271q-69 -164 -223 -257q-140 -83 -324 -83q-29 0 -42 1q-12 0 -19 7q-5 5 -5 14l13 260q0 18 20 18q1 0 2 -0.5t3 -0.5q137 -8 235 80q97 87 96 307v425q0 19 19 19h270q8 0 14 -5.5t6 -13.5z" />
    <glyph glyph-name="zaiF" unicode="&#x632;" horiz-adv-x="790" arabic-form="final" 
d="M618 975v-84q0 -8 -6 -13.5t-14 -5.5h-265q-19 0 -19 19v214q0 19 19 19h137q74 0 111 -40q39 -38 37 -109zM616 771l1 -425l-1 -45h206q19 0 19 -19v-263q0 -19 -19 -19h-271q-69 -164 -223 -257q-140 -83 -324 -83q-29 0 -42 1q-12 0 -19 7q-5 5 -5 14l13 260
q0 18 20 18q1 0 2 -0.5t3 -0.5q137 -8 235 80q97 87 96 307v425q0 19 19 19h270q8 0 14 -5.5t6 -13.5z" />
    <glyph glyph-name="seenF" unicode="&#x633;" horiz-adv-x="2527" arabic-form="final" 
d="M2310 601v-300h262q19 0 19 -19v-263q0 -19 -19 -19q-212 0 -650 -2q-98 0 -318.5 -1t-320.5 -1q-59 -163 -205 -265q-145 -101 -353 -104h-18q-275 5 -438 175q-160 167 -172 458l2 75v11q0 82 55 140q57 60 138 60h126q19 0 19 -19v-263q8 -162 78.5 -249.5
t200.5 -89.5q130 2 200.5 90t78.5 250v453q0 8 5.5 14t13.5 6h126q80 0 138 -61q56 -59 56 -140l1 -10v-231h187v496q0 19 19 19h125q81 0 138 -60q55 -58 56 -137l3 -11v-307h107v496q0 19 19 19h124q82 0 139 -60q56 -59 56 -140z" />
    <glyph glyph-name="seenI" unicode="&#x633;" horiz-adv-x="1631" arabic-form="initial" 
d="M-58 19v263q0 8 6 13.5t14 5.5h241v422q0 19 19 19h125q81 0 138 -60q56 -59 56 -140l2 -10v-231h187v496q0 19 19 19h124q81 0 138 -60t57 -140l2 -11v-304h108v496q0 19 19 19h124q81 0 138 -60t57 -140l2 -11v-440q0 -68 -49 -117q-48 -48 -117 -48h-1390
q-8 0 -14 5.5t-6 13.5z" />
    <glyph glyph-name="seenM" unicode="&#x633;" horiz-adv-x="1758" arabic-form="medial" 
d="M1837 282v-263q0 -19 -19 -19l-244 1q-58 0 -100 36q-43 -37 -105 -37h-1454q-19 0 -19 19v263q0 19 19 19h304v422q0 8 6 13.5t14 5.5h124q81 0 138 -60t57 -140l2 -10v-231h186v496q0 8 6 13.5t14 5.5h124q81 0 138 -60q56 -59 56 -140l2 -11v-304h108v496q0 19 19 19
h125q81 0 138 -60q56 -59 56 -140l2 -11v-304h284q19 0 19 -19z" />
    <glyph glyph-name="sheenF" unicode="&#x634;" horiz-adv-x="2527" arabic-form="final" 
d="M2006 1059v-82q0 -8 -5.5 -14t-13.5 -6h-265q-8 0 -14 6t-6 14v212q0 8 6 14t14 6h137q73 0 111 -39t36 -111zM2310 601v-300h262q19 0 19 -19v-263q0 -19 -19 -19q-212 0 -650 -2q-98 0 -318.5 -1t-320.5 -1q-59 -163 -205 -265q-145 -101 -353 -104h-18
q-275 5 -438 175q-160 167 -172 458l2 75v11q0 82 55 140q57 60 138 60h126q19 0 19 -19v-263q8 -162 78.5 -249.5t200.5 -89.5q130 2 200.5 90t78.5 250v453q0 8 5.5 14t13.5 6h126q80 0 138 -61q56 -59 56 -140l1 -10v-231h187v496q0 19 19 19h125q81 0 138 -60
q55 -58 56 -137l3 -11v-307h107v496q0 19 19 19h124q82 0 139 -60q56 -59 56 -140zM1767 1380v-83q0 -19 -19 -19h-265q-8 0 -14 5.5t-6 13.5v213q0 8 6 14t14 6h137q70 0 111 -39q37 -39 36 -111zM1572 1059v-82q0 -8 -5.5 -14t-13.5 -6h-265q-8 0 -13.5 6t-5.5 14v212
q0 8 5.5 14t13.5 6h136q73 0 112 -39q38 -39 36 -111z" />
    <glyph glyph-name="sheenI" unicode="&#x634;" horiz-adv-x="1631" arabic-form="initial" 
d="M-58 19v263q0 8 6 13.5t14 5.5h241v422q0 19 19 19h125q81 0 138 -60q56 -59 56 -140l2 -10v-231h187v496q0 19 19 19h124q81 0 138 -60t57 -140l2 -11v-304h108v496q0 19 19 19h124q81 0 138 -60t57 -140l2 -11v-440q0 -68 -49 -117q-48 -48 -117 -48h-1390
q-8 0 -14 5.5t-6 13.5zM977 1380v-83q0 -19 -19 -19h-265q-8 0 -14 5.5t-6 13.5v213q0 8 6 14t14 6h137q71 0 111 -40q37 -40 36 -110zM783 1059v-82q0 -8 -5.5 -14t-13.5 -6h-266q-8 0 -13.5 6t-5.5 14v212q0 8 5.5 14t13.5 6h137q72 0 111 -39q38 -43 37 -111zM1216 1059
v-82q0 -8 -5.5 -14t-13.5 -6h-265q-8 0 -14 6t-6 14v212q0 8 6 14t14 6h137q73 0 110 -39q39 -40 37 -111z" />
    <glyph glyph-name="sheenM" unicode="&#x634;" horiz-adv-x="1758" arabic-form="medial" 
d="M1233 1059v-82q0 -8 -6 -14t-14 -6h-265q-8 0 -13.5 6t-5.5 14v212q0 8 5.5 14t13.5 6h137q73 0 111 -39q38 -43 37 -111zM1837 282v-263q0 -19 -19 -19l-244 1q-58 0 -100 36q-43 -37 -105 -37h-1454q-19 0 -19 19v263q0 19 19 19h304v422q0 8 6 13.5t14 5.5h124
q81 0 138 -60t57 -140l2 -10v-231h186v496q0 8 6 13.5t14 5.5h124q81 0 138 -60q56 -59 56 -140l2 -11v-304h108v496q0 19 19 19h125q81 0 138 -60q56 -59 56 -140l2 -11v-304h284q19 0 19 -19zM994 1380v-83q0 -8 -6 -13.5t-14 -5.5h-265q-19 0 -19 19v213q0 8 5.5 14
t13.5 6h137q72 0 111 -39q38 -45 37 -111zM799 1059v-82q0 -8 -6 -14t-14 -6h-264q-8 0 -14 6t-6 14v212q0 8 6 14t14 6h137q71 0 111 -40q38 -41 36 -110z" />
    <glyph glyph-name="sadF" unicode="&#x635;" horiz-adv-x="2500" arabic-form="final" 
d="M2516 282v-263q0 -19 -19 -19h-1216q-63 -165 -205 -264q-145 -101 -353 -104q-1 0 -3 -0.5t-3 -0.5h-6q-1 0 -3 0.5t-3 0.5q-275 4 -438 175q-161 170 -171 457l1 76v10q0 82 56 141q57 60 138 60h124q8 0 14 -5.5t6 -13.5v-264q8 -162 78.5 -249t200.5 -89
q128 2 199 90t80 250q0 58 0.5 228t0.5 227q8 73 61 127q56 55 132 55h125q8 0 14 -6t6 -14v-61q124 71 276 80q32 2 51 2q135 0 266 -56q151 -67 251 -205q100 -139 103 -346h218q19 0 19 -19zM1334 301h-19l19 -19v6v13zM1981 301v-13v-6l19 19h-19zM1434 519
q-95 -75 -100 -218h647q-5 143 -100 218q-103 79 -224 79q-120 0 -223 -79z" />
    <glyph glyph-name="sadI" unicode="&#x635;" horiz-adv-x="1566" arabic-form="initial" 
d="M-58 19v263q0 19 19 19h207v405q0 81 56 140q58 61 138 61h124q8 0 14 -6t6 -14v-61q124 71 277 80q32 2 51 2q135 0 266 -56q151 -67 251 -205q103 -142 103 -359v-269q0 -19 -19 -19h-1474q-19 0 -19 19zM509 288v13h-19l19 -19v6zM1156 301v-13v-6l19 19h-19zM608 519
q-96 -75 -99 -218h647q-5 143 -100 218q-103 79 -225 79q-120 0 -223 -79z" />
    <glyph glyph-name="sadM" unicode="&#x635;" horiz-adv-x="1672" arabic-form="medial" 
d="M546 288v13h-18l19 -19q0 2 -0.5 3t-0.5 3zM1193 301v-13v-6l20 19h-20zM645 519q-94 -75 -99 -218h647q-3 143 -100 218q-103 79 -224 79t-224 -79zM-56 19v263q0 19 19 19h243v405q0 81 56 140q55 61 139 61h124q8 0 13.5 -6t5.5 -14v-61q125 71 276 80q34 2 52 2
q135 0 266 -56q151 -67 251 -205q100 -139 103 -346h193q8 0 14 -5.5t6 -13.5v-263q0 -8 -6 -13.5t-14 -5.5h-1722q-19 0 -19 19z" />
    <glyph glyph-name="dadF" unicode="&#x636;" horiz-adv-x="2500" arabic-form="final" 
d="M2516 282v-263q0 -19 -19 -19h-1216q-63 -165 -205 -264q-145 -101 -353 -104q-1 0 -3 -0.5t-3 -0.5h-6q-1 0 -3 0.5t-3 0.5q-275 4 -438 175q-161 170 -171 457l1 76v10q0 82 56 141q57 60 138 60h124q8 0 14 -5.5t6 -13.5v-264q8 -162 78.5 -249t200.5 -89
q128 2 199 90t80 250q0 58 0.5 228t0.5 227q8 73 61 127q56 55 132 55h125q8 0 14 -6t6 -14v-61q124 71 276 80q32 2 51 2q135 0 266 -56q151 -67 251 -205q100 -139 103 -346h218q19 0 19 -19zM1334 301h-19l19 -19v6v13zM1981 301v-13v-6l19 19h-19zM1434 519
q-95 -75 -100 -218h647q-5 143 -100 218q-103 79 -224 79q-120 0 -223 -79zM1810 1106v-84q0 -8 -6 -13.5t-14 -5.5h-265q-8 0 -14 5.5t-6 13.5v214q0 8 6 14t14 6h137q71 0 111 -40q38 -42 37 -110z" />
    <glyph glyph-name="dadI" unicode="&#x636;" horiz-adv-x="1566" arabic-form="initial" 
d="M-58 19v263q0 19 19 19h207v405q0 81 56 140q58 61 138 61h124q8 0 14 -6t6 -14v-61q124 71 277 80q32 2 51 2q135 0 266 -56q151 -67 251 -205q103 -142 103 -359v-269q0 -19 -19 -19h-1474q-19 0 -19 19zM985 1106v-84q0 -8 -6 -13.5t-14 -5.5h-265q-19 0 -19 19v214
q0 8 5.5 14t13.5 6h137q71 0 111 -40q38 -42 37 -110zM509 288v13h-19l19 -19v6zM1156 301v-13v-6l19 19h-19zM608 519q-96 -75 -99 -218h647q-5 143 -100 218q-103 79 -225 79q-120 0 -223 -79z" />
    <glyph glyph-name="dadM" unicode="&#x636;" horiz-adv-x="1672" arabic-form="medial" 
d="M546 288v13h-18l19 -19q0 2 -0.5 3t-0.5 3zM1193 301v-13v-6l20 19h-20zM645 519q-94 -75 -99 -218h647q-3 143 -100 218q-103 79 -224 79t-224 -79zM-56 19v263q0 19 19 19h243v405q0 81 56 140q55 61 139 61h124q8 0 13.5 -6t5.5 -14v-61q125 71 276 80q34 2 52 2
q135 0 266 -56q151 -67 251 -205q100 -139 103 -346h193q8 0 14 -5.5t6 -13.5v-263q0 -8 -6 -13.5t-14 -5.5h-1722q-19 0 -19 19zM1021 1106v-84q0 -19 -19 -19h-264q-8 0 -14 5.5t-6 13.5v214q0 8 6 14t14 6h137q70 0 111 -40q36 -38 35 -110z" />
    <glyph glyph-name="ttaF" unicode="&#x637;" horiz-adv-x="1863" arabic-form="final" 
d="M1550 646q99 -138 104 -345h219q8 0 14 -5.5t6 -13.5v-263q0 -8 -6 -13.5t-14 -5.5h-1762q-19 0 -19 19v263q0 19 19 19h257q0 80 0.5 238.5t0.5 238.5q1 168 1 502q0 69 47 118q49 52 117 52h142q8 0 13.5 -6t5.5 -14v-610q123 70 279 81h-1q13 2 60 2q133 0 263 -54
q148 -61 254 -203zM709 282v6v13h-19zM1355 301v-13v-6l20 19h-20zM808 519q-94 -75 -99 -218h646q-5 143 -99 218q-103 79 -223 79q-121 0 -225 -79z" />
    <glyph glyph-name="ttaI" unicode="&#x637;" horiz-adv-x="1617" arabic-form="initial" 
d="M384 1450h142q8 0 14 -6t6 -14v-610q123 70 279 81h-1q13 2 59 2q133 0 263 -54q148 -61 254 -203q104 -143 104 -358v-269q0 -8 -6 -13.5t-14 -5.5h-1522q-8 0 -14 5.5t-6 13.5v263q0 8 6 13.5t14 5.5h255q0 80 0.5 238.5t0.5 238.5q1 168 1 502q0 68 47 118
q49 52 118 52zM558 282v6v13h-19zM1205 301v-13v-6l19 19h-19zM658 519q-95 -75 -100 -218h647q-5 143 -99 218q-104 79 -224 79t-224 -79z" />
    <glyph glyph-name="ttaM" unicode="&#x637;" horiz-adv-x="1713" arabic-form="medial" 
d="M1402 646q99 -138 104 -345h219q8 0 14 -5.5t6 -13.5v-263q0 -8 -6 -13.5t-14 -5.5h-1761q-8 0 -14 5.5t-6 13.5v263q0 8 6 13.5t14 5.5h256q0 80 0.5 238.5t0.5 238.5q1 168 1 502q0 68 47 118q49 52 117 52h142q8 0 14 -6t6 -14v-610q123 70 278 81h-1q13 2 60 2
q133 0 263 -54q148 -61 254 -203zM561 282v6v13h-19zM1207 301v-13v-6l20 19h-20zM660 519q-94 -75 -99 -218h646q-5 143 -99 218q-103 79 -223 79q-121 0 -225 -79z" />
    <glyph glyph-name="zaF" unicode="&#x638;" horiz-adv-x="1863" arabic-form="final" 
d="M1184 1066v-84q0 -19 -19 -19h-266q-19 0 -19 19v214q0 8 5.5 14t13.5 6h137q74 0 111 -40q38 -37 37 -110zM1550 646q99 -138 104 -345h219q8 0 14 -5.5t6 -13.5v-263q0 -8 -6 -13.5t-14 -5.5h-1762q-19 0 -19 19v263q0 19 19 19h257q0 80 0.5 238.5t0.5 238.5
q1 168 1 502q0 69 47 118q49 52 117 52h142q8 0 13.5 -6t5.5 -14v-610q123 70 279 81h-1q13 2 60 2q133 0 263 -54q148 -61 254 -203zM709 282v6v13h-19zM1355 301v-13v-6l20 19h-20zM808 519q-94 -75 -99 -218h646q-5 143 -99 218q-103 79 -223 79q-121 0 -225 -79z" />
    <glyph glyph-name="zaI" unicode="&#x638;" horiz-adv-x="1617" arabic-form="initial" 
d="M1034 1066v-84q0 -8 -6 -13.5t-14 -5.5h-265q-8 0 -14 5.5t-6 13.5v214q0 8 6 14t14 6h138q70 0 110 -40q38 -37 37 -110zM384 1450h142q8 0 14 -6t6 -14v-610q123 70 279 81h-1q13 2 59 2q133 0 263 -54q148 -61 254 -203q104 -143 104 -358v-269q0 -8 -6 -13.5
t-14 -5.5h-1522q-8 0 -14 5.5t-6 13.5v263q0 8 6 13.5t14 5.5h255q0 80 0.5 238.5t0.5 238.5q1 168 1 502q0 68 47 118q49 52 118 52zM558 282v6v13h-19zM1205 301v-13v-6l19 19h-19zM658 519q-95 -75 -100 -218h647q-5 143 -99 218q-104 79 -224 79t-224 -79z" />
    <glyph glyph-name="zaM" unicode="&#x638;" horiz-adv-x="1713" arabic-form="medial" 
d="M1036 1066v-84q0 -19 -19 -19h-265q-8 0 -14 5.5t-6 13.5v214q0 8 6 14t14 6h137q73 0 110 -40q38 -37 37 -110zM1402 646q99 -138 104 -345h219q8 0 14 -5.5t6 -13.5v-263q0 -8 -6 -13.5t-14 -5.5h-1761q-8 0 -14 5.5t-6 13.5v263q0 8 6 13.5t14 5.5h256q0 80 0.5 238.5
t0.5 238.5q1 168 1 502q0 68 47 118q49 52 117 52h142q8 0 14 -6t6 -14v-610q123 70 278 81h-1q13 2 60 2q133 0 263 -54q148 -61 254 -203zM561 282v6v13h-19zM1207 301v-13v-6l20 19h-20zM660 519q-94 -75 -99 -218h646q-5 143 -99 218q-103 79 -223 79q-121 0 -225 -79z
" />
    <glyph glyph-name="ainF" unicode="&#x639;" horiz-adv-x="1429" arabic-form="final" 
d="M1449 0h-783q-110 -13 -165 -71q-51 -62 -48 -131v1q5 -68 68 -126q61 -58 184 -58h6l109 1h242q19 0 19 -19v-263q0 -19 -19 -19l-242 1h-115q-241 0 -388 110q-146 114 -186 258v-1q-18 60 -18 125q0 91 34 177q58 147 214 235v66q0 287 179 454q181 167 483 167h50
q71 0 123 -49h-1q54 -48 54 -121v-108q0 -8 -5.5 -14t-13.5 -6l-165 -1q-219 0 -312 -93q-88 -88 -93 -214h789q19 0 19 -19v-263q0 -19 -19 -19z" />
    <glyph glyph-name="ainI" unicode="&#x639;" horiz-adv-x="1215" arabic-form="initial" 
d="M1109 282v-263q0 -19 -19 -19h-1131q-8 0 -14 5.5t-6 13.5v263q0 8 6 13.5t14 5.5h262q4 275 179 439q181 167 484 167h51q70 0 122 -49h-1q54 -48 54 -121v-108q0 -8 -5.5 -14t-13.5 -6l-165 -1q-220 0 -313 -93q-87 -87 -92 -214h569q19 0 19 -19z" />
    <glyph glyph-name="ainM" unicode="&#x639;" horiz-adv-x="1341" arabic-form="medial" 
d="M1361 0h-1400q-8 0 -14 5.5t-6 13.5v263q0 8 6 13.5t14 5.5h263q4 276 178 439q181 167 484 167h51q71 0 123 -49h-1q54 -48 54 -121v-108q0 -8 -5.5 -14t-13.5 -6l-166 -1q-220 0 -313 -93q-88 -89 -92 -214h838q8 0 14 -5.5t6 -13.5v-263q0 -8 -6 -13.5t-14 -5.5z" />
    <glyph glyph-name="ghainF" unicode="&#x63a;" horiz-adv-x="1429" arabic-form="final" 
d="M1449 0h-783q-110 -13 -165 -71q-51 -62 -48 -131v1q5 -68 68 -126q61 -58 184 -58h6l109 1h242q19 0 19 -19v-263q0 -19 -19 -19l-242 1h-115q-241 0 -388 110q-146 114 -186 258v-1q-18 60 -18 125q0 91 34 177q58 147 214 235v66q0 287 179 454q181 167 483 167h50
q71 0 123 -49h-1q54 -48 54 -121v-108q0 -8 -5.5 -14t-13.5 -6l-165 -1q-219 0 -312 -93q-88 -88 -93 -214h789q19 0 19 -19v-263q0 -19 -19 -19zM1081 1113v-83q0 -19 -19 -19h-265q-19 0 -19 19v213q0 19 19 19h137q74 0 110 -39q39 -39 37 -110z" />
    <glyph glyph-name="ghainI" unicode="&#x63a;" horiz-adv-x="1215" arabic-form="initial" 
d="M1109 282v-263q0 -19 -19 -19h-1131q-8 0 -14 5.5t-6 13.5v263q0 8 6 13.5t14 5.5h262q4 275 179 439q181 167 484 167h51q70 0 122 -49h-1q54 -48 54 -121v-108q0 -8 -5.5 -14t-13.5 -6l-165 -1q-220 0 -313 -93q-87 -87 -92 -214h569q19 0 19 -19zM913 1113v-83
q0 -19 -19 -19h-266q-19 0 -19 19v213q0 19 19 19h137q75 0 111 -39q39 -39 37 -110z" />
    <glyph glyph-name="ghainM" unicode="&#x63a;" horiz-adv-x="1341" arabic-form="medial" 
d="M1361 0h-1400q-8 0 -14 5.5t-6 13.5v263q0 8 6 13.5t14 5.5h263q4 276 178 439q181 167 484 167h51q71 0 123 -49h-1q54 -48 54 -121v-108q0 -8 -5.5 -14t-13.5 -6l-166 -1q-220 0 -313 -93q-88 -89 -92 -214h838q8 0 14 -5.5t6 -13.5v-263q0 -8 -6 -13.5t-14 -5.5z
M954 1113v-83q0 -19 -19 -19h-266q-19 0 -19 19v213q0 19 19 19h137q75 0 111 -39q38 -40 37 -110z" />
    <glyph glyph-name="faF" unicode="&#x641;" horiz-adv-x="2199" arabic-form="final" 
d="M1707 1113v-83q0 -19 -19 -19h-264q-8 0 -14 5.5t-6 13.5v213q0 8 6 13.5t14 5.5h137q71 0 110 -40q37 -39 36 -109zM1988 507v-206h214q19 0 19 -19v-263q0 -19 -19 -19h-1487l-30 1q-273 9 -432 187q-158 177 -159 475v42q0 8 6 13.5t14 5.5h299q19 0 19 -19v-42
q0 -339 255 -362h484q-16 65 -16 156q0 208 97 332q53 65 136 93h-1q77 29 169 29q158 0 292 -82q140 -86 140 -322zM1681 298h-5v-1h2q2 0 3 1zM1467 301h-9l13 -6l-2 3q-2 2 -2 3zM1429 448q0 -94 38 -147l209 -3q39 60 39 150q0 108 -37 163l1 -1q-39 53 -105 53
q-70 0 -107 -52q-38 -56 -38 -163z" />
    <glyph glyph-name="faI" unicode="&#x641;" horiz-adv-x="1108" arabic-form="initial" 
d="M725 1113v-83q0 -8 -6 -13.5t-14 -5.5h-264q-19 0 -19 19v213q0 19 19 19h137q72 0 111 -40q38 -41 36 -109zM-42 301h230q-15 69 -15 156q0 209 96 332q54 66 137 93h-1q80 29 168 29q157 0 293 -82q140 -86 140 -322v-488q0 -8 -6 -13.5t-14 -5.5h-1028q-19 0 -19 19
v263q0 19 19 19zM696 301l-2 -4l-2 -2l13 6h-9zM485 301h-10l14 -6l-2 3q-2 2 -2 3zM446 448q0 -93 39 -147h211q37 60 37 147q0 105 -37 163l1 -1q-41 53 -105 53q-73 0 -107 -52q-39 -58 -39 -163z" />
    <glyph glyph-name="faM" unicode="&#x641;" horiz-adv-x="1187" arabic-form="medial" 
d="M715 1113v-83q0 -8 -6 -13.5t-14 -5.5h-265q-19 0 -19 19v213q0 19 19 19h137q75 0 111 -39q38 -40 37 -110zM995 507v-206h215q8 0 14 -5.5t6 -13.5v-263q0 -8 -6 -13.5t-14 -5.5h-1250q-8 0 -14 5.5t-6 13.5l3 263q0 8 6 13.5t14 5.5h215q-16 70 -16 156q0 207 96 332
q54 66 137 93h-1q80 29 168 29q157 0 293 -82q140 -86 140 -322zM688 298h-5v-1h2q2 0 3 1zM474 301h-10l14 -6l-2 3q-2 2 -2 3zM435 448q0 -93 39 -147l209 -3q39 63 39 150q0 105 -37 163l1 -1q-38 53 -104 53q-72 0 -108 -53v1q-39 -58 -39 -163z" />
    <glyph glyph-name="qafF" unicode="&#x642;" horiz-adv-x="1512" arabic-form="final" 
d="M1339 507v-206h191q19 0 19 -19v-263q0 -19 -19 -19h-241q-57 -189 -202 -296q-148 -113 -372 -116q-1 0 -4 -0.5t-4 -0.5h-1h-3l-1 1h-3q-275 5 -438 175q-160 170 -172 458l2 75v11q0 81 56 140q57 60 138 60h124q8 0 14 -5.5t6 -13.5v-263q9 -161 80 -249t199 -90
q85 2 188 60q75 42 100 98q-76 -44 -150 -44q-88 0 -171 63q-168 136 -168 394q0 208 97 332q52 66 137 93h-1q78 29 168 29q157 0 291 -82q140 -86 140 -322zM1305 1085v-82q0 -8 -5.5 -14t-13.5 -6h-264q-8 0 -13.5 6t-5.5 14v213q0 19 19 19h135q72 0 112 -40
q37 -42 36 -110zM943 1085v-82q0 -8 -6 -14t-14 -6h-265q-8 0 -13.5 6t-5.5 14v213q0 19 19 19h137q72 0 111 -39t37 -111zM1052 446q-5 48 -7.5 69.5t-10 50t-19.5 45.5q-37 52 -103 52q-71 0 -107 -53v1q-43 -63 -39 -162q8 -107 53 -147q47 -41 101 -36q55 5 97 53
q43 46 35 127z" />
    <glyph glyph-name="qafI" unicode="&#x642;" horiz-adv-x="1108" arabic-form="initial" 
d="M890 1113v-83q0 -19 -19 -19h-265q-19 0 -19 19v213q0 19 19 19h137q72 0 111 -40q38 -41 36 -109zM-42 301h230q-15 69 -15 156q0 209 96 332q54 66 137 93h-1q80 29 168 29q157 0 293 -82q140 -86 140 -322v-488q0 -8 -6 -13.5t-14 -5.5h-1028q-19 0 -19 19v263
q0 19 19 19zM696 301l-2 -4l-2 -2l13 6h-9zM485 301h-10l14 -6l-2 3q-2 2 -2 3zM446 448q0 -93 39 -147h211q37 60 37 147q0 105 -37 163l1 -1q-41 53 -105 53q-73 0 -107 -52q-39 -58 -39 -163zM530 1113v-83q0 -8 -6 -13.5t-14 -5.5h-264q-8 0 -14 5.5t-6 13.5v213
q0 8 6 13.5t14 5.5h137q71 0 111 -40q38 -41 36 -109z" />
    <glyph glyph-name="qafM" unicode="&#x642;" horiz-adv-x="1187" arabic-form="medial" 
d="M995 507v-206h215q8 0 14 -5.5t6 -13.5v-263q0 -8 -6 -13.5t-14 -5.5h-1250q-8 0 -14 5.5t-6 13.5l3 263q0 8 6 13.5t14 5.5h215q-16 70 -16 156q0 207 96 332q54 66 137 93h-1q80 29 168 29q157 0 293 -82q140 -86 140 -322zM688 298h-5v-1h2q2 0 3 1zM474 301h-10
l14 -6l-2 3q-2 2 -2 3zM435 448q0 -93 39 -147l209 -3q39 63 39 150q0 105 -37 163l1 -1q-38 53 -104 53q-72 0 -108 -53v1q-39 -58 -39 -163zM892 1113v-83q0 -8 -6 -13.5t-14 -5.5h-264q-19 0 -19 19v213q0 19 19 19h137q72 0 111 -40q38 -41 36 -109zM531 1113v-83
q0 -19 -19 -19h-265q-19 0 -19 19v213q0 19 19 19h137q72 0 111 -40q37 -39 36 -109z" />
    <glyph glyph-name="kafF" unicode="&#x643;" horiz-adv-x="1902" arabic-form="final" 
d="M1506 1450h143q8 0 13.5 -6t5.5 -14v-1129h243q8 0 14 -5.5t6 -13.5v-263q0 -8 -6 -13.5t-14 -5.5h-1199l-30 1q-272 9 -431 187q-159 177 -159 475v42q0 8 6 13.5t14 5.5h298q19 0 19 -19v-42q0 -339 255 -362h658v979q0 69 47 118q49 52 117 52zM1025 845v-21h89
q19 0 19 -19v-100q0 -8 -5.5 -14t-13.5 -6h-323q-8 0 -14 6t-6 14v100q0 8 6 13.5t14 5.5h34v63q0 94 94 94h76q57 -7 94 -44q34 -34 41 -70q2 -9 -4 -15.5t-15 -6.5h-86z" />
    <glyph glyph-name="kafI" unicode="&#x643;" horiz-adv-x="1071" arabic-form="initial" 
d="M108 829l3 3q15 22 42 43l537 534q13 14 27 0l197 -198q14 -14 0 -27l-324 -323q169 -61 271 -202q109 -151 109 -373v-4l-1 -263q0 -8 -6 -13.5t-14 -5.5h-990q-8 0 -14 5.5t-6 13.5v263q0 8 6 13.5t14 5.5h711q-6 126 -93 214q-93 93 -312 94h-165q-8 0 -14 6t-6 14
v108q0 52 28 92z" />
    <glyph glyph-name="kafM" unicode="&#x643;" horiz-adv-x="1141" arabic-form="medial" 
d="M109 829h1q19 28 45 46l536 534q14 14 27 0l197 -198q13 -14 0 -27l-324 -323q167 -60 270 -202q105 -149 109 -358h195q8 0 14 -5.5t6 -13.5v-263q0 -8 -6 -13.5t-14 -5.5h-1206q-19 0 -19 19v263q0 19 19 19h713q-6 126 -94 214q-92 92 -311 94h-167q-8 0 -13.5 6
t-5.5 14v108q0 51 28 92z" />
    <glyph glyph-name="lamF" unicode="&#x644;" horiz-adv-x="1510" arabic-form="final" 
d="M1327 1430v-903q0 -147 -6 -226h207q19 0 19 -19v-263q0 -19 -19 -19h-254q-18 -49 -24 -61q-154 -305 -534 -312h-17q-275 5 -438 175q-160 169 -172 458q0 95 29 183q31 103 167 103h125q8 0 14 -5.5t6 -13.5v-263q7 -161 77.5 -249t199.5 -90q131 2 208 86
q80 82 86 247q0 43 -0.5 130t-0.5 131l1 192v569q0 68 47 118q49 52 116 52h143q8 0 14 -6t6 -14z" />
    <glyph glyph-name="lamI" unicode="&#x644;" horiz-adv-x="547" arabic-form="initial" 
d="M457 1430v-1188q0 -97 -71 -171q-71 -71 -171 -71h-261q-19 0 -19 19v263q0 19 19 19h177v979q0 67 46 117q50 53 117 53h143q8 0 14 -6t6 -14z" />
    <glyph glyph-name="lamM" unicode="&#x644;" horiz-adv-x="650" arabic-form="medial" 
d="M458 1430v-1129h227q19 0 19 -19v-263q0 -19 -19 -19h-270q-8 0 -14 5.5t-6 13.5v58q-65 -77 -179 -77h-260q-19 0 -19 19v263q0 19 19 19h176v979q0 69 47 118q49 52 117 52h143q8 0 13.5 -6t5.5 -14z" />
    <glyph glyph-name="meemF" unicode="&#x645;" horiz-adv-x="1443" arabic-form="final" 
d="M584 741q104 89 241 89q60 0 150 -11t170 -61h-1q75 -44 131 -146q56 -98 56 -277v-34h131q8 0 14 -5.5t6 -13.5v-263q0 -8 -6 -13.5t-14 -5.5h-323q-22 0 -30 1q-4 0 -11.5 0.5t-12.5 0.5q-101 -1 -304 68q-194 68 -257 165q-125 -92 -128 -331q0 -43 1 -128.5t1 -129.5
q0 -19 -19 -19h-271q-19 0 -19 19v258l1 56q12 230 119 388q106 151 278 210q22 119 97 183zM1034 273v60q0 95 -45 151q-46 52 -123 52q-44 0 -67 -24l1 1q-23 -29 -23 -76q0 -30 18 -72q27 -27 71 -38h-1l19 -5q39 -10 53 -14q72 -24 97 -35z" />
    <glyph glyph-name="meemI" unicode="&#x645;" horiz-adv-x="999" arabic-form="initial" 
d="M713 758h-1q74 -45 132 -146q55 -97 55 -277v-316q0 -19 -19 -19h-340l-47 20l-120 53l1 -1q-12 4 -29.5 11t-28.5 11q-148 -94 -353 -94h-6q-19 0 -19 19l1 261q0 19 19 19l2 -1h3q47 0 98 17q-14 61 -14 136q0 197 104 290q106 89 241 89q57 0 151 -11q91 -10 170 -61z
M602 273v60q0 95 -45 151q-46 52 -123 52q-42 0 -67 -22q-24 -32 -24 -77q0 -35 21 -73l-2 4q25 -28 71 -41l17 -5q37 -9 54 -14q66 -21 98 -35z" />
    <glyph glyph-name="meemM" unicode="&#x645;" horiz-adv-x="1003" arabic-form="medial" 
d="M714 758h-1q72 -42 131 -146q55 -97 55 -277v-34h131q8 0 14 -5.5t6 -13.5v-263q0 -8 -6 -13.5t-14 -5.5q-204 0 -333 -3q-145 2 -324 76l1 -1q-12 4 -29.5 11t-28.5 11q-148 -94 -352 -94h-6q-19 0 -19 19l1 261q0 19 19 19l1 -1h4q50 0 98 17q-15 67 -15 136
q0 197 104 290q106 89 241 89q57 0 151 -11q86 -10 171 -61zM602 273v60q0 95 -45 151q-46 52 -123 52q-46 0 -66 -23q-24 -27 -24 -76q0 -38 19 -72l-1 3q25 -28 71 -41l17 -5q47 -12 55 -14q67 -22 97 -35z" />
    <glyph glyph-name="noonF" unicode="&#x646;" horiz-adv-x="1535" arabic-form="final" 
d="M1325 488l2 -93v-94h225q8 0 14 -5.5t6 -13.5v-263q0 -8 -6 -13.5t-14 -5.5h-263q-59 -189 -202 -296q-148 -113 -371 -116h-2q-2 -1 -3 -1h-1q-2 0 -6 0.5t-6 0.5q-275 4 -436 175q-161 170 -172 458l2 75v11q0 82 55 140q57 60 138 60h124q8 0 14 -5.5t6 -13.5v-263
q9 -161 80 -249t199 -90q279 4 279 362v431q0 8 5.5 14t13.5 6h125q80 0 138 -61q56 -59 56 -139v-11zM852 761v-83q0 -19 -19 -19h-264q-8 0 -14 5.5t-6 13.5v213q0 8 6 14t14 6h136q72 0 111 -39q38 -40 36 -111z" />
    <glyph glyph-name="noonI" unicode="&#x646;" horiz-adv-x="747" arabic-form="initial" 
d="M-35 19v263q0 19 19 19l82 -1q248 29 248 363v42q0 8 6 13.5t14 5.5h299q8 0 14 -5.5t6 -13.5v-42q-2 -296 -158 -473q-155 -176 -427 -190h-84q-19 0 -19 19zM652 914v-83q0 -8 -6 -14t-14 -6h-264q-8 0 -14 6t-6 14v214q0 8 6 13.5t14 5.5h136q71 0 112 -40
q38 -39 36 -110z" />
    <glyph glyph-name="noonM" unicode="&#x646;" horiz-adv-x="841" arabic-form="medial" 
d="M246 663v42q0 19 19 19h299q19 0 19 -19v-42q0 -365 284 -365h1q2 1 4 1q19 0 19 -19v-261q0 -19 -19 -19h-6q-285 0 -451 178q-169 -178 -452 -178h-6q-19 0 -19 19l1 261q0 19 19 19l2 -1h3q283 0 283 365zM562 914v-83q0 -8 -6 -14t-14 -6h-264q-8 0 -13.5 6t-5.5 14
v214q0 19 19 19h137q71 0 111 -40q38 -39 36 -110z" />
    <glyph glyph-name="haaF" unicode="&#x647;" horiz-adv-x="1129" arabic-form="final" 
d="M979 301h176q19 0 19 -19v-263q0 -19 -19 -19h-1049q-19 0 -19 19v134q0 21 0.5 65.5t0.5 67.5q0 225 94 349q96 128 206 185h-1q112 61 205 75q74 10 74 -5q0 8 5.5 14t13.5 6h273q8 0 14 -6t6 -14zM387 301h-19l19 -19v4v15zM457 493q-66 -84 -70 -192h279v298
q-144 -26 -209 -106z" />
    <glyph glyph-name="haaI" unicode="&#x647;" horiz-adv-x="1449" arabic-form="initial" 
d="M935 301h26q78 70 80 194q-2 130 -89 200.5t-250 78.5h-263q-8 0 -14 5.5t-6 13.5v125q0 80 60 138q59 56 141 56l10 2l75 -2q291 -9 460 -172v1q171 -163 174 -438v-17q-1 -172 -57 -265q-52 -84 -146 -213q-6 -8 -15 -8h-1160q-8 0 -14 5.5t-6 13.5v263q0 8 6 13.5
t14 5.5h222q-5 30 -5 75q0 70 24 142q23 74 73 121q83 80 208 97q33 4 75 4q86 0 153 -22q117 -40 176 -141q52 -85 52 -204q0 -41 -4 -72zM479 301h159q9 25 11 69q0 54 -19 82v-1q-22 27 -45 34h2q-25 6 -51 1q-23 -8 -36 -17q-36 -33 -32 -103q6 -52 11 -65z" />
    <glyph glyph-name="haaM" unicode="&#x647;" horiz-adv-x="1475" arabic-form="medial" 
d="M936 301h26q78 71 80 194q-2 130 -89.5 200.5t-250.5 78.5h-262q-8 0 -14 5.5t-6 13.5v125q0 81 60 138q59 56 141 56l10 2l74 -2q292 -9 461 -172v1q171 -163 175 -438v-17q-2 -107 -25 -185h176q8 0 14 -5.5t6 -13.5v-263q0 -8 -6 -13.5t-14 -5.5h-1530q-8 0 -14 5.5
t-6 13.5v263q0 8 6 13.5t14 5.5h222q-5 30 -5 75q0 70 24 142q22 72 74 121q81 81 208 97q32 4 74 4q86 0 153 -22q110 -39 175 -141q53 -93 53 -204q0 -41 -4 -72zM479 301h160q9 26 11 68q0 54 -20 83v-1q-24 27 -42 34h1q-28 6 -52 1q-25 -8 -38 -18l2 1
q-36 -33 -32 -103q1 -37 10 -65z" />
    <glyph glyph-name="wawF" unicode="&#x648;" horiz-adv-x="1134" arabic-form="final" 
d="M984 327q0 -5 -0.5 -13.5t-0.5 -12.5h177q19 0 19 -19v-263q0 -19 -19 -19h-241q-72 -164 -224 -257q-140 -83 -323 -83q-29 0 -42 1q-12 0 -19 7q-6 6 -6 14l15 260q1 7 6.5 12.5t12.5 5.5h1q2 -1 4 -1q71 -3 134 21t106 67l-43 7q-44 5 -63 11h1q-25 6 -45 6
q-158 30 -247 108q-100 82 -100 270q0 198 110 291q110 87 252 87q76 0 160 -10q93 -12 176 -61q77 -43 138 -145q61 -111 61 -284zM696 272v69q0 105 -55 160q-58 58 -154 58q-59 0 -85 -26h1q-30 -31 -30 -81q0 -39 21 -74q28 -28 91 -47h-1l21 -5l66 -14q95 -27 125 -40z
" />
    <glyph glyph-name="alefmaqF" unicode="&#x649;" horiz-adv-x="1765" arabic-form="final" 
d="M815 301h962q8 0 14 -5.5t6 -13.5v-263q0 -8 -6 -13.5t-14 -5.5h-405q-49 -184 -196 -293q-149 -112 -379 -132h-43q-2 0 -4 1h-1h-4q-1 0 -3 -0.5t-3 -0.5h-3l-43 2q-281 18 -440 183q-162 165 -162 435v173q0 8 6 14t14 6h109q73 0 122 -55v1q50 -53 50 -124l-1 -9v-6
q0 -123 81 -218q82 -88 273 -102q206 17 293 125h-6q-9 0 -15 6q-78 16 -139 77q-82 82 -82 199q0 19 19 19z" />
    <glyph glyph-name="yaF" unicode="&#x64a;" horiz-adv-x="1765" arabic-form="final" 
d="M1125 -596v-82q0 -8 -5.5 -14t-13.5 -6h-266q-8 0 -13.5 6t-5.5 14v213q0 19 19 19h137q73 0 111 -39q39 -39 37 -111zM783 -596v-82q0 -8 -5.5 -14t-13.5 -6h-265q-8 0 -13.5 6t-5.5 14v213q0 19 19 19h136q73 0 112 -39q37 -39 36 -111zM815 301h962q8 0 14 -5.5
t6 -13.5v-263q0 -8 -6 -13.5t-14 -5.5h-405q-49 -184 -196 -293q-149 -112 -379 -132h-43q-2 0 -4 1h-1h-4q-1 0 -3 -0.5t-3 -0.5h-3l-43 2q-281 18 -440 183q-162 165 -162 435v173q0 8 6 14t14 6h109q73 0 122 -55v1q50 -53 50 -124l-1 -9v-6q0 -123 81 -218
q82 -88 273 -102q206 17 293 125h-6q-9 0 -15 6q-78 16 -139 77q-82 82 -82 199q0 19 19 19z" />
    <glyph glyph-name="yaI" unicode="&#x64a;" horiz-adv-x="747" arabic-form="initial" 
d="M-35 19v263q0 19 19 19l82 -1q248 29 248 363v42q0 8 6 13.5t14 5.5h299q8 0 14 -5.5t6 -13.5v-42q-2 -296 -158 -473q-155 -176 -427 -190h-84q-19 0 -19 19zM628 -300v-84q0 -19 -19 -19h-265q-8 0 -14 5.5t-6 13.5v214q0 8 6 13.5t14 5.5h137q72 0 110 -38
q39 -40 37 -111zM300 -300v-84q0 -8 -6 -13.5t-14 -5.5h-265q-19 0 -19 19v214q0 19 19 19h137q73 0 111 -38q39 -41 37 -111z" />
    <glyph glyph-name="yaM" unicode="&#x64a;" horiz-adv-x="841" arabic-form="medial" 
d="M246 663v42q0 19 19 19h299q19 0 19 -19v-42q0 -365 284 -365h1q2 1 4 1q19 0 19 -19v-261q0 -19 -19 -19h-6q-285 0 -451 178q-169 -178 -452 -178h-6q-19 0 -19 19l1 261q0 19 19 19l2 -1h3q283 0 283 365zM708 -300v-84q0 -8 -6 -13.5t-14 -5.5h-265q-8 0 -14 5.5
t-6 13.5v214q0 8 6 13.5t14 5.5h137q71 0 111 -38q39 -41 37 -111zM379 -300v-84q0 -19 -19 -19h-266q-19 0 -19 19v214q0 19 19 19h137q73 0 111 -38q39 -41 37 -111z" />
    <glyph glyph-name=".notdef" horiz-adv-x="2048" 
d="M588 1380h218q13 0 19 -13l485 -1341q4 -10 -1.5 -18t-16.5 -8h-291q-13 0 -19 14l-85 262h-492q-14 -44 -43 -131t-43 -131q-6 -14 -18 -14h-292q-11 0 -16.5 8t-1.5 18l447 1252q19 47 58.5 74.5t91.5 27.5zM811 540l-163 489q-19 -61 -74 -228t-84 -261h321z" />
    <glyph glyph-name=".null" 
 />
    <glyph glyph-name="nonmarkingreturn" horiz-adv-x="682" 
 />
    <glyph glyph-name="space" unicode=" " horiz-adv-x="460" 
 />
    <glyph glyph-name="space" unicode="&#xa0;" horiz-adv-x="460" 
 />
    <glyph glyph-name="exclam" unicode="!" horiz-adv-x="296" 
d="M231 377h-182q-18 0 -20 19l-46 820q0 67 46 113q47 47 113 47h136q9 0 14.5 -6t4.5 -14l-46 -960q-2 -19 -20 -19zM107 307h167q8 0 14 -5.5t6 -13.5v-269q0 -8 -6 -13.5t-14 -5.5h-268q-8 0 -14 5.5t-6 13.5v168q0 120 121 120z" />
    <glyph glyph-name="exclam" unicode="&#xac;" horiz-adv-x="296" 
d="M231 377h-182q-18 0 -20 19l-46 820q0 67 46 113q47 47 113 47h136q9 0 14.5 -6t4.5 -14l-46 -960q-2 -19 -20 -19zM107 307h167q8 0 14 -5.5t6 -13.5v-269q0 -8 -6 -13.5t-14 -5.5h-268q-8 0 -14 5.5t-6 13.5v168q0 120 121 120z" />
    <glyph glyph-name="quotedbl" unicode="&#x22;" horiz-adv-x="688" 
d="M160 878h-155q-8 0 -14 6t-6 14v218q0 123 67 199q69 75 198 100q9 2 16 -4t7 -16v-46q0 -30 -12 -44t-57 -44q-18 -7 -37 -26q-25 -29 -30 -75q0 -6 3 -14q0 1 20 1h90q8 0 13.5 -6t5.5 -14v-144q0 -105 -109 -105zM545 878h-152q-8 0 -13.5 6t-5.5 14v218q0 126 67 199
q69 75 197 100q10 2 17 -4t7 -16v-46q0 -45 -73 -88q-21 -10 -37 -26q-23 -24 -27 -76q-1 -6 4 -9t16 -3h93q8 0 14 -6t6 -14v-144q0 -105 -113 -105z" />
    <glyph glyph-name="numbersign" unicode="#" horiz-adv-x="1596" 
d="M424 766h-266q-10 0 -15.5 7t-2.5 18l43 128q16 50 71 94q51 39 109 44h158l105 305q6 14 18 14h78q122 0 142 -87q7 -38 7 -75q0 -33 -8 -60l-35 -97h140l105 305q6 14 18 14h82q135 0 144 -89q3 -30 3 -56q0 -47 -8 -71l-35 -103h211q11 0 16.5 -7t1.5 -18l-85 -253
q-6 -13 -19 -13h-222l-51 -152h211q11 0 16 -7.5t3 -17.5l-82 -253q-6 -13 -19 -13h-226l-105 -309q-6 -14 -18 -14h-265q-10 0 -15.5 7.5t-2.5 17.5l96 298h-137l-105 -309q-6 -14 -18 -14h-269q-11 0 -16.5 7.5t-1.5 17.5l101 298h-265q-11 0 -16.5 7t-2.5 18l43 128
q23 61 71 97q52 41 111 41h156zM820 614l51 152h-138l-54 -152h141z" />
    <glyph glyph-name="dollar" unicode="$" horiz-adv-x="1132" 
d="M-16 463h264q18 0 20 -17q15 -107 81 -151q31 -23 78 -35v319l-6 2l2 -1q-15 3 -19 3q-191 39 -270 95q-74 41 -117 130q-33 74 -33 187q0 208 136 311l-1 -1q106 86 308 104v150q0 8 6 13.5t14 5.5h4q65 0 112 -47t47 -112v-10q171 -21 277 -108q136 -122 143 -324
q0 -8 -6 -14.5t-14 -6.5h-155q-103 0 -142 93q-17 30 -50 60q-20 12 -53 26v-290q83 -24 112 -32q46 -11 74 -21h-1q56 -19 112 -49q77 -42 128 -123q41 -76 41 -189q0 -213 -147 -338q-111 -87 -319 -107v-149q0 -8 -6 -14t-14 -6h-143q-8 0 -14 6t-6 14v148
q-189 15 -308 113q-139 118 -154 344q-1 9 4.5 15t14.5 6zM610 528v-278q66 8 110 39q49 33 49 107q0 36 -38 68t-121 64zM427 891v258q-61 -11 -93 -33q-51 -39 -51 -105q0 -42 34.5 -71t109.5 -49z" />
    <glyph glyph-name="uni0025" unicode="%" horiz-adv-x="1332" 
d="M351 0h-222q-12 0 -17 9.5t1 19.5l742 1283h-1q28 50 71 58q33 6 79 6h120q13 0 18 -9.5t-1 -19.5l-774 -1337q-6 -10 -16 -10zM969 602q109 0 182 -75q74 -76 74 -181q0 -109 -74 -183t-182 -74q-109 0 -181 74q-72 75 -72 183q0 105 73 181q72 75 180 75zM285 1325
q120 0 208 -85q87 -84 87 -206q0 -124 -87 -210q-88 -85 -208 -85q-125 0 -210 85q-86 86 -86 210q0 120 86 206q85 85 210 85zM285 1147q-51 0 -84 -33q-33 -34 -33 -80q0 -50 33 -84q33 -33 84 -33q47 0 81 33q35 35 35 84q0 45 -35 80q-34 33 -81 33zM969 501
q-66 0 -110 -47q-42 -46 -42 -108q0 -67 42.5 -111.5t109.5 -44.5q65 0 111 45q44 44 44 111q0 62 -44 109q-45 46 -111 46z" />
    <glyph glyph-name="ampersand" unicode="&#x26;" horiz-adv-x="1264" 
d="M613 305l-220 274l-54 -39q-38 -28 -57 -63q-21 -37 -21 -84q0 -66 49 -115t118 -49q46 0 106 23h-1q39 15 80 53zM440 956l32 -40l19 14l-1 -1q38 25 57 60q21 37 21 76q0 37 -25 59q-23 23 -64 23q-43 0 -64 -22q-26 -24 -26 -60q0 -11 15 -48q5 -28 30 -54l7 -8z
M236 776l-41 52l1 -1q-46 54 -62 108v-1q-21 54 -21 108q0 151 104 244q102 94 266 94q161 0 254 -87h-1q96 -83 96 -228q0 -112 -54 -194q-56 -79 -154 -141q34 -42 90 -109t73 -88q6 12 26 66q13 73 19 123q1 7 7 12t13 5h140q76 0 92 -49q13 -40 9 -76q-14 -59 -32 -117
q-44 -104 -102 -181q32 -39 111 -135t123 -149q9 -11 4 -21.5t-19 -10.5h-311q-7 0 -15 8l-77 96q-98 -85 -168 -104q-88 -19 -189 -19q-1 0 -85 3q-145 12 -253 99q-114 107 -114 290q0 135 65 232q64 91 205 171z" />
    <glyph glyph-name="ampersand" unicode="&#xaf;" horiz-adv-x="1264" 
d="M613 305l-220 274l-54 -39q-38 -28 -57 -63q-21 -37 -21 -84q0 -66 49 -115t118 -49q46 0 106 23h-1q39 15 80 53zM440 956l32 -40l19 14l-1 -1q38 25 57 60q21 37 21 76q0 37 -25 59q-23 23 -64 23q-43 0 -64 -22q-26 -24 -26 -60q0 -11 15 -48q5 -28 30 -54l7 -8z
M236 776l-41 52l1 -1q-46 54 -62 108v-1q-21 54 -21 108q0 151 104 244q102 94 266 94q161 0 254 -87h-1q96 -83 96 -228q0 -112 -54 -194q-56 -79 -154 -141q34 -42 90 -109t73 -88q6 12 26 66q13 73 19 123q1 7 7 12t13 5h140q76 0 92 -49q13 -40 9 -76q-14 -59 -32 -117
q-44 -104 -102 -181q32 -39 111 -135t123 -149q9 -11 4 -21.5t-19 -10.5h-311q-7 0 -15 8l-77 96q-98 -85 -168 -104q-88 -19 -189 -19q-1 0 -85 3q-145 12 -253 99q-114 107 -114 290q0 135 65 232q64 91 205 171z" />
    <glyph glyph-name="quotesingle" unicode="'" horiz-adv-x="392" 
d="M193 1415h175q14 0 18.5 -12t-4.5 -21l-237 -245q-6 -6 -14 -6h-128q-12 0 -18 9.5t0 19.5l104 190q13 17 22 27.5t32.5 24t49.5 13.5z" />
    <glyph glyph-name="parenleft" unicode="(" horiz-adv-x="520" 
d="M485 1551l17 -29q-127 -211 -181 -408q-61 -204 -61 -438q0 -242 61 -438q51 -192 181 -407q7 -11 1.5 -20t-18.5 -9h-190q-10 0 -16 8q-156 209 -240 436q-78 212 -78 430q0 204 78 431q53 150 158 315q74 115 180 123q96 6 108 6z" />
    <glyph glyph-name="parenleft" unicode="&#xb0;" horiz-adv-x="520" 
d="M485 1551l17 -29q-127 -211 -181 -408q-61 -204 -61 -438q0 -242 61 -438q51 -192 181 -407q7 -11 1.5 -20t-18.5 -9h-190q-10 0 -16 8q-156 209 -240 436q-78 212 -78 430q0 204 78 431q53 150 158 315q74 115 180 123q96 6 108 6z" />
    <glyph glyph-name="parenright" unicode=")" horiz-adv-x="552" 
d="M4 -194l-17 29q117 197 185 404v-1q57 212 57 438q0 233 -57 439v-1q-63 209 -185 412q-7 10 -1.5 19.5t18.5 9.5h190q10 0 16 -8q160 -229 244 -440q82 -215 82 -431q0 -208 -82 -430q-52 -143 -162 -311q-74 -116 -180 -124q-107 -5 -108 -5z" />
    <glyph glyph-name="asterisk" unicode="*" horiz-adv-x="480" 
d="M229 1411h46q8 0 14 -5.5t6 -13.5v-123l73 21h-2q66 22 87 -52l16 -47q5 -19 -14 -24l-114 -32l39 -56q15 -27 15 -43q0 -34 -35 -57l-43 -28q-15 -8 -26 6l-66 94l-39 -53q-25 -30 -55 -30q-28 0 -48 20l3 -1l-39 28q-7 4 -8.5 11.5t3.5 14.5l66 95l-110 31
q-18 5 -13 24l15 47v-2q16 69 85 54l70 -21v72q0 70 74 70z" />
    <glyph glyph-name="plus" unicode="+" horiz-adv-x="948" 
d="M337 428h-331q-19 0 -19 19v93q0 105 105 105h245v331q0 19 19 19h94q104 0 104 -105v-245h331q19 0 19 -19v-179q0 -19 -19 -19h-331v-331q0 -19 -19 -19h-179q-19 0 -19 19v331z" />
    <glyph glyph-name="plus" unicode="&#xa4;" horiz-adv-x="948" 
d="M337 428h-331q-19 0 -19 19v93q0 105 105 105h245v331q0 19 19 19h94q104 0 104 -105v-245h331q19 0 19 -19v-179q0 -19 -19 -19h-331v-331q0 -19 -19 -19h-179q-19 0 -19 19v331z" />
    <glyph glyph-name="comma" unicode="," horiz-adv-x="232" 
d="M87 253h132q8 0 14 -6t6 -14v-206q0 -102 -59 -182q-69 -71 -175 -90q-9 -2 -16 4t-7 16v42q0 45 64 79q16 9 30 27l-2 -2q25 37 25 72q1 4 -3 5.5t-13 1.5h-78q-19 0 -19 19v133q0 101 101 101z" />
    <glyph glyph-name="hyphen" unicode="-" horiz-adv-x="576" 
d="M540 408h-536q-8 0 -14 6t-6 14v112q0 125 125 125h431q8 0 14 -6t6 -14v-217q0 -8 -6 -14t-14 -6z" />
    <glyph glyph-name="hyphen" unicode="&#xa5;" horiz-adv-x="576" 
d="M540 408h-536q-8 0 -14 6t-6 14v112q0 125 125 125h431q8 0 14 -6t6 -14v-217q0 -8 -6 -14t-14 -6z" />
    <glyph glyph-name="period" unicode="." horiz-adv-x="420" 
d="M182 253h132q8 0 13.5 -6t5.5 -14v-214q0 -19 -19 -19h-214q-19 0 -19 19v133q0 101 101 101z" />
    <glyph glyph-name="period" unicode="&#xa1;" horiz-adv-x="420" 
d="M182 253h132q8 0 13.5 -6t5.5 -14v-214q0 -19 -19 -19h-214q-19 0 -19 19v133q0 101 101 101z" />
    <glyph glyph-name="slash" unicode="/" horiz-adv-x="588" 
d="M-15 25l393 1341q5 14 19 14h151q11 0 16 -7.5t3 -17.5l-377 -1291q-19 -64 -89 -64h-97q-11 0 -16 7.5t-3 17.5z" />
    <glyph glyph-name="zero" unicode="0" horiz-adv-x="1044" 
d="M477 1399q227 0 365 -150q152 -176 152 -561q0 -398 -156 -566v1q-127 -142 -361 -142q-237 0 -376 153q-137 152 -137 554q0 384 153 565q132 146 360 146zM477 1143q-46 0 -85 -27q-53 -44 -83 -163q-30 -128 -30 -265q0 -139 29 -272q28 -122 87 -159q38 -28 82 -28
q41 0 88 29l-2 -1q54 39 82 160q30 123 30 267t-32 267q-34 125 -84 165q-39 27 -82 27z" />
    <glyph glyph-name="one" unicode="1" horiz-adv-x="560" 
d="M525 0h-269q-19 0 -19 19v883h-233q-8 0 -14 5.5t-6 13.5v195q0 8 6 13.5t14 5.5q80 0 166 53q84 53 119 173q1 6 6.5 10.5t11.5 4.5h78q64 0 112 -45q47 -44 47 -110v-1202q0 -19 -19 -19z" />
    <glyph glyph-name="two" unicode="2" horiz-adv-x="1024" 
d="M943 0h-960q-19 0 -19 19q0 188 92 341q86 137 251 250l9 6t13 8.5t14 8.5q27 14 53 33q133 83 196.5 149t63.5 133q0 84 -49 130q-49 49 -134 49q-92 0 -149 -59q-49 -65 -49 -170v-12q0 -8 -6 -13.5t-14 -5.5h-139q-95 0 -114 58q-10 30 -10 68q0 21 3 40
q28 136 118 232q133 130 376 130q224 0 354 -118q132 -129 132 -325q0 -150 -70 -248l1 1q-74 -113 -263 -236l1 1q-80 -56 -166 -109q-71 -46 -93 -85h558q8 0 14 -5.5t6 -13.5v-238q0 -8 -6 -13.5t-14 -5.5z" />
    <glyph glyph-name="three" unicode="3" horiz-adv-x="1036" 
d="M-36 439v4q0 8 5.5 14t13.5 6h261q8 0 13.5 -6t5.5 -14q0 -104 49 -153q53 -53 150 -53q96 0 140 45q58 52 58 142q0 87 -59 137v-1q-58 46 -186 46h-19q-2 0 -5 -0.5t-4 -0.5q-1 -1 -3 -1q-11 -4 -19 1t-8 17v186q0 8 5.5 14t13.5 6h27q112 0 167 43q51 41 51 124
q0 66 -45 111q-37 37 -118 37q-88 0 -126 -44q-45 -45 -45 -139v-8q0 -8 -6 -13.5t-14 -5.5h-140q-96 0 -115 57q-10 27 -10 59q0 22 5 47q29 109 112 186q133 117 350 117q212 0 340 -106v1q131 -107 131 -279q0 -96 -46 -167q-38 -57 -101 -97q82 -44 135 -115
q58 -82 58 -201q0 -215 -143 -337q-138 -117 -381 -117q-246 0 -372 117h1q-127 115 -127 341z" />
    <glyph glyph-name="four" unicode="4" horiz-adv-x="1092" 
d="M859 0h-269q-19 0 -19 19v280h-564q-8 0 -13.5 6t-5.5 14v247l512 801q7 9 17 9h202q66 0 110 -47q44 -44 49 -107v-666h140q8 0 13.5 -6t5.5 -14v-217q0 -8 -5.5 -14t-13.5 -6h-140v-280q0 -19 -19 -19zM257 548h318v504z" />
    <glyph glyph-name="five" unicode="5" horiz-adv-x="1036" 
d="M-17 428h265q19 0 19 -19q5 -86 56 -130q45 -42 131 -42q103 0 156 56v-1q54 64 54 178q0 108 -58 166q-56 60 -152 60q-56 0 -96 -22h1q-46 -22 -66 -62q-6 -10 -19 -10l-249 12q-20 2 -18 22l89 726q2 18 20 18h655q58 -4 106 -49q47 -44 47 -110v-94q0 -19 -19 -19
h-578l-26 -199q28 16 69 27q68 20 138 20q214 0 344 -130q134 -134 134 -344q0 -230 -145 -368q-139 -133 -387 -133q-228 0 -355 109q-127 117 -135 317q0 8 5.5 14.5t13.5 6.5z" />
    <glyph glyph-name="six" unicode="6" horiz-adv-x="1044" 
d="M291 463q0 -108 53 -171q50 -59 145 -59q91 0 136 59q50 62 50 171q0 100 -53 153q-48 53 -141 53q-89 0 -141 -52q-49 -55 -49 -154zM346 1066q-48 -72 -57 -211q37 28 84 46q81 28 155 28q204 0 340 -126q126 -137 126 -333q0 -219 -138 -360q-136 -129 -367 -129
q-262 0 -397 171q-128 167 -128 505q0 360 140 548q146 194 416 194q189 0 308 -98q114 -101 131 -265q1 -9 -5 -15t-14 -6h-202q-49 0 -75 29q-13 13 -45 51l2 -3q-13 11 -52 38q-29 17 -79 17q-91 0 -143 -81z" />
    <glyph glyph-name="seven" unicode="7" horiz-adv-x="1104" 
d="M493 0h-287q-8 0 -14 6t-6 14q7 268 138 567q111 257 319 517h-636q-19 0 -19 19v234q0 19 19 19h887q121 0 140 -91h-1q4 -20 4 -41q0 -60 -39 -106q-241 -273 -343 -524q-127 -284 -142 -596q-2 -18 -20 -18z" />
    <glyph glyph-name="seven" unicode="&#xd7;" horiz-adv-x="1104" 
d="M493 0h-287q-8 0 -14 6t-6 14q7 268 138 567q111 257 319 517h-636q-19 0 -19 19v234q0 19 19 19h887q121 0 140 -91h-1q4 -20 4 -41q0 -60 -39 -106q-241 -273 -343 -524q-127 -284 -142 -596q-2 -18 -20 -18z" />
    <glyph glyph-name="eight" unicode="8" horiz-adv-x="1040" 
d="M481 -19h-12q-241 0 -374 109q-131 111 -131 326q0 114 41 191q39 73 134 132q-60 37 -98 98q-46 74 -46 181q0 106 61 198l-1 -3q19 41 50 63l19 15l-1 -1q133 105 333 105l13 4h10l11 -4q201 -4 332 -104q15 -6 22 -18q22 -16 49 -57q61 -92 60 -198q-1 -99 -47 -180
q-40 -63 -97 -98q85 -54 136 -133q45 -87 45 -191q0 -212 -139 -326q-133 -109 -370 -109zM503 241h12q54 5 105 46q52 57 52 137q0 54 -29 98q-52 88 -166 88h-4q-120 0 -167 -83q-27 -41 -27 -103q0 -87 52 -139q38 -40 103 -44h13q7 -4 22 -4h12q18 0 22 4zM473 1143
q-83 0 -130 -44q-45 -42 -45 -100q0 -65 42.5 -102.5t132.5 -37.5q88 0 131.5 37.5t43.5 102.5q0 59 -45 100q-47 44 -130 44z" />
    <glyph glyph-name="nine" unicode="9" horiz-adv-x="1044" 
d="M862 1221q132 -177 132 -506q0 -355 -144 -544q-145 -190 -419 -190q-195 0 -305 94l1 -1q-19 15 -73 73q-39 48 -39 113q0 98 112 98h168q17 0 19 -18q7 -57 43 -83l-1 1q44 -29 110 -29q85 0 143 82l-1 -2q45 77 57 210q-30 -23 -84 -48q-60 -20 -154 -20
q-212 0 -340 122q-123 123 -123 333q0 336 280 450v-1q105 44 218 44q261 0 400 -178zM329 760v-1q48 -55 144 -55q89 0 137 55q32 32 44 96v-1q7 40 7 63q0 33 -8 67q-15 66 -61 112q-45 47 -130 47q-96 0 -131 -56q-56 -68 -56 -170q0 -100 54 -157z" />
    <glyph glyph-name="colon" unicode=":" horiz-adv-x="228" 
d="M83 385h132q8 0 14 -6t6 -14v-213q0 -8 -6 -14t-14 -6h-213q-8 0 -14 6t-6 14v136q0 97 101 97zM83 941h132q8 0 14 -6t6 -14v-214q0 -8 -6 -13.5t-14 -5.5h-213q-8 0 -14 5.5t-6 13.5v133q0 101 101 101z" />
    <glyph glyph-name="semicolon" unicode=";" horiz-adv-x="232" 
d="M87 253h132q8 0 14 -6t6 -14v-206q0 -102 -59 -182q-69 -71 -175 -90q-9 -2 -16 4t-7 16v42q0 45 64 79q16 9 30 27l-2 -2q25 37 25 72q1 4 -3 5.5t-13 1.5h-78q-19 0 -19 19v133q0 101 101 101zM87 805h132q8 0 14 -6t6 -14v-214q0 -8 -6 -13.5t-14 -5.5h-214
q-19 0 -19 19v136q0 98 101 98z" />
    <glyph glyph-name="less" unicode="&#x3c;" horiz-adv-x="876" 
d="M838 350v-206q0 -12 -9.5 -17.5t-20.5 -0.5l-761 412q-84 46 -84 150t88 150h-1q105 57 758 416q11 5 20.5 -0.5t9.5 -17.5v-152q0 -22 -16 -52t-42 -43h1l-540 -295l2 2q-8 -6 -8 -8l7 -7l585 -314q11 -7 11 -17z" />
    <glyph glyph-name="equal" unicode="=" horiz-adv-x="948" 
d="M885 727h-879q-19 0 -19 19v94q0 105 105 105h793q8 0 13.5 -6t5.5 -14v-179q0 -19 -19 -19zM885 424h-879q-19 0 -19 19v93q0 105 105 105h793q19 0 19 -19v-179q0 -19 -19 -19z" />
    <glyph glyph-name="greater" unicode="&#x3e;" horiz-adv-x="904" 
d="M-13 1030v206q0 12 9 17.5t20 0.5l758 -416h-1q92 -48 92 -150q0 -101 -92 -146h1q-105 -57 -758 -416q-11 -5 -20 0.5t-9 17.5v151q0 19 10 46q13 30 43 50q56 30 248 132.5t294 157.5l7 7q0 2 -8 8l2 -2l-587 319q-9 7 -9 17z" />
    <glyph glyph-name="greater" unicode="&#xb6;" horiz-adv-x="904" 
d="M-13 1030v206q0 12 9 17.5t20 0.5l758 -416h-1q92 -48 92 -150q0 -101 -92 -146h1q-105 -57 -758 -416q-11 -5 -20 0.5t-9 17.5v151q0 19 10 46q13 30 43 50q56 30 248 132.5t294 157.5l7 7q0 2 -8 8l2 -2l-587 319q-9 7 -9 17z" />
    <glyph glyph-name="question" unicode="?" horiz-adv-x="936" 
d="M543 389h-245q-8 0 -14 5.5t-6 13.5q0 136 23 206q22 76 144 175q54 42 97 90q36 42 36 104q0 139 -114 156q-25 4 -50 4q-81 0 -121 -49q-45 -47 -50 -150q0 -19 -19 -19q-111 0 -174 4q-87 6 -87 128q0 62 30.5 125t80.5 111q85 74 224 106q56 13 125 13q71 0 144 -18
q133 -32 228 -129q97 -100 97 -270q0 -136 -56 -210q-54 -70 -119 -122q-71 -57 -112 -96q-48 -44 -43 -124v-35q0 -19 -19 -19zM387 307h171q8 0 14 -5.5t6 -13.5v-269q0 -8 -6 -13.5t-14 -5.5h-268q-8 0 -14 5.5t-6 13.5v168q0 120 117 120z" />
    <glyph glyph-name="at" unicode="@" horiz-adv-x="1816" 
d="M946 487l49 191q-13 66 -48 101q-32 33 -91 33q-98 0 -167 -104q-74 -113 -74 -261q0 -70 34 -116q31 -36 90 -36q67 0 127 54q51 41 80 138zM1006 159q-39 33 -51 80q-38 -46 -95 -82q-68 -37 -164 -37q-148 0 -232 84q-83 86 -83 247q0 225 133 378q65 73 150 113.5
t180 40.5q82 0 131 -28q53 -35 82 -72l35 63q6 10 16 10q144 0 146 -81q0 -9 0.5 -21.5t0.5 -17.5q0 -32 -4 -44l-98 -411q-2 -6 -2 -17q-4 -4 -4 -10q0 -25 19 -38q10 -9 51 -9q17 0 66 19l-1 -1q45 22 69 46q76 76 113 165q41 100 41 206q0 208 -165 347
q-158 135 -422 135q-142 0 -236 -30q-102 -27 -197 -91q-148 -96 -231 -254q-83 -149 -83 -332q0 -272 184 -432q181 -159 493 -159q131 0 282 42q164 55 258 125q17 11 28 -6q12 -18 12 -50q0 -20 -7 -60q-15 -80 -94 -119q-76 -37 -143 -59h1q-153 -56 -333 -56
q-171 0 -329 44q-155 48 -270 135q-149 116 -216 261q-68 155 -68 334q0 142 44 297q48 148 148 257l-1 -2q126 163 329 258q200 88 433 88q142 0 297 -44q137 -44 239 -119q125 -100 192 -229q65 -139 65 -284q0 -147 -65 -285q-63 -134 -176 -225l1 1q-69 -56 -147 -85
q-85 -28 -165 -28q-103 0 -157 42z" />
    <glyph glyph-name="A" unicode="A" horiz-adv-x="1380" 
d="M585 1376h217q13 0 19 -13l486 -1337q3 -10 -2.5 -18t-16.5 -8h-291q-13 0 -19 14l-85 262h-492l-82 -262q-6 -14 -18 -14h-292q-11 0 -16.5 8t-1.5 18l443 1248q39 102 151 102zM806 540l-159 487l-160 -487h319z" />
    <glyph glyph-name="B" unicode="B" horiz-adv-x="1184" 
d="M618 0h-610q-19 0 -19 19v1198q0 66 46 112q47 47 113 47h490q210 0 326 -90q117 -99 117 -268q0 -107 -46 -181q-30 -49 -94 -93q78 -42 128 -111q55 -79 55 -205q0 -202 -132 -318q-134 -110 -374 -110zM292 1104v-245h295q93 0 136 31q39 30 39 93q0 64 -39 94
q-37 27 -140 27h-291zM292 591v-311h307q98 0 155 39q47 37 47 116q0 82 -47 121q-47 35 -159 35h-303z" />
    <glyph glyph-name="C" unicode="C" horiz-adv-x="1288" 
d="M934 501h268q8 0 14 -6t5 -15q-18 -240 -181 -379q-165 -132 -433 -132q-304 0 -477 189q-164 185 -164 530q0 353 168 538q177 189 496 189q263 0 421 -133q153 -134 170 -363q1 -8 -5 -14.5t-14 -6.5h-167q-105 0 -150 92v-1q-22 45 -60 84q-73 54 -195 54
q-169 0 -261 -110l1 1q-89 -113 -89 -330q0 -210 89 -323q82 -112 253 -112q118 0 194 58q69 53 98 176q5 14 19 14z" />
    <glyph glyph-name="D" unicode="D" horiz-adv-x="1224" 
d="M459 0h-451q-19 0 -19 19v1198q0 66 46 112q50 47 113 47h385q315 0 473 -170q157 -176 157 -518q0 -176 -57 -330q-63 -154 -169 -234q-87 -66 -189 -96h1q-94 -28 -290 -28zM296 1104v-824h202q183 0 265 94q81 86 81 314q0 218 -78 319q-70 97 -233 97h-237z" />
    <glyph glyph-name="E" unicode="E" horiz-adv-x="1048" 
d="M979 0h-972q-19 0 -19 19v1198q0 66 46 112q47 47 113 47h832q19 0 19 -19v-230q0 -19 -19 -19h-680v-249h501q19 0 19 -19v-90q0 -67 -46 -113t-113 -46h-361v-303h680q8 0 13.5 -6t5.5 -14v-249q0 -19 -19 -19z" />
    <glyph glyph-name="F" unicode="F" horiz-adv-x="1048" 
d="M279 0h-272q-19 0 -19 19v1198q0 66 46 112q47 47 113 47h832q19 0 19 -19v-230q0 -19 -19 -19h-680v-249h501q19 0 19 -19v-90q0 -67 -46 -113t-113 -46h-361v-572q0 -8 -6 -13.5t-14 -5.5z" />
    <glyph glyph-name="G" unicode="G" horiz-adv-x="1308" 
d="M993 123l-3 11q-67 -80 -150 -120q-105 -45 -229 -45q-296 0 -469 197q-176 191 -176 526q0 329 172 522q180 201 477 201q255 0 424 -125q167 -134 198 -346q2 -9 -4 -16t-15 -7h-187q-93 0 -138 85l1 -1q-28 46 -73 79h1q-72 51 -195 51q-157 0 -249 -114v1
q-93 -123 -93 -330q0 -209 97 -330q92 -113 260 -113q126 0 205 69q74 66 98 180h-140q-66 0 -112 46q-47 47 -47 113v89q0 8 6 14t14 6h555q8 0 14 -6t6 -14v-727q0 -8 -6 -13.5t-14 -5.5h-73q-125 0 -155 123z" />
    <glyph glyph-name="H" unicode="H" horiz-adv-x="1196" 
d="M284 0h-276q-19 0 -19 19v1198q0 66 46 112q47 47 113 47h136q19 0 19 -19v-479h514v479q0 19 19 19h280q19 0 19 -19v-1338q0 -19 -19 -19h-280q-19 0 -19 19v576h-514v-576q0 -19 -19 -19z" />
    <glyph glyph-name="I" unicode="I" horiz-adv-x="296" 
d="M278 0h-276q-19 0 -19 19v1198q0 66 46 112q47 47 113 47h136q19 0 19 -19v-1338q0 -19 -19 -19z" />
    <glyph glyph-name="J" unicode="J" horiz-adv-x="924" 
d="M-13 416v105q0 19 19 19h268q8 0 14 -5.5t6 -13.5v-163q0 -62 33 -96l-1 1q33 -30 108 -30q72 0 106 37l-1 -2q27 38 27 156v793q0 66 49 112q50 47 114 47h132q8 0 14 -5.5t6 -13.5v-945q0 -129 -11 -186q-22 -75 -56 -118q-58 -70 -153 -107q-107 -32 -223 -32
q-128 0 -209 32h2q-87 22 -154 90q-51 54 -70 117q-20 78 -20 208z" />
    <glyph glyph-name="K" unicode="K" horiz-adv-x="1284" 
d="M285 0h-276q-8 0 -14 5.5t-6 13.5v1198q0 65 47 112t113 47h136q19 0 19 -19v-499q53 56 224 234.5t263 277.5q6 6 14 6h346q14 0 19 -11.5t-5 -21.5l-525 -529l574 -783q7 -11 2.5 -21t-18.5 -10h-334q-10 0 -16 8l-338 474q-68 88 -122 88q-1 0 -22 -3q-62 -21 -62 -77
v-471q0 -19 -19 -19z" />
    <glyph glyph-name="L" unicode="L" horiz-adv-x="1000" 
d="M936 0h-929q-8 0 -14 5.5t-6 13.5v1198q0 65 47 112t113 47h136q19 0 19 -19v-1069h634q8 0 13.5 -6t5.5 -14v-249q0 -19 -19 -19z" />
    <glyph glyph-name="M" unicode="M" horiz-adv-x="1452" 
d="M266 0h-256q-8 0 -14 5.5t-6 13.5v1198q0 65 47 112q46 46 112 51h269q12 0 18 -15l246 -949q146 557 246 949q6 15 19 15h408q8 0 13.5 -6t5.5 -14v-1341q0 -19 -19 -19h-257q-19 0 -19 19v926l-234 -930q-6 -15 -19 -15h-284q-12 0 -18 15l-238 930v-926q0 -8 -6 -13.5
t-14 -5.5z" />
    <glyph glyph-name="M" unicode="&#x37e;" horiz-adv-x="1452" 
d="M266 0h-256q-8 0 -14 5.5t-6 13.5v1198q0 65 47 112q46 46 112 51h269q12 0 18 -15l246 -949q146 557 246 949q6 15 19 15h408q8 0 13.5 -6t5.5 -14v-1341q0 -19 -19 -19h-257q-19 0 -19 19v926l-234 -930q-6 -15 -19 -15h-284q-12 0 -18 15l-238 930v-926q0 -8 -6 -13.5
t-14 -5.5z" />
    <glyph glyph-name="N" unicode="N" horiz-adv-x="1192" 
d="M280 0h-272q-19 0 -19 19v1198q0 66 46 112t112 51h149q10 0 16 -10l508 -860v850q0 8 6 14t14 6h272q8 0 13.5 -6t5.5 -14v-1341q0 -19 -19 -19h-284q-10 0 -16 10l-512 861v-852q0 -8 -6 -13.5t-14 -5.5z" />
    <glyph glyph-name="O" unicode="O" horiz-adv-x="1380" 
d="M281 688q0 -221 93 -329q92 -114 261 -114q167 0 261 114h-1q98 123 98 329q0 207 -98 334l1 -1q-94 114 -261 114q-169 0 -260 -114q-94 -115 -94 -333zM-34 688q0 330 176 530q191 197 493 197q298 0 492 -197q180 -201 180 -530t-180 -527q-186 -192 -492 -192
q-311 0 -493 192q-176 194 -176 527z" />
    <glyph glyph-name="P" unicode="P" horiz-adv-x="1104" 
d="M622 478h-319v-459q0 -8 -6 -13.5t-14 -5.5h-276q-19 0 -19 19v1198q0 65 47 112t112 47h455q223 0 332 -115q115 -114 115 -336q0 -209 -111 -332q-109 -115 -316 -115zM303 1104v-346h249q100 0 142 42q44 35 44 133q0 83 -42 131q-52 40 -129 40h-264z" />
    <glyph glyph-name="Q" unicode="Q" horiz-adv-x="1384" 
d="M1054 -7l-67 59q-63 -43 -150 -60l1 1q-98 -24 -203 -24q-311 0 -493 192q-176 194 -176 527q0 330 176 530q191 197 493 197q298 0 492 -197q180 -201 180 -530q0 -146 -36 -262q-35 -112 -101 -200l135 -127q13 -13 0 -27l-73 -74q-46 -46 -99 -39q-46 7 -79 34z
M760 266l-119 117q-13 13 -1 27l46 51v-1q37 41 96 49q60 9 105 -21l56 -45q12 24 35 98l-1 -2l6 46q10 66 10 103q0 209 -98 334l1 -1q-94 114 -261 114q-169 0 -260 -114q-94 -115 -94 -333q0 -221 93 -329q92 -114 261 -114q51 0 81 7q32 9 44 14z" />
    <glyph glyph-name="R" unicode="R" horiz-adv-x="1192" 
d="M284 0h-276q-19 0 -19 19v1198q0 66 46 112q47 47 113 47h509q225 0 335 -98q116 -104 116 -298q0 -132 -57 -217v1q-39 -69 -114 -103q61 -34 90 -84q39 -70 46 -207l8 -160v-14q0 -57 4 -84q11 -60 37 -75q12 -7 8.5 -22t-18.5 -15h-303q-11 0 -18 11q-21 45 -25 88
q-8 64 -8 88l-4 143v-1q-7 105 -40 155q-40 37 -138 37h-273v-502q0 -19 -19 -19zM303 1108v-315h304q95 0 142 38q44 35 44 117q0 83 -44 118q-42 42 -127 42h-319z" />
    <glyph glyph-name="S" unicode="S" horiz-adv-x="1176" 
d="M8 455h272q17 0 19 -17q15 -110 81 -150q74 -51 203 -51q113 0 172 40q54 36 54 108q0 108 -337 183l-10 5l4 -1l-8 2l-24 6l1 -1q-198 41 -272 93l2 -1q-84 47 -117 135l2 -3q-42 71 -42 188q0 199 139 314q139 110 397 110q244 0 378 -114q140 -126 147 -328
q0 -8 -5.5 -14.5t-13.5 -6.5h-156q-101 0 -146 93q-15 33 -48 59q-71 47 -179 47q-106 0 -156 -39q-50 -38 -50 -105q0 -89 211 -137q59 -18 95 -23q69 -23 189 -54l-2 1l20 -5l114 -49q83 -52 128 -129q46 -88 46 -187q0 -218 -148 -342q-143 -113 -408 -113
q-270 0 -409 117h1q-151 116 -164 348q-1 9 5 15t15 6z" />
    <glyph glyph-name="T" unicode="T" horiz-adv-x="1148" 
d="M680 0h-276q-19 0 -19 19v1081h-377q-8 0 -14 5.5t-6 13.5v98q0 65 47 112t113 47h925q19 0 19 -19v-238q0 -19 -19 -19h-373v-1081q0 -8 -6 -13.5t-14 -5.5z" />
    <glyph glyph-name="U" unicode="U" horiz-adv-x="1156" 
d="M148 1380h140q8 0 13.5 -6t5.5 -14v-835q0 -144 55 -218q59 -62 182 -62q124 0 184 64v-1q57 63 57 217v835q0 8 6 14t14 6h276q8 0 13.5 -6t5.5 -14v-866q0 -258 -146 -392v1q-134 -134 -410 -134q-273 0 -410 134v-1q-146 132 -146 392v719q0 65 46 115q46 52 114 52z
" />
    <glyph glyph-name="V" unicode="V" horiz-adv-x="1276" 
d="M735 0h-264q-12 0 -18 13l-463 1337q-4 10 2 18t17 8h307q12 0 18 -15l265 -932l242 832v-1q29 116 151 116h198q11 0 17 -7.5t2 -17.5l-455 -1337q-6 -14 -19 -14z" />
    <glyph glyph-name="W" unicode="W" horiz-adv-x="1840" 
d="M658 0h-261q-13 0 -18 14l-385 1337q-3 10 2.5 17.5t15.5 7.5h284q13 0 19 -15l209 -859l176 858q4 16 20 16h295q16 0 20 -16l173 -858q33 137 96 394t89 364q31 116 155 116h171q10 0 15.5 -7t2.5 -17l-381 -1337q-6 -15 -18 -15h-264q-16 0 -20 16l-186 930l-191 -930
q-5 -16 -19 -16z" />
    <glyph glyph-name="X" unicode="X" horiz-adv-x="1276" 
d="M327 0h-318q-13 0 -18.5 9.5t1.5 19.5l413 674l-413 643q-7 10 -1.5 20t18.5 10h318q11 0 17 -10l255 -438l217 372q45 76 137 76h237q13 0 18.5 -10t-1.5 -20l-413 -643q69 -112 206.5 -337t206.5 -337q7 -10 1.5 -19.5t-18.5 -9.5h-315q-10 0 -16 10l-260 434
l-255 -434q-6 -10 -17 -10z" />
    <glyph glyph-name="Y" unicode="Y" horiz-adv-x="1296" 
d="M790 512v-493q0 -19 -19 -19h-276q-8 0 -14 5.5t-6 13.5v493q-81 140 -242 417t-241 418q-6 10 -1 19.5t18 9.5h338q11 0 17 -11l267 -538l211 460q47 89 146 89h222q11 0 16.5 -9t0.5 -19z" />
    <glyph glyph-name="Z" unicode="Z" horiz-adv-x="1144" 
d="M1053 0h-1045q-8 0 -14 5.5t-6 13.5v240l705 837h-530q-63 0 -113 47q-46 46 -46 113v101q0 19 19 19h1046q19 0 19 -19v-240l-704 -837h669q8 0 14 -6t6 -14v-241q0 -8 -6 -13.5t-14 -5.5z" />
    <glyph glyph-name="bracketleft" unicode="[" horiz-adv-x="512" 
d="M380 -222h-377q-8 0 -13.5 6t-5.5 14v1784q0 19 19 19h475q19 0 19 -19v-198q0 -8 -5.5 -14t-13.5 -6h-202v-1345h202q19 0 19 -19v-105q0 -108 -117 -117z" />
    <glyph glyph-name="bracketleft" unicode="&#xb8;" horiz-adv-x="512" 
d="M380 -222h-377q-8 0 -13.5 6t-5.5 14v1784q0 19 19 19h475q19 0 19 -19v-198q0 -8 -5.5 -14t-13.5 -6h-202v-1345h202q19 0 19 -19v-105q0 -108 -117 -117z" />
    <glyph glyph-name="backslash" unicode="\" horiz-adv-x="588" 
d="M548 0h-151q-14 0 -19 14l-393 1341q-2 10 3 17.5t16 7.5h97q68 0 89 -68l377 -1287q2 -10 -3 -17.5t-16 -7.5z" />
    <glyph glyph-name="backslash" unicode="&#x2219;" horiz-adv-x="588" 
d="M548 0h-151q-14 0 -19 14l-393 1341q-2 10 3 17.5t16 7.5h97q68 0 89 -68l377 -1287q2 -10 -3 -17.5t-16 -7.5z" />
    <glyph glyph-name="backslash" unicode="&#xb7;" horiz-adv-x="588" 
d="M548 0h-151q-14 0 -19 14l-393 1341q-2 10 3 17.5t16 7.5h97q68 0 89 -68l377 -1287q2 -10 -3 -17.5t-16 -7.5z" />
    <glyph glyph-name="bracketright" unicode="]" horiz-adv-x="512" 
d="M101 1590h377q8 0 13.5 -6t5.5 -14v-1784q0 -19 -19 -19h-475q-19 0 -19 19v198q0 8 5.5 14t13.5 6h203v1349h-203q-19 0 -19 19v101q0 44 29 79q32 38 88 38z" />
    <glyph glyph-name="bracketright" unicode="&#xb9;" horiz-adv-x="512" 
d="M101 1590h377q8 0 13.5 -6t5.5 -14v-1784q0 -19 -19 -19h-475q-19 0 -19 19v198q0 8 5.5 14t13.5 6h203v1349h-203q-19 0 -19 19v101q0 44 29 79q32 38 88 38z" />
    <glyph glyph-name="asciicircum" unicode="^" horiz-adv-x="588" 
d="M438 1326l125 -147q8 -11 3.5 -21.5t-18.5 -10.5h-159q-9 0 -15 6l-102 116l-68 -74q-28 -28 -48.5 -38t-58.5 -10h-93q-14 0 -18.5 10.5t3.5 21.5l125 147l-1 -1q68 90 163 90q92 0 163 -89h-1z" />
    <glyph glyph-name="underscore" unicode="_" horiz-adv-x="1092" 
d="M1018 -241h-1011q-19 0 -19 19v55q0 55 37 93.5t91 38.5h902q19 0 19 -19v-168q0 -19 -19 -19z" />
    <glyph glyph-name="grave" unicode="`" horiz-adv-x="392" 
d="M226 1137l-237 245q-10 9 -5 21t19 12h175q26 0 49.5 -13.5t32.5 -24t22 -27.5l104 -190q5 -10 -0.5 -19.5t-17.5 -9.5h-128q-8 0 -14 6z" />
    <glyph glyph-name="a" unicode="a" horiz-adv-x="916" 
d="M583 441v66q-49 -22 -127 -39q-23 -5 -67 -14l-22 -5h1q-61 -16 -89 -42q-24 -36 -24 -74q0 -51 28 -79q29 -26 88 -26q100 0 156 56t56 157zM673 44q-84 -43 -179 -54q-92 -9 -162 -9q-146 0 -255 79q-112 81 -112 265q0 172 102 247q97 71 250 97q15 0 50 7q7 1 59 8
q153 24 153 82q0 44 -46 57q-54 16 -104 16q-113 0 -142 -62q-5 -11 -17 -11h-259q-9 0 -15 6.5t-4 15.5q16 124 115 209q112 93 310 93q222 0 335 -77q121 -82 121 -232v-352q0 -161 -59 -252q-58 -91 -141 -133z" />
    <glyph glyph-name="b" unicode="b" horiz-adv-x="1052" 
d="M291 1222v-250q39 44 94 77q75 41 180 41q191 0 313 -158q120 -154 120 -402q0 -249 -120 -402q-60 -78 -166 -114q-98 -33 -201 -33q-192 0 -354 99q-168 104 -168 388v885q0 8 5.5 14t13.5 6h132q61 0 106 -45t45 -106zM693 541q0 132 -54 205q-53 74 -143 74
q-99 0 -151 -70q-54 -75 -54 -209q0 -153 50 -224q52 -73 147 -73q99 0 151 73q54 76 54 224z" />
    <glyph glyph-name="c" unicode="c" horiz-adv-x="984" 
d="M723 356h193q11 0 16 -7.5t3 -16.5q-41 -163 -170 -259q-129 -92 -313 -92q-230 0 -358 149q-129 146 -129 411q0 250 125 400q134 149 358 149q241 0 375 -146q72 -88 104 -205q3 -9 -2.5 -16.5t-15.5 -7.5h-271q-13 0 -18 11q-16 35 -35 53q-45 48 -129 48
q-75 0 -125 -47q-64 -73 -64 -243q0 -171 64 -238q45 -55 137 -55q66 0 104 25q12 5 27 21l7 7q16 21 35 36q29 23 82 23z" />
    <glyph glyph-name="d" unicode="d" horiz-adv-x="1024" 
d="M669 971v382q0 8 5.5 14t13.5 6h132q62 0 106 -47q45 -48 45 -104v-754q0 -284 -168 -388q-163 -99 -354 -99q-107 0 -203 33q-103 37 -165 114q-116 149 -116 402q0 250 116 402q123 158 314 158q101 0 178 -41q57 -34 96 -78zM267 541q0 -149 54 -224q52 -73 151 -73
q95 0 147 73l-1 -1q51 76 51 225q0 134 -54 209v-1q-57 71 -151 71q-90 0 -143 -74q-54 -71 -54 -205z" />
    <glyph glyph-name="e" unicode="e" horiz-adv-x="1000" 
d="M723 356h193q11 0 16 -7.5t3 -16.5q-41 -163 -169 -259q-129 -92 -314 -92q-230 0 -358 149q-129 146 -129 411q0 250 125 400q134 149 359 149q240 0 374 -146q128 -149 128 -410v-43q0 -24 -7 -37q-5 -9 -16 -9h-649q7 -97 53 -146q45 -55 136 -55q61 0 105 26
q13 4 27 21l-2 -3l6 6q8 15 36 39q29 23 83 23zM279 657h353q-11 84 -47 123v-1q-45 48 -129 48q-77 0 -125 -48q-44 -44 -52 -122z" />
    <glyph glyph-name="f" unicode="f" horiz-adv-x="464" 
d="M267 0h-263q-8 0 -14 5.5t-6 13.5v1060q0 149 80 223q74 71 241 71q46 0 66 -4q45 0 66 -4q15 -6 15 -19v-213q0 -19 -19 -19h-70q-49 0 -66 -12l2 1q-13 -10 -13 -47v-51h147q19 0 19 -19v-58q0 -68 -44 -109q-45 -42 -103 -42h-19v-758q0 -19 -19 -19z" />
    <glyph glyph-name="g" unicode="g" horiz-adv-x="1024" 
d="M669 82v7q-71 -73 -163 -96q-40 -10 -91 -10q-82 0 -155 30q-123 48 -209 179t-86 342q0 246 114 400q117 156 370 156q194 0 354 -103q168 -107 168 -388v-545q0 -281 -168 -386q-164 -101 -354 -101q-370 0 -459 347q-2 10 2.5 17t15.5 7h282q11 0 17 -10
q29 -50 86 -75q35 -17 79 -17q20 0 37 4q58 10 105 68q48 60 55 174zM267 526q0 -250 139 -277h-1q46 -6 62 -6q96 0 148 70q31 37 46 125q9 48 9 92q0 35 -7 82q-12 84 -60 150q-45 62 -131 62q-119 0 -161 -86q-44 -93 -44 -212z" />
    <glyph glyph-name="h" unicode="h" horiz-adv-x="1040" 
d="M639 747v-1q-53 74 -144 74q-99 0 -150 -70q-54 -70 -54 -201v-530q0 -8 -6 -13.5t-14 -5.5h-263q-19 0 -19 19v1330q0 8 5.5 14t13.5 6h132q61 0 106 -45t45 -106v-246q65 80 173 106q51 13 105 13q75 0 150 -30q110 -46 190 -152q78 -105 78 -290v-600q0 -8 -6 -13.5
t-14 -5.5h-259q-19 0 -19 19v534q0 117 -50 194z" />
    <glyph glyph-name="i" unicode="i" horiz-adv-x="316" 
d="M7 19v1029q0 19 19 19h139q62 0 106 -44q45 -45 45 -107v-897q0 -19 -19 -19h-271q-19 0 -19 19zM7 1137v212q0 8 5.5 14t13.5 6h139q61 0 106 -45t45 -106v-81q0 -8 -5.5 -14t-13.5 -6h-271q-8 0 -13.5 6t-5.5 14z" />
    <glyph glyph-name="j" unicode="j" horiz-adv-x="364" 
d="M-37 -429h-50q-8 0 -14 5.5t-6 13.5v224q0 8 6 14t14 6h50q23 0 33 13q10 7 10 37v1164q0 19 19 19h139q62 0 106 -44q45 -45 45 -107v-1075q0 -141 -85 -208q-83 -62 -267 -62zM6 1137v212q0 8 5.5 14t13.5 6h139q62 0 106 -45q45 -45 45 -106v-81q0 -8 -5.5 -14
t-13.5 -6h-271q-8 0 -13.5 6t-5.5 14z" />
    <glyph glyph-name="k" unicode="k" horiz-adv-x="1008" 
d="M298 1222v-502l295 340q7 7 14 7h325q14 0 19 -11t-4 -22l-358 -383l363 -622q6 -11 1 -20t-17 -9h-325q-11 0 -17 10l-190 348h1q-25 45 -44 65t-33 15q-30 -14 -30 -28v-391q0 -19 -19 -19h-271q-19 0 -19 19v1330q0 8 5.5 14t13.5 6h139q62 0 107 -45q44 -47 44 -102z
" />
    <glyph glyph-name="l" unicode="l" horiz-adv-x="340" 
d="M-5 19v1330q0 8 5.5 14t13.5 6h139q62 0 107 -42q44 -41 44 -105v-1203q0 -19 -19 -19h-271q-19 0 -19 19z" />
    <glyph glyph-name="m" unicode="m" horiz-adv-x="1656" 
d="M930 677v-658q0 -8 -6 -13.5t-14 -5.5h-267q-19 0 -19 19v658q0 84 -48 120q-53 38 -114 38q-62 0 -112 -38q-47 -38 -47 -120v-658q0 -19 -19 -19h-271q-19 0 -19 19v604q0 273 146 368q147 93 313 99q210 0 330 -90q100 83 300 90q175 0 324 -91q153 -94 153 -376v-604
q0 -8 -6 -13.5t-14 -5.5h-135q-67 0 -109 42t-42 109v526q0 84 -48 120q-53 38 -114 38t-114 -38q-48 -36 -48 -120z" />
    <glyph glyph-name="n" unicode="n" horiz-adv-x="972" 
d="M924 623v-604q0 -19 -19 -19h-136q-66 0 -108 42t-42 109v526q0 83 -49 120q-53 38 -114 38q-62 0 -112 -38q-46 -37 -46 -120v-658q0 -8 -6 -13.5t-14 -5.5h-270q-8 0 -14 5.5t-6 13.5v604q0 273 146 368q147 93 314 99q175 0 323 -91q153 -94 153 -376z" />
    <glyph glyph-name="o" unicode="o" horiz-adv-x="1000" 
d="M123 98q-86 74 -122 196t-36 251q0 105 30 214q31 107 95 182q103 117 271 144q46 6 99 6q110 0 196 -33q154 -60 228 -210q67 -133 67 -307q0 -231 -100 -375q-98 -134 -248 -166l1 1q-65 -20 -145 -20q-65 0 -121 13q-136 31 -215 104zM412 819q-53 -17 -77 -39
q-69 -75 -69 -223q0 -6 0.5 -15t0.5 -13q7 -172 61 -235q16 -23 73 -46q29 -10 57 -10q20 0 50 7h-1q55 17 95 79q44 65 48 214q0 132 -42 198q-41 63 -92 81q-27 9 -56 9q-27 0 -48 -7z" />
    <glyph glyph-name="p" unicode="p" horiz-adv-x="1052" 
d="M291 94v-322q0 -62 -45 -106q-45 -45 -106 -45h-132q-19 0 -19 19v963q0 281 167 386q163 101 355 101q103 0 202 -37q102 -38 164 -113q121 -157 121 -399q0 -251 -120 -406q-121 -154 -313 -154q-99 0 -179 36q-57 31 -95 77zM693 530q0 144 -54 220q-53 74 -151 74
q-94 0 -147 -74q-50 -71 -50 -220q0 -140 54 -209q53 -74 151 -74q90 0 143 74q54 77 54 209z" />
    <glyph glyph-name="q" unicode="q" horiz-adv-x="1024" 
d="M669 -228v323q-39 -47 -97 -78q-81 -36 -177 -36q-196 0 -314 154q-116 149 -116 406q0 247 116 399q68 78 164 113q96 37 204 37q193 0 354 -101q168 -105 168 -386v-963q0 -8 -6 -13.5t-14 -5.5h-131q-61 0 -106 45q-45 44 -45 106zM267 530q0 -134 54 -209
q53 -74 143 -74q98 0 151 74q54 69 54 209q0 144 -51 221l1 -1q-53 74 -147 74q-98 0 -151 -74q-54 -75 -54 -220z" />
    <glyph glyph-name="r" unicode="r" horiz-adv-x="628" 
d="M276 0h-271q-19 0 -19 19v499q0 294 174 433q144 116 386 116h39q19 0 19 -19v-275q0 -19 -19 -19h-89q-105 0 -153 -48t-48 -157v-530q0 -19 -19 -19z" />
    <glyph glyph-name="s" unicode="s" horiz-adv-x="964" 
d="M-35 348v12q0 19 19 19h263q18 0 20 -18q3 -69 50 -102l-1 1q54 -36 144 -36q64 0 110 25v-1q37 22 37 57q0 53 -147 86h1q-70 11 -107 24q-206 53 -282 123q-84 82 -84 201q0 154 119 258q123 93 314 93q207 0 332 -91q120 -104 128 -267q1 -9 -4.5 -15t-14.5 -6h-166
q-81 0 -128 74l-29 29q-43 29 -114 29t-106 -20h1q-26 -17 -26 -54q0 -46 185 -85q42 -15 71 -15q205 -52 286 -121q80 -74 80 -200q0 -180 -131 -278q-122 -89 -360 -89q-228 0 -341 92h1q-120 96 -120 275z" />
    <glyph glyph-name="t" unicode="t" horiz-adv-x="496" 
d="M480 220v-201q0 -17 -19 -19q-49 -3 -107 -3q-88 0 -172 7q-166 13 -166 209v1136q0 8 5.5 14t13.5 6h139q58 0 103 -45q44 -44 44 -106v-155h139q8 0 14 -5.5t6 -13.5v-54q0 -67 -45 -109t-106 -42h-8v-553q0 -46 58 -46h81q8 0 14 -6t6 -14z" />
    <glyph glyph-name="u" unicode="u" horiz-adv-x="972" 
d="M769 1067h136q19 0 19 -19v-603q0 -285 -153 -376q-145 -88 -323 -88q-169 6 -314 95q-146 92 -146 369v603q0 8 6 13.5t14 5.5h270q8 0 14 -5.5t6 -13.5v-657q0 -84 46 -120q51 -39 112 -39q62 0 114 39q49 36 49 120v525q0 63 41 107t109 44z" />
    <glyph glyph-name="v" unicode="v" horiz-adv-x="1080" 
d="M1025 1041l-364 -1028q-6 -13 -18 -13h-275q-12 0 -18 13l-360 1028q-4 11 2 18.5t17 7.5h286q12 0 18 -14l187 -658l163 565q35 107 142 107h201q11 0 16.5 -7.5t2.5 -18.5z" />
    <glyph glyph-name="w" unicode="w" horiz-adv-x="1544" 
d="M1454 1043l-283 -1029q-6 -14 -18 -14h-271q-13 0 -19 15l-139 643q-107 -491 -139 -643q-6 -15 -20 -15h-270q-13 0 -19 14l-282 1029q-3 10 2.5 17t15.5 7h263q13 0 19 -15l142 -624q22 107 65 312t64 312q6 15 20 15h274q13 0 19 -15l122 -624l123 531q27 108 142 108
h170q11 0 16 -7t3 -17z" />
    <glyph glyph-name="x" unicode="x" horiz-adv-x="1128" 
d="M686 545l333 -515q7 -11 1.5 -20.5t-17.5 -9.5h-310q-10 0 -16 10l-166 295l-172 -295q-6 -10 -17 -10h-313q-12 0 -17.5 9.5t1.5 20.5l329 519l-310 488q-7 11 -1.5 20.5t17.5 9.5h298q9 0 16 -9l162 -282l181 305l-1 -1q39 80 133 80h232q13 0 18 -9.5t-1 -20.5z" />
    <glyph glyph-name="y" unicode="y" horiz-adv-x="1080" 
d="M136 -344v213q0 8 6 13.5t14 5.5h73q69 0 109 33q21 15 21 47q0 22 -9 49v-1l-360 1025q-4 11 2 18.5t17 7.5h297q13 0 19 -13l190 -663l163 569q31 107 143 107h185q11 0 16.5 -7t2.5 -18l-395 -1173q-48 -133 -124 -191q-73 -49 -238 -49h-57q-26 8 -55 8q-8 0 -14 5.5
t-6 13.5z" />
    <glyph glyph-name="z" unicode="z" horiz-adv-x="968" 
d="M901 0h-893q-8 0 -14 5.5t-6 13.5v212l530 585h-348q-62 0 -106 41q-45 42 -45 106v85q0 8 6 13.5t14 5.5h843q19 0 19 -19v-229l-519 -556h519q19 0 19 -19v-225q0 -19 -19 -19z" />
    <glyph glyph-name="braceleft" unicode="{" horiz-adv-x="732" 
d="M705 -8v-114q-6 -43 -41 -72q-34 -28 -69 -31q-69 0 -88 3l-54 8q-68 12 -112 38l1 -1q-64 35 -86 93q-22 72 -22 193v237q0 110 -46 171l1 -2q-46 49 -145 49h-2q-2 -1 -3 -1q-9 -3 -15 -3h-19q-19 0 -19 19v195q0 19 19 19h35q103 0 149 49q45 48 45 169v233
q0 130 21 192q25 67 87 97l-1 -1q39 26 111 38q63 12 159 12h35q9 0 23 -2t16 -2q8 0 14 -5.5t6 -13.5v-195q0 -8 -6 -13.5t-14 -5.5h-27q-9 4 -19 4q-87 0 -109 -31q-31 -31 -31 -136v-226q0 -145 -47 -210q-33 -40 -101 -69q68 -26 101 -72q47 -68 47 -209v-225
q0 -109 29 -138q25 -25 111 -25h24q20 4 22 4q8 0 14 -6t6 -14z" />
    <glyph glyph-name="bar" unicode="|" horiz-adv-x="196" 
d="M122 1734h62q8 0 13.5 -6t5.5 -14v-2044q0 -8 -5.5 -14t-13.5 -6h-183q-8 0 -13.5 6t-5.5 14v1928q0 54 41 95t99 41z" />
    <glyph glyph-name="braceright" unicode="}" horiz-adv-x="732" 
d="M-14 1368v109q0 45 35 75q36 30 77 30q52 0 77 -4q6 0 19 -2t19 -3l24 -3q65 -11 112 -38q60 -34 83 -95q24 -66 24 -193v-237q0 -107 43 -171q46 -43 147 -43h39q8 0 14 -5.5t6 -13.5v-195q0 -8 -6 -13.5t-14 -5.5h-35q-102 0 -152 -48q-42 -48 -42 -166v-237
q0 -130 -25 -191l1 1q-19 -53 -82 -95q-55 -27 -112 -38q-61 -11 -163 -11h-36q-16 3 -34 3q-8 0 -13.5 6t-5.5 14v194q0 8 5.5 14t13.5 6h43q90 0 114 25q30 29 30 134v225q0 155 46 210l-1 -1q28 44 96 71q-67 28 -96 71l2 -2q-47 59 -47 211v226q0 107 -31 138
q-24 29 -113 29h-43q-19 0 -19 19z" />
    <glyph glyph-name="asciitilde" unicode="~" horiz-adv-x="580" 
d="M-16 428v116q0 88 84 116q31 11 60 11q39 0 71 -13h-1q9 -3 57 -19.5t73 -25.5q58 -21 116 -26q47 -4 85 47q8 11 21.5 6.5t13.5 -18.5q0 -84 -6 -136q-7 -67 -92 -82q-16 -4 -40 -4q-48 0 -93 19q-18 7 -39.5 15t-47 17t-39.5 14q-60 21 -110 17q-44 -4 -76 -63
q-6 -14 -21.5 -10.5t-15.5 19.5z" />
    <glyph glyph-name="asciitilde" unicode="&#xa6;" horiz-adv-x="580" 
d="M-16 428v116q0 88 84 116q31 11 60 11q39 0 71 -13h-1q9 -3 57 -19.5t73 -25.5q58 -21 116 -26q47 -4 85 47q8 11 21.5 6.5t13.5 -18.5q0 -84 -6 -136q-7 -67 -92 -82q-16 -4 -40 -4q-48 0 -93 19q-18 7 -39.5 15t-47 17t-39.5 14q-60 21 -110 17q-44 -4 -76 -63
q-6 -14 -21.5 -10.5t-15.5 19.5z" />
    <glyph glyph-name="cent" unicode="&#xa2;" horiz-adv-x="980" 
d="M302 -218h-101q-11 0 -16.5 7t-2.5 18l59 206q-136 64 -209 191q-68 139 -68 332q0 263 129 413q129 151 368 151h50q15 -5 33 -7l39 140q6 15 18 15h101q11 0 16.5 -7t2.5 -18l-46 -161q105 -33 181 -132q60 -96 76 -244q1 -9 -5 -15t-15 -6h-260q-18 0 -20 16
q-9 55 -21 77l1 -3q-11 17 -22 29l-151 -543h22q78 0 119 41q38 38 56 134q5 15 20 15h260q9 0 14.5 -5.5t4.5 -14.5q-12 -203 -142 -321h1q-122 -113 -333 -113h-50q-20 0 -41 4q-5 -20 -23 -84.5t-27 -99.5q-6 -15 -18 -15zM328 302l148 538h-19q-92 0 -135 -73
q-51 -83 -51 -234q0 -86 21 -151q9 -38 36 -80z" />
    <glyph glyph-name="cent" unicode="&#xab;" horiz-adv-x="980" 
d="M302 -218h-101q-11 0 -16.5 7t-2.5 18l59 206q-136 64 -209 191q-68 139 -68 332q0 263 129 413q129 151 368 151h50q15 -5 33 -7l39 140q6 15 18 15h101q11 0 16.5 -7t2.5 -18l-46 -161q105 -33 181 -132q60 -96 76 -244q1 -9 -5 -15t-15 -6h-260q-18 0 -20 16
q-9 55 -21 77l1 -3q-11 17 -22 29l-151 -543h22q78 0 119 41q38 38 56 134q5 15 20 15h260q9 0 14.5 -5.5t4.5 -14.5q-12 -203 -142 -321h1q-122 -113 -333 -113h-50q-20 0 -41 4q-5 -20 -23 -84.5t-27 -99.5q-6 -15 -18 -15zM328 302l148 538h-19q-92 0 -135 -73
q-51 -83 -51 -234q0 -86 21 -151q9 -38 36 -80z" />
    <glyph glyph-name="sterling" unicode="&#xa3;" horiz-adv-x="1112" 
d="M158 416h-151q-19 0 -19 19v171q0 8 5.5 14t13.5 6h172l-15 58h-157q-8 0 -13.5 6t-5.5 14v171q0 19 19 19h101q-11 55 -11 117q0 178 131 294q134 110 331 110q169 0 296 -93q123 -97 148 -281q1 -8 -4.5 -15t-13.5 -8l-139 -19q-12 -3 -39 -3q-61 0 -88 36
q-27 33 -34 53q-43 85 -137 85q-81 0 -112 -46q-44 -50 -44 -109q0 -51 19 -121h172q22 0 80 -8q71 -11 71 -120v-62q0 -8 -5.5 -14t-13.5 -6h-248q3 -8 5 -22q2 -9 3.5 -16t2.5 -10t1.5 -5t0.5 -3v-2h153q42 0 70 -37q27 -33 27 -75l4 -78q0 -8 -5.5 -14t-13.5 -6h-259
q-22 -52 -78 -123q33 6 73 6q57 0 195 -36l-1 1q77 -15 97 -15q70 0 187 52q7 3 14.5 0.5t10.5 -9.5l101 -222q8 -17 -9 -25q-118 -57 -269 -61q-88 0 -226 36q-158 38 -209 38q-111 0 -223 -75q-8 -5 -16 -2t-12 11l-101 222q-7 13 7 23q119 83 161 179z" />
    <glyph glyph-name="section" unicode="&#xa7;" horiz-adv-x="736" 
d="M633 1131l-92 -12q-40 -6 -60 -6q-81 0 -93 61q-11 47 -61 47q-38 0 -62 -24q-11 -11 -11 -27q0 -28 25 -52q16 -16 145 -103q129 -86 161 -118q55 -50 93 -111q30 -67 30 -121q0 -80 -38 -138l1 1q-30 -59 -81 -97q36 -42 50 -77v2q26 -47 26 -107q0 -114 -89 -194
q-80 -74 -234 -74q-159 0 -239 74l2 -1q-91 67 -109 204q-1 8 4.5 14.5t13.5 7.5l58 8q10 2 44 2q49 0 69 -16q38 -33 42 -37l42 -37q32 -29 77 -29q39 0 63 24q18 12 18 42q0 32 -17 49q-23 21 -188 129q-159 107 -211 175q-50 80 -50 176q0 61 28 139q29 56 86 97
q-19 22 -39 67q-21 35 -21 93q0 106 81 178h-1q79 75 224 75q143 0 230 -75q79 -72 100 -187q2 -8 -3.5 -14.5t-13.5 -7.5zM260 680l190 -131q25 27 32 40q13 13 13 41q0 21 -12 40q-36 36 -86 72l-180 137q-9 -6 -26 -28q-15 -23 -15 -46q0 -68 84 -125z" />
    <glyph glyph-name="dieresis" unicode="&#xa8;" horiz-adv-x="688" 
d="M487 1415h155q8 0 14 -6t6 -14v-221q0 -120 -68 -200q-74 -78 -198 -96q-9 -1 -15.5 5t-6.5 15v47q0 41 68 82q26 19 38 31l-1 -1q23 30 31 74q0 16 -23 16h-90q-19 0 -19 19v144q0 105 109 105zM102 1415h151q8 0 14 -6t6 -14v-221q0 -129 -68 -200h1q-75 -78 -198 -96
q-9 -1 -16 5t-7 15v47q0 43 72 82l-1 -1q23 16 38 31q20 37 27 77q3 13 -23 13h-89q-8 0 -14 5.5t-6 13.5v144q0 105 113 105z" />
    <glyph glyph-name="copyright" unicode="&#xa9;" horiz-adv-x="480" 
d="M225 1345q-29 0 -64 -11l4 1q-38 -20 -56 -40q-14 -13 -30 -39l1 1q-1 -3 -8 -12q-14 -42 -14 -67q0 -16 14 -63l-1 1q14 -35 39 -53q17 -23 53 -39q24 -9 62 -9q40 0 63 8q2 2 16 10v-1q29 19 38 30q20 18 40 56l-1 -4q11 35 11 64q0 39 -14 65q-14 32 -35 53
q-4 5 -26 19t-29 21q-30 9 -63 9zM287 1158h51q19 0 19 -19q0 -55 -44 -87q-35 -30 -88 -30q-68 0 -105 43q-35 41 -35 113q0 68 35 112q42 43 109 43q55 0 90 -32q38 -36 38 -80q0 -8 -5.5 -14t-13.5 -6h-32q-6 0 -9 1q-11 -32 -45 40q-16 6 -23 6q-29 0 -39 -15
q-12 -18 -12 -55q0 -40 9 -52q13 -18 42 -18q13 0 27 8q5 7 13 28q2 14 18 14zM225 1423q43 0 93 -21h-3q32 -8 84 -52q41 -58 50 -78q21 -50 21 -94t-21 -92q-9 -26 -51 -77q-49 -41 -83 -56q-57 -16 -90 -16q-42 0 -89 16q-49 20 -80 56q-36 31 -56 80l1 -1q-17 42 -17 90
q0 54 16 93q19 43 56 80q36 36 78 55q55 17 91 17z" />
    <glyph glyph-name="ordfeminine" unicode="&#xaa;" horiz-adv-x="436" 
d="M263 1102l11 5l-1 -1l16 7l-26 18v-29zM263 1084v18q-30 -14 -52 -14q-31 -6 -33 -7l-11 -3q-25 -6 -38 -19l2 3q-12 -18 -12 -32q0 -19 14 -33l-3 2q18 -12 36 -12q46 0 72 26q25 25 25 71zM426 1252v-171q0 -169 -108 -204q-98 -30 -168 -30q-81 0 -134 41
q-56 42 -56 138q0 91 54 130q47 34 125 49q18 8 55 8q65 11 65 31q0 12 -16 18q-27 9 -46 9q-52 0 -59 -25q-5 -14 -19 -14h-124q-9 0 -15 6.5t-4 15.5q6 62 52 108q59 53 161 53q116 0 171 -43l-2 1q68 -41 68 -121z" />
    <glyph glyph-name="Eacute" unicode="&#xad;" horiz-adv-x="1048" 
d="M979 0h-972q-19 0 -19 19v1198q0 66 46 112q47 47 113 47h832q19 0 19 -19v-230q0 -19 -19 -19h-680v-249h501q19 0 19 -19v-90q0 -67 -46 -113t-113 -46h-361v-303h680q8 0 13.5 -6t5.5 -14v-249q0 -19 -19 -19zM637 1714h175q14 0 18.5 -11.5t-5.5 -21.5l-237 -245
q-6 -6 -13 -6h-129q-12 0 -17.5 9.5t0.5 20.5l104 189q40 65 104 65z" />
    <glyph glyph-name="Eacute" unicode="&#xc9;" horiz-adv-x="1048" 
d="M979 0h-972q-19 0 -19 19v1198q0 66 46 112q47 47 113 47h832q19 0 19 -19v-230q0 -19 -19 -19h-680v-249h501q19 0 19 -19v-90q0 -67 -46 -113t-113 -46h-361v-303h680q8 0 13.5 -6t5.5 -14v-249q0 -19 -19 -19zM637 1714h175q14 0 18.5 -11.5t-5.5 -21.5l-237 -245
q-6 -6 -13 -6h-129q-12 0 -17.5 9.5t0.5 20.5l104 189q40 65 104 65z" />
    <glyph glyph-name="registered" unicode="&#xae;" horiz-adv-x="480" 
d="M225 1423q51 0 94 -22q45 -22 78 -53q40 -37 52 -79v2q21 -49 21 -93q0 -46 -22 -94q-20 -45 -50 -75q-36 -36 -75 -54q-65 -18 -98 -18q-43 0 -93 21v-1q-40 16 -80 52q-38 45 -52 79h1q-17 42 -17 90q0 23 7 63q7 28 26 62q30 58 88 86q57 34 120 34zM339 1081
q1 0 2 -1q-1 1 -2 1zM182 1042h-50q-8 0 -14 5.5t-6 13.5v222q0 42 47 42h93q48 0 71 -20q26 -24 26 -69q0 -33 -12 -48l-5 -8q-1 0 -3 -1l5 -5q11 -25 11 -47v-48q11 -6 8.5 -21.5t-15.5 -15.5h-59q-13 0 -18 12l-3 8q-2 14 -2 15v41l-7 19q-6 2 -13 2h-35v-78
q0 -19 -19 -19zM201 1248v-27h43q13 0 15 2q1 1 1 9v8q-8 8 -16 8h-43zM225 1345q-31 0 -60 -9q-7 -5 -28 -17q-3 -3 -13 -9t-14 -10q-22 -22 -39 -57l1 2q-14 -47 -14 -67q0 -21 14 -63q8 -18 34 -52q23 -23 56 -39q32 -9 63 -9q35 0 61 9q38 18 57 39q27 27 34 52
q15 29 15 63q0 37 -10 61q-16 36 -39 57q-16 18 -52 39q-30 10 -66 10z" />
    <glyph glyph-name="plusminus" unicode="&#xb1;" horiz-adv-x="792" 
d="M262 746h-257q-8 0 -13.5 6t-5.5 14v66q0 29 22 61q25 36 83 36h171v229q0 8 5.5 14t13.5 6h94q105 0 105 -105v-144h260q19 0 19 -19v-144q0 -8 -5.5 -14t-13.5 -6h-260v-229q0 -8 -6 -13.5t-14 -5.5h-179q-19 0 -19 19v229zM740 214h-735q-19 0 -19 19v62
q0 105 105 105h649q19 0 19 -19v-148q0 -19 -19 -19z" />
    <glyph glyph-name="twosuperior" unicode="&#xb2;" horiz-adv-x="344" 
d="M317 933h-315q-19 0 -19 19q0 63 34 119h-1q21 34 89 87q5 0 16 8l11 9q76 49 76 81q0 22 -9 33q-11 9 -37 9q-27 0 -34 -10q-17 -26 -17 -48v-4q0 -19 -19 -19h-47q-62 0 -51 65q14 52 45 84q49 49 130 49q70 0 122 -44q49 -45 49 -115q0 -48 -26 -89q-21 -33 -87 -80v1
q-10 -6 -29.5 -18.5t-28.5 -17.5q-3 -3 -4 -3h152q8 0 14 -5.5t6 -13.5v-78q0 -8 -6 -13.5t-14 -5.5z" />
    <glyph glyph-name="threesuperior" unicode="&#xb3;" horiz-adv-x="348" 
d="M-13 1088v4q0 8 5.5 14t13.5 6h86q8 0 13.5 -6t5.5 -14q0 -34 10 -44q14 -10 41 -10t38 11q12 6 12 35q0 24 -10 34q-22 13 -56 13h-11q-8 0 -14 6t-6 14v58q0 8 6 13.5t14 5.5h7q35 0 45 10q14 14 14 33q0 16 -10 25q-10 10 -29 10q-22 0 -35 -16q-8 -5 -8 -31v-3
q0 -8 -5.5 -14t-13.5 -6h-47q-59 0 -51 69q4 36 37 69q47 41 127 41q66 0 116 -39q47 -39 47 -101q0 -33 -15 -61l-8 -8t-8 -8.5t-6 -5.5q12 -7 33 -30q19 -29 19 -74q0 -79 -50 -120q-58 -43 -132 -43q-82 0 -129 43q-46 38 -46 120z" />
    <glyph glyph-name="acute" unicode="&#xb4;" horiz-adv-x="392" 
d="M193 1415h175q14 0 18.5 -12t-4.5 -21l-237 -245q-6 -6 -14 -6h-128q-12 0 -18 9.5t0 19.5l104 190q13 17 22 27.5t32.5 24t49.5 13.5z" />
    <glyph glyph-name="mu" unicode="&#xb5;" horiz-adv-x="916" 
d="M725 1003h132q8 0 14 -6t6 -14v-563q0 -271 -146 -357q-139 -82 -306 -82q-92 5 -147 14v-220q0 -59 -42 -102q-44 -42 -98 -42h-132q-19 0 -19 19v1333q0 8 5.5 14t13.5 6h253q8 0 13.5 -6t5.5 -14v-614q0 -79 47 -114q49 -37 109 -37q57 0 103 37q44 35 44 114v494
q0 54 43 97t101 43z" />
    <glyph glyph-name="ordmasculine" unicode="&#xba;" horiz-adv-x="472" 
d="M37 907l-2 1q-75 80 -75 227q0 129 63 199l-1 -1q50 64 137 76q26 3 53 3q57 0 98 -14q85 -35 119 -111v1q33 -68 33 -157q0 -123 -51 -190q-49 -67 -128 -85h2q-37 -12 -77 -12q-37 0 -60 8q-75 20 -111 55zM158 1243q-38 -41 -34 -119q3 -78 31 -106q18 -23 83 -21
q57 1 57 134q0 123 -57 126q-67 5 -80 -14z" />
    <glyph glyph-name="divide" unicode="&#xbb;" horiz-adv-x="948" 
d="M885 575h-879q-8 0 -13.5 6t-5.5 14v93q0 105 105 105h793q19 0 19 -19v-179q0 -8 -5.5 -14t-13.5 -6zM446 540q143 0 143 -144q0 -62 -42 -104q-43 -43 -101 -43q-63 0 -105 43q-43 42 -43 104q0 59 43 102q42 42 105 42zM446 1119q58 0 102 -44q41 -44 41 -103
t-42 -101q-44 -43 -101 -43q-62 0 -105 43q-43 42 -43 101q0 60 42 103q41 44 106 44z" />
    <glyph glyph-name="divide" unicode="&#xf7;" horiz-adv-x="948" 
d="M885 575h-879q-8 0 -13.5 6t-5.5 14v93q0 105 105 105h793q19 0 19 -19v-179q0 -8 -5.5 -14t-13.5 -6zM446 540q143 0 143 -144q0 -62 -42 -104q-43 -43 -101 -43q-63 0 -105 43q-43 42 -43 104q0 59 43 102q42 42 105 42zM446 1119q58 0 102 -44q41 -44 41 -103
t-42 -101q-44 -43 -101 -43q-62 0 -105 43q-43 42 -43 101q0 60 42 103q41 44 106 44z" />
    <glyph glyph-name="onequarter" unicode="&#xbc;" horiz-adv-x="832" 
d="M239 513h-105q-8 0 -14 6t-6 14v330h-77q-8 0 -14 5.5t-6 13.5v74q0 8 6 14t14 6q32 0 60.5 21.5t41.5 61.5q6 14 18 14h27q74 0 74 -74v-466q0 -8 -5.5 -14t-13.5 -6zM717 0h-105q-19 0 -19 19v98h-206q-8 0 -14 5.5t-6 13.5v99l197 316q7 9 17 9h82q73 0 73 -74v-245
h43q8 0 14 -5.5t6 -13.5v-86q0 -8 -6 -13.5t-14 -5.5h-43v-98q0 -19 -19 -19zM114 0h-108q-13 0 -18 9.5t1 19.5l575 991l-1 -1q18 36 44 45t71 9h35q12 0 17.5 -9.5t-0.5 -19.5l-599 -1034q-6 -10 -17 -10zM504 237h89v142z" />
    <glyph glyph-name="onehalf" unicode="&#xbd;" horiz-adv-x="824" 
d="M767 0h-377q-19 0 -19 19q0 77 42 139l-1 -1q20 41 99 100q16 12 37 25q95 61 95 99q0 25 -18 40q-15 18 -40 18q-33 0 -46 -18q-20 -20 -20 -60v-7q0 -8 -6 -14t-14 -6h-54q-72 0 -59 82q7 48 54 101q54 51 149 51q87 0 144 -52q58 -55 58 -135q0 -67 -32 -102l3 3
q-25 -45 -104 -96q-24 -19 -67 -45l-15 -9h191q8 0 14 -5.5t6 -13.5v-94q0 -8 -6 -13.5t-14 -5.5zM114 0h-108q-13 0 -18 9.5t1 19.5l575 991l-1 -1q18 36 44 45t71 9h35q12 0 17.5 -9.5t-0.5 -19.5l-599 -1034q-6 -10 -17 -10zM239 513h-105q-8 0 -14 6t-6 14v330h-77
q-8 0 -14 5.5t-6 13.5v74q0 8 6 14t14 6q32 0 60.5 21.5t41.5 61.5q6 14 18 14h27q74 0 74 -74v-466q0 -8 -5.5 -14t-13.5 -6z" />
    <glyph glyph-name="threequarters" unicode="&#xbe;" horiz-adv-x="952" 
d="M224 0h-105q-12 0 -17 9.5t1 19.5l571 991q22 35 48 44t70 9h31q12 0 17 -9.5t-1 -19.5l-598 -1034q-6 -10 -17 -10zM827 0h-101q-8 0 -14 5.5t-6 13.5v98h-206q-19 0 -19 19v99l197 316q7 9 16 9h78q74 0 74 -74v-245h43q19 0 19 -19v-86q0 -19 -19 -19h-43v-98
q0 -19 -19 -19zM618 237h88v142q-35 -58 -88 -142zM6 707h101q8 0 14 -5.5t6 -13.5q0 -35 17 -52l-1 1q22 -15 50 -15q35 0 49 14q17 17 17 44q0 28 -18 42q-18 18 -61 20q-6 -3 -10 -3h-8q-8 0 -14 5.5t-6 13.5v74q0 8 6 13.5t14 5.5h12q36 0 52 10q18 18 18 41t-14 37
q-9 9 -37 9q-33 0 -40 -12q-14 -14 -14 -46v-4q0 -8 -6 -13.5t-14 -5.5h-54q-80 0 -58 79q14 48 44 78q53 49 146 49q81 0 139 -43q55 -49 55 -120q0 -48 -19 -70q-10 -17 -27 -32q23 -13 38 -38q28 -38 28 -86q0 -86 -64 -141q-61 -45 -154 -45q-94 0 -152 46
q-54 54 -54 144q0 19 19 19z" />
    <glyph glyph-name="questiondown" unicode="&#xbf;" horiz-adv-x="936" 
d="M298 1026h245q19 0 19 -19v-36q-5 -83 43 -127q25 -23 113 -98q65 -53 118 -122q56 -74 56 -208q0 -170 -97 -270q-99 -99 -229 -130q-73 -13 -139 -13q-65 0 -128 11q-139 24 -224 107q-49 43 -80.5 107.5t-31.5 129.5q0 118 86 126q69 6 175 6q19 0 19 -19
q4 -105 51 -152q40 -51 122 -51q23 0 48 4q114 16 114 159q0 63 -36 104q-31 36 -97 91q-122 96 -144 173q-23 73 -23 208q0 8 6 13.5t14 5.5zM558 1108h-171q-117 0 -117 116v171q0 8 6 14t14 6h268q8 0 14 -6t6 -14v-268q0 -8 -6 -13.5t-14 -5.5z" />
    <glyph glyph-name="Agrave" unicode="&#xc0;" horiz-adv-x="1380" 
d="M585 1376h217q13 0 19 -13l486 -1337q3 -10 -2.5 -18t-16.5 -8h-291q-13 0 -19 14l-85 262h-492l-82 -262q-6 -14 -18 -14h-292q-11 0 -16.5 8t-1.5 18l443 1248q39 102 151 102zM618 1436l-234 245q-9 11 -4.5 22t18.5 11h171q78 0 100 -58l108 -196q6 -11 0 -20.5
t-18 -9.5h-128q-7 0 -13 6zM806 540l-159 487l-160 -487h319z" />
    <glyph glyph-name="Aacute" unicode="&#xc1;" horiz-adv-x="1380" 
d="M585 1376h217q13 0 19 -13l486 -1337q3 -10 -2.5 -18t-16.5 -8h-291q-13 0 -19 14l-85 262h-492l-82 -262q-6 -14 -18 -14h-292q-11 0 -16.5 8t-1.5 18l443 1248q39 102 151 102zM779 1714h175q14 0 18.5 -11.5t-5.5 -21.5l-237 -245q-6 -6 -13 -6h-129q-12 0 -17.5 9.5
t0.5 20.5l109 198q20 56 99 56zM806 540l-159 487l-160 -487h319z" />
    <glyph glyph-name="Acircumflex" unicode="&#xc2;" horiz-adv-x="1380" 
d="M585 1376h217q13 0 19 -13l486 -1337q3 -10 -2.5 -18t-16.5 -8h-291q-13 0 -19 14l-85 262h-492l-82 -262q-6 -14 -18 -14h-292q-11 0 -16.5 8t-1.5 18l443 1248q39 102 151 102zM806 540l-159 487l-160 -487h319zM813 1610l124 -148q9 -10 4 -21t-18 -11h-160
q-7 0 -14 7l-102 116l-68 -74q-29 -29 -49 -39t-58 -10h-93q-14 0 -19 11t4 21l124 148l-1 -1q71 90 164 90q89 0 163 -89h-1z" />
    <glyph glyph-name="Atilde" unicode="&#xc3;" horiz-adv-x="1380" 
d="M806 540l-159 487l-160 -487h319zM585 1376h217q13 0 19 -13l486 -1337q3 -10 -2.5 -18t-16.5 -8h-291q-13 0 -19 14l-85 262h-492l-82 -262q-6 -14 -18 -14h-292q-11 0 -16.5 8t-1.5 18l443 1248q39 102 151 102zM386 1450v105q0 69 75 108q20 7 50 7q35 0 68 -11
q63 -21 115 -41q46 -19 104 -24q45 -4 79 40q9 11 21.5 6t12.5 -19q0 -73 -6 -119q-7 -61 -83 -75l1 1q-19 -5 -42 -5q-45 0 -84 16h1q-44 18 -111 41q-51 16 -99 15q-40 -2 -65 -54q-6 -14 -21.5 -10.5t-15.5 19.5z" />
    <glyph glyph-name="Adieresis" unicode="&#xc4;" horiz-adv-x="1380" 
d="M806 540l-159 487l-160 -487h319zM585 1376h217q13 0 19 -13l486 -1337q3 -10 -2.5 -18t-16.5 -8h-291q-13 0 -19 14l-85 262h-492l-82 -262q-6 -14 -18 -14h-292q-11 0 -16.5 8t-1.5 18l443 1248q39 102 151 102zM931 1563v-113q0 -8 -6 -14t-14 -6h-175q-8 0 -13.5 6
t-5.5 14v179q0 19 19 19h113q82 0 82 -85zM581 1563v-113q0 -8 -6 -14t-14 -6h-179q-8 0 -13.5 6t-5.5 14v179q0 19 19 19h113q86 0 86 -85z" />
    <glyph glyph-name="Aring" unicode="&#xc5;" horiz-adv-x="1384" 
d="M592 1372h218q13 0 19 -13l482 -1333q3 -10 -2.5 -18t-16.5 -8h-288q-12 0 -18 13l-88 255h-489q-14 -42 -43 -127t-43 -127q-6 -14 -18 -14h-288q-11 0 -16.5 8t-1.5 18l443 1244q19 47 58.5 74.5t91.5 27.5zM655 1473q23 0 40 18l-2 -1q16 19 16 45q0 17 -16 44
q-17 15 -38 15q-23 0 -38 -15q-17 -23 -17 -44q0 -26 16 -45l-2 1q17 -18 41 -18zM818 1535q0 -32 -14 -63v1q-18 -41 -37 -54q-26 -27 -52 -34h1q-30 -13 -61 -13q-20 0 -56 10q-44 25 -46 27q-28 13 -48 56q-14 36 -14 70q0 33 13 63q19 34 36 48q14 17 52 35h-1
q31 14 64 14q31 0 61 -13q36 -19 51 -34q18 -14 38 -51q13 -30 13 -62zM810 533l-159 487l-157 -487h316z" />
    <glyph glyph-name="AE" unicode="&#xc6;" horiz-adv-x="2144" 
d="M2001 0h-1003q-8 0 -14 5.5t-6 13.5v257h-486l-173 -267q-7 -9 -17 -9h-288q-12 0 -17.5 10t2.5 20l851 1244l-1 -1q25 43 78 72q56 27 98 27h941q19 0 19 -19v-234q0 -19 -19 -19h-677v-245h502q19 0 19 -19v-87q-5 -67 -50 -112q-46 -46 -113 -46h-358v-307h712
q8 0 13.5 -6t5.5 -14v-245q0 -19 -19 -19zM978 536v482q-24 -37 -137.5 -210.5t-176.5 -271.5h314z" />
    <glyph glyph-name="Ccedilla" unicode="&#xc7;" horiz-adv-x="1288" 
d="M934 501h268q8 0 14 -6t5 -15q-18 -240 -181 -379q-165 -132 -433 -132q-304 0 -477 189q-164 185 -164 530q0 353 168 538q177 189 496 189q263 0 421 -133q153 -134 170 -363q1 -8 -5 -14.5t-14 -6.5h-167q-105 0 -150 92v-1q-22 45 -60 84q-73 54 -195 54
q-169 0 -261 -110l1 1q-89 -113 -89 -330q0 -210 89 -323q82 -112 253 -112q118 0 194 58q69 53 98 176q5 14 19 14zM312 -260v128q0 74 82 108q26 10 61 10q31 0 62 -10q95 -31 124 -41q51 -19 114 -24q46 -4 82 36q10 10 22 5.5t12 -18.5q0 -63 -5 -128q-7 -69 -101 -91
q-51 -7 -118 18q-11 4 -55 19.5t-67 23.5q-59 18 -104 14q-43 -5 -72 -59q-7 -14 -22 -10.5t-15 19.5z" />
    <glyph glyph-name="Egrave" unicode="&#xc8;" horiz-adv-x="1048" 
d="M979 0h-972q-19 0 -19 19v1198q0 66 46 112q47 47 113 47h832q19 0 19 -19v-230q0 -19 -19 -19h-680v-249h501q19 0 19 -19v-90q0 -67 -46 -113t-113 -46h-361v-303h680q8 0 13.5 -6t5.5 -14v-249q0 -19 -19 -19zM479 1436l-237 245q-9 10 -4.5 21.5t18.5 11.5h175
q51 0 90 -46h-1l10 -10l109 -198q5 -11 -0.5 -20.5t-17.5 -9.5h-128q-8 0 -14 6z" />
    <glyph glyph-name="Ecircumflex" unicode="&#xca;" horiz-adv-x="1048" 
d="M979 0h-972q-19 0 -19 19v1198q0 66 46 112q47 47 113 47h832q19 0 19 -19v-230q0 -19 -19 -19h-680v-249h501q19 0 19 -19v-90q0 -67 -46 -113t-113 -46h-361v-303h680q8 0 13.5 -6t5.5 -14v-249q0 -19 -19 -19zM690 1610l125 -148q9 -10 4 -21t-19 -11h-155q-8 0 -15 7
l-106 116l-64 -74q-28 -28 -50.5 -38.5t-60.5 -10.5h-93q-14 0 -19 11t4 21l125 148l-1 -1q69 90 167 90q88 0 159 -89h-1z" />
    <glyph glyph-name="Edieresis" unicode="&#xcb;" horiz-adv-x="1048" 
d="M979 0h-972q-19 0 -19 19v1198q0 66 46 112q47 47 113 47h832q19 0 19 -19v-230q0 -19 -19 -19h-680v-249h501q19 0 19 -19v-90q0 -67 -46 -113t-113 -46h-361v-303h680q8 0 13.5 -6t5.5 -14v-249q0 -19 -19 -19zM777 1563v-113q0 -8 -6 -14t-14 -6h-175q-8 0 -13.5 6
t-5.5 14v179q0 19 19 19h109q86 0 86 -85zM423 1563v-113q0 -8 -5.5 -14t-13.5 -6h-175q-8 0 -14 6t-6 14v179q0 8 6 13.5t14 5.5h108q86 0 86 -85z" />
    <glyph glyph-name="Igrave" unicode="&#xcc;" horiz-adv-x="296" 
d="M277 0h-276q-19 0 -19 19v1198q0 66 46 112q47 47 113 47h136q19 0 19 -19v-1338q0 -19 -19 -19zM81 1436l-234 245q-9 11 -4.5 22t18.5 11h171q51 0 88 -46l11 -10l109 -198q6 -11 0 -20.5t-17 -9.5h-129q-7 0 -13 6z" />
    <glyph glyph-name="Iacute" unicode="&#xcd;" horiz-adv-x="472" 
d="M279 0h-276q-19 0 -19 19v1198q0 66 46 112q47 47 113 47h136q8 0 14 -5.5t6 -13.5v-1338q0 -8 -6 -13.5t-14 -5.5zM271 1714h171q14 0 19 -11t-5 -22l-233 -245q-6 -6 -14 -6h-128q-12 0 -17.5 9.5t-0.5 20.5l109 198q20 56 99 56z" />
    <glyph glyph-name="Icircumflex" unicode="&#xce;" horiz-adv-x="440" 
d="M278 0h-276q-19 0 -19 19v1198q0 66 46 112q47 47 113 47h136q19 0 19 -19v-1338q0 -19 -19 -19zM304 1610l121 -148q9 -10 4 -21t-19 -11h-155q-8 0 -15 7l-102 116l-68 -74q-49 -49 -107 -49h-89q-14 0 -19 11t4 21l125 148l-1 -1q65 90 159 90q87 0 162 -89z" />
    <glyph glyph-name="Idieresis" unicode="&#xcf;" horiz-adv-x="480" 
d="M321 0h-276q-19 0 -19 19v1198q0 65 47 112t112 47h136q8 0 14 -5.5t6 -13.5v-1338q0 -8 -6 -13.5t-14 -5.5zM469 1563v-113q0 -8 -5.5 -14t-13.5 -6h-179q-8 0 -14 6t-6 14v179q0 8 6 13.5t14 5.5h113q85 0 85 -85zM115 1563v-113q0 -8 -5.5 -14t-13.5 -6h-175
q-8 0 -13.5 6t-5.5 14v179q0 19 19 19h109q85 0 85 -85z" />
    <glyph glyph-name="Eth" unicode="&#xd0;" horiz-adv-x="1516" 
d="M729 0h-447q-19 0 -19 19v560h-253q-8 0 -13.5 6t-5.5 14v175q0 19 19 19h253v420q0 62 46 111q48 48 113 48h381q317 0 473 -174v1q157 -169 157 -515q0 -182 -60 -330l1 1q-55 -143 -167 -231h1q-82 -66 -190 -96h1q-94 -28 -290 -28zM570 1100v-307h132
q136 0 136 -136v-58q0 -8 -5.5 -14t-13.5 -6h-249v-299h198q183 0 265 94q81 93 81 310q0 218 -78 319q-75 97 -233 97h-233z" />
    <glyph glyph-name="Eth" unicode="&#xdd;" horiz-adv-x="1516" 
d="M729 0h-447q-19 0 -19 19v560h-253q-8 0 -13.5 6t-5.5 14v175q0 19 19 19h253v420q0 62 46 111q48 48 113 48h381q317 0 473 -174v1q157 -169 157 -515q0 -182 -60 -330l1 1q-55 -143 -167 -231h1q-82 -66 -190 -96h1q-94 -28 -290 -28zM570 1100v-307h132
q136 0 136 -136v-58q0 -8 -5.5 -14t-13.5 -6h-249v-299h198q183 0 265 94q81 93 81 310q0 218 -78 319q-75 97 -233 97h-233z" />
    <glyph glyph-name="Ntilde" unicode="&#xd1;" horiz-adv-x="1192" 
d="M280 0h-272q-19 0 -19 19v1198q0 66 46 112q47 47 113 47h148q10 0 16 -10l508 -856v847q0 8 6 13.5t14 5.5h272q19 0 19 -19v-1338q0 -19 -19 -19h-284q-10 0 -16 10l-512 861v-852q0 -8 -6 -13.5t-14 -5.5zM327 1458v105q0 75 75 104q27 8 52 8q31 0 64 -10
q78 -24 117 -39q49 -20 104 -25q44 -3 78 40q9 11 22 6.5t13 -18.5q0 -73 -6 -119q-7 -61 -84 -76l1 1q-19 -5 -42 -5q-41 0 -83 17h1q-72 27 -112 41q-54 15 -98 14q-41 -2 -65 -53q-6 -14 -21.5 -10.5t-15.5 19.5z" />
    <glyph glyph-name="Ograve" unicode="&#xd2;" horiz-adv-x="1380" 
d="M281 688q0 -221 93 -329q92 -114 261 -114q167 0 261 114h-1q98 123 98 329q0 207 -98 334l1 -1q-94 114 -261 114q-169 0 -260 -114q-94 -115 -94 -333zM540 1436l-237 245q-10 10 -5.5 21.5t18.5 11.5h175q49 0 90 -46l8 -9l106 -200q6 -11 0.5 -20t-17.5 -9h-125
q-7 0 -13 6zM-34 688q0 330 176 530q191 197 493 197q298 0 492 -197q180 -201 180 -530t-180 -527q-186 -192 -492 -192q-311 0 -493 192q-176 194 -176 527z" />
    <glyph glyph-name="Oacute" unicode="&#xd3;" horiz-adv-x="1380" 
d="M281 688q0 -221 93 -329q92 -114 261 -114q167 0 261 114h-1q98 123 98 329q0 207 -98 334l1 -1q-94 114 -261 114q-169 0 -260 -114q-94 -115 -94 -333zM724 1714h171q14 0 19 -11.5t-5 -21.5l-237 -245q-6 -6 -14 -6h-124q-12 0 -17.5 9.5t-0.5 20.5l109 198
q20 56 99 56zM-34 688q0 330 176 530q191 197 493 197q298 0 492 -197q180 -201 180 -530t-180 -527q-186 -192 -492 -192q-311 0 -493 192q-176 194 -176 527z" />
    <glyph glyph-name="Ocircumflex" unicode="&#xd4;" horiz-adv-x="1380" 
d="M-34 688q0 330 176 530q191 197 493 197q298 0 492 -197q180 -201 180 -530t-180 -527q-186 -192 -492 -192q-311 0 -493 192q-176 194 -176 527zM797 1610l125 -148q9 -10 4 -21t-19 -11h-155q-8 0 -15 7l-106 116l-64 -74q-28 -28 -50.5 -38.5t-60.5 -10.5h-93
q-14 0 -19 11t4 21l125 148l-1 -1q69 90 167 90q88 0 159 -89h-1zM281 688q0 -221 93 -329q92 -114 261 -114q167 0 261 114h-1q98 123 98 329q0 207 -98 334l1 -1q-94 114 -261 114q-169 0 -260 -114q-94 -115 -94 -333z" />
    <glyph glyph-name="Otilde" unicode="&#xd5;" horiz-adv-x="1380" 
d="M-34 688q0 330 176 530q191 197 493 197q298 0 492 -197q180 -201 180 -530t-180 -527q-186 -192 -492 -192q-311 0 -493 192q-176 194 -176 527zM371 1450v105q0 71 83 110q20 5 45 5q36 0 68 -11q70 -23 116 -41q46 -19 104 -24q44 -5 78 40q9 11 21.5 6t12.5 -19
q0 -70 -8 -120q-9 -61 -81 -74l1 1q-19 -5 -42 -5q-43 0 -84 16h1q-74 30 -113 43q-57 18 -97 14q-40 -3 -69 -56q-8 -12 -22 -9t-14 19zM281 688q0 -221 93 -329q92 -114 261 -114q167 0 261 114h-1q98 123 98 329q0 207 -98 334l1 -1q-94 114 -261 114q-169 0 -260 -114
q-94 -115 -94 -333z" />
    <glyph glyph-name="Odieresis" unicode="&#xd6;" horiz-adv-x="1380" 
d="M-34 688q0 330 176 530q191 197 493 197q298 0 492 -197q180 -201 180 -530t-180 -527q-186 -192 -492 -192q-311 0 -493 192q-176 194 -176 527zM919 1563v-113q0 -8 -6 -14t-14 -6h-175q-8 0 -13.5 6t-5.5 14v179q0 19 19 19h109q86 0 86 -85zM565 1563v-113
q0 -8 -5.5 -14t-13.5 -6h-175q-8 0 -14 6t-6 14v179q0 8 6 13.5t14 5.5h108q86 0 86 -85zM281 688q0 -221 93 -329q92 -114 261 -114q167 0 261 114h-1q98 123 98 329q0 207 -98 334l1 -1q-94 114 -261 114q-169 0 -260 -114q-94 -115 -94 -333z" />
    <glyph glyph-name="Oslash" unicode="&#xd8;" horiz-adv-x="1388" 
d="M-34 688q0 330 176 530q191 197 493 197q249 0 417 -132l78 90q7 7 14 7h152q13 0 18 -11t-4 -21l-149 -174q146 -187 146 -486q0 -329 -180 -527q-186 -192 -492 -192q-255 0 -418 124l-77 -86q-7 -7 -14 -7h-148q-13 0 -18 10.5t3 21.5l145 171q-142 183 -142 485z
M949 933l-537 -613q86 -75 223 -75q167 0 261 114h-1q98 123 98 329q0 140 -44 245zM322 448l535 612q-84 75 -222 75q-169 0 -260 -114q-94 -115 -94 -333q0 -138 41 -240z" />
    <glyph glyph-name="Ugrave" unicode="&#xd9;" horiz-adv-x="1156" 
d="M148 1380h140q8 0 13.5 -6t5.5 -14v-835q0 -144 55 -218q59 -62 182 -62q124 0 184 64v-1q57 63 57 217v835q0 8 6 14t14 6h276q8 0 13.5 -6t5.5 -14v-866q0 -258 -146 -392v1q-134 -134 -410 -134q-273 0 -410 134v-1q-146 132 -146 392v727q0 60 47 110q46 49 113 49z
M511 1436l-237 245q-10 10 -5 21.5t19 11.5h175q21 0 40.5 -9t27 -15.5t22.5 -21.5h-1l10 -10l109 -198q5 -11 -0.5 -20.5t-17.5 -9.5h-128q-8 0 -14 6z" />
    <glyph glyph-name="Uacute" unicode="&#xda;" horiz-adv-x="1156" 
d="M148 1380h140q8 0 13.5 -6t5.5 -14v-835q0 -144 55 -218q59 -62 182 -62q124 0 184 64v-1q57 63 57 217v835q0 8 6 14t14 6h276q8 0 13.5 -6t5.5 -14v-866q0 -258 -146 -392v1q-134 -134 -410 -134q-273 0 -410 134v-1q-146 132 -146 392v719q0 65 46 115q46 52 114 52z
M630 1714h175q14 0 18.5 -11.5t-5.5 -21.5l-237 -245q-6 -6 -13 -6h-125q-12 0 -17.5 9t0.5 20l103 194q45 61 101 61z" />
    <glyph glyph-name="Ucircumflex" unicode="&#xdb;" horiz-adv-x="1156" 
d="M148 1380h140q8 0 13.5 -6t5.5 -14v-835q0 -144 55 -218q59 -62 182 -62q124 0 184 64v-1q57 63 57 217v835q0 8 6 14t14 6h276q8 0 13.5 -6t5.5 -14v-866q0 -258 -146 -392v1q-134 -134 -410 -134q-273 0 -410 134v-1q-146 132 -146 392v727q0 60 47 110q46 49 113 49z
M706 1610l125 -148q9 -10 4 -21t-19 -11h-155q-8 0 -15 7l-106 116l-68 -74q-29 -29 -49 -39t-58 -10h-93q-13 0 -18 11t4 21l124 148l-1 -1q70 90 163 90q91 0 163 -89h-1z" />
    <glyph glyph-name="Udieresis" unicode="&#xdc;" horiz-adv-x="1156" 
d="M148 1380h140q8 0 13.5 -6t5.5 -14v-835q0 -144 55 -218q59 -62 182 -62q124 0 184 64v-1q57 63 57 217v835q0 8 6 14t14 6h276q8 0 13.5 -6t5.5 -14v-866q0 -258 -146 -392v1q-134 -134 -410 -134q-273 0 -410 134v-1q-146 132 -146 392v727q0 60 47 110q46 49 113 49z
M474 1563v-113q0 -8 -5.5 -14t-13.5 -6h-175q-8 0 -14 6t-6 14v179q0 8 6 13.5t14 5.5h109q85 0 85 -85zM828 1563v-113q0 -8 -5.5 -14t-13.5 -6h-175q-8 0 -14 6t-6 14v179q0 8 6 13.5t14 5.5h108q86 0 86 -85z" />
    <glyph glyph-name="Thorn" unicode="&#xde;" horiz-adv-x="780" 
d="M219 292v-175q0 -100 -89 -109q-77 -8 -125 -8q-19 0 -19 19v1334q0 19 19 19q48 0 125 -8q89 -8 89 -108v-175q68 23 202 23q164 0 246 -136q81 -134 81 -284q0 -152 -81 -283q-82 -133 -246 -133q-131 0 -202 24zM367 886q-65 0 -109 -56q-47 -62 -47 -142
q0 -84 47 -143q45 -55 109 -55q62 0 108 55q47 58 47 143q0 84 -47 141t-108 57z" />
    <glyph glyph-name="germandbls" unicode="&#xdf;" horiz-adv-x="1180" 
d="M272 -166h-263q-19 0 -19 19v1090q5 195 143 329q139 135 333 135h170q209 0 322 -92h-1q116 -92 116 -263q0 -107 -46 -181q-35 -55 -91 -92q75 -41 125 -111q54 -77 54 -204q0 -208 -130 -313v1q-133 -109 -372 -109h-213q-19 0 -19 19v240q0 19 19 19h193
q108 0 155 35q46 33 46 116q0 81 -43 121l1 -1q-46 34 -159 34h-193q-8 0 -13.5 6t-5.5 14v228q0 19 19 19h182q92 0 135 31q42 28 42 93q0 64 -38 93l2 -1q-47 28 -141 28h-82q-111 0 -158 -66q-50 -71 -50 -139v-1079q0 -8 -6 -13.5t-14 -5.5z" />
    <glyph glyph-name="agrave" unicode="&#xe0;" horiz-adv-x="916" 
d="M583 441v66q-49 -22 -127 -39q-23 -5 -67 -14l-22 -5h1q-61 -16 -89 -42q-24 -36 -24 -74q0 -51 28 -79q29 -26 88 -26q100 0 156 56t56 157zM673 44q-84 -43 -179 -54q-92 -9 -162 -9q-146 0 -255 79q-112 81 -112 265q0 172 102 247q97 71 250 97q15 0 50 7q7 1 59 8
q153 24 153 82q0 44 -46 57q-54 16 -104 16q-113 0 -142 -62q-5 -11 -17 -11h-259q-9 0 -15 6.5t-4 15.5q16 124 115 209q112 93 310 93q222 0 335 -77q121 -82 121 -232v-352q0 -161 -59 -252q-58 -91 -141 -133zM388 1127l-236 244q-9 9 -4.5 21t18.5 12h170q63 0 103 -65
l104 -189q5 -10 -0.5 -19.5t-17.5 -9.5h-124q-7 0 -13 6z" />
    <glyph glyph-name="aacute" unicode="&#xe1;" horiz-adv-x="916" 
d="M517 1404h174q14 0 19 -12t-5 -21l-236 -244q-6 -6 -13 -6h-128q-11 0 -17 9.5t0 19.5l103 189q14 18 22.5 27.5t31.5 23.5t49 14zM583 441v66q-49 -22 -127 -39q-23 -5 -67 -14l-22 -5h1q-61 -16 -89 -42q-24 -36 -24 -74q0 -51 28 -79q29 -26 88 -26q100 0 156 56
t56 157zM673 44q-84 -43 -179 -54q-92 -9 -162 -9q-146 0 -255 79q-112 81 -112 265q0 172 102 247q97 71 250 97q15 0 50 7q7 1 59 8q153 24 153 82q0 44 -46 57q-54 16 -104 16q-113 0 -142 -62q-5 -11 -17 -11h-259q-9 0 -15 6.5t-4 15.5q16 124 115 209q112 93 310 93
q222 0 335 -77q121 -82 121 -232v-352q0 -161 -59 -252q-58 -91 -141 -133z" />
    <glyph glyph-name="acircumflex" unicode="&#xe2;" horiz-adv-x="916" 
d="M583 441v66q-49 -22 -127 -39q-23 -5 -67 -14l-22 -5h1q-61 -16 -89 -42q-24 -36 -24 -74q0 -51 28 -79q29 -26 88 -26q100 0 156 56t56 157zM673 44q-84 -43 -179 -54q-92 -9 -162 -9q-146 0 -255 79q-112 81 -112 265q0 172 102 247q97 71 250 97q15 0 50 7q7 1 59 8
q153 24 153 82q0 44 -46 57q-54 16 -104 16q-113 0 -142 -62q-5 -11 -17 -11h-259q-9 0 -15 6.5t-4 15.5q16 124 115 209q112 93 310 93q222 0 335 -77q121 -82 121 -232v-352q0 -161 -59 -252q-58 -91 -141 -133zM578 1300l124 -147q9 -10 4 -21t-18 -11h-159q-7 0 -14 7
l-103 112l-67 -70q-29 -29 -48.5 -39t-57.5 -10h-93q-13 0 -18 11t4 21l124 147l-1 -1q64 85 162 85q95 0 162 -84h-1z" />
    <glyph glyph-name="atilde" unicode="&#xe3;" horiz-adv-x="916" 
d="M583 441v66q-49 -22 -127 -39q-23 -5 -67 -14l-22 -5h1q-61 -16 -89 -42q-24 -36 -24 -74q0 -51 28 -79q29 -26 88 -26q100 0 156 56t56 157zM673 44q-84 -43 -179 -54q-92 -9 -162 -9q-146 0 -255 79q-112 81 -112 265q0 172 102 247q97 71 250 97q15 0 50 7q7 1 59 8
q153 24 153 82q0 44 -46 57q-54 16 -104 16q-113 0 -142 -62q-5 -11 -17 -11h-259q-9 0 -15 6.5t-4 15.5q16 124 115 209q112 93 310 93q222 0 335 -77q121 -82 121 -232v-352q0 -161 -59 -252q-58 -91 -141 -133zM154 1141v100q0 79 78 107q21 8 50 8t67 -11q40 -12 67 -23
h-1l48 -16q47 -17 105 -22q42 -5 73 38q9 12 22 7.5t13 -18.5q0 -76 -6 -121q-7 -58 -79 -73l1 1q-17 -4 -42 -4q-46 0 -83 16h1q-64 26 -113 41q-56 15 -99 14q-41 -2 -65 -53q-6 -14 -21.5 -10.5t-15.5 19.5z" />
    <glyph glyph-name="adieresis" unicode="&#xe4;" horiz-adv-x="916" 
d="M347 1249v-108q0 -8 -5.5 -14t-13.5 -6h-174q-8 0 -13.5 6t-5.5 14v174q0 19 19 19h108q85 0 85 -85zM699 1249v-108q0 -8 -5.5 -14t-13.5 -6h-174q-8 0 -13.5 6t-5.5 14v174q0 19 19 19h108q85 0 85 -85zM583 441v66q-49 -22 -127 -39q-23 -5 -67 -14l-22 -5h1
q-61 -16 -89 -42q-24 -36 -24 -74q0 -51 28 -79q29 -26 88 -26q100 0 156 56t56 157zM673 44q-84 -43 -179 -54q-92 -9 -162 -9q-146 0 -255 79q-112 81 -112 265q0 172 102 247q97 71 250 97q15 0 50 7q7 1 59 8q153 24 153 82q0 44 -46 57q-54 16 -104 16q-113 0 -142 -62
q-5 -11 -17 -11h-259q-9 0 -15 6.5t-4 15.5q16 124 115 209q112 93 310 93q222 0 335 -77q121 -82 121 -232v-352q0 -161 -59 -252q-58 -91 -141 -133z" />
    <glyph glyph-name="aring" unicode="&#xe5;" horiz-adv-x="916" 
d="M583 445v65q-36 -15 -110 -34q21 5 -10 10q-35 5 -97 5q14 -2 15 -18t-13 -20q-56 -15 -84.5 -42t-28.5 -75q0 -50 27 -77q42 -27 89 -27q100 0 156 56t56 157zM587 1272q0 -33 -13 -63v1q-19 -39 -37 -54q-30 -26 -50 -34q-33 -12 -62 -12q-22 0 -52 11q-28 5 -51 28
q-33 22 -43 54l3 -3q-20 28 -20 72q0 32 13 62q16 31 36 48q12 17 52 35q34 14 62 14q32 0 63 -14q33 -18 49 -33q16 -12 38 -51q12 -31 12 -61zM425 1210q23 0 40 18l-2 -1q16 19 16 45q0 21 -17 44q-17 14 -37 14q-21 0 -38 -14q-16 -23 -16 -44q0 -27 15 -45l-2 1
q18 -18 41 -18zM673 48q-109 -55 -269 -65q-34 -2 -52 -2q-124 0 -218 44q-169 88 -169 304q0 172 102 247q99 72 250 97q15 0 50 7q7 1 59 8q153 24 153 81q0 45 -46 57q-59 17 -104 17q-112 0 -142 -62q-5 -12 -17 -12h-259q-9 0 -15 7t-4 16q16 124 115 208
q113 94 310 94q222 0 335 -77q121 -82 121 -232v-352q0 -161 -59 -252q-59 -93 -141 -133z" />
    <glyph glyph-name="ae" unicode="&#xe6;" horiz-adv-x="1648" 
d="M589 429v66q-58 -25 -128 -39l1 1q-32 -8 -71 -16l-19 -4l1 1q-66 -19 -91 -46q-22 -21 -22 -71q0 -47 27 -70q32 -31 85 -31q103 0 156 56q61 61 61 153zM1258 348h263q10 0 15 -7.5t3 -16.5q-41 -158 -169 -254q-121 -89 -302 -89q-192 0 -321 113q-101 -76 -232 -94
q-133 -19 -228 -19q-156 0 -238 88q-79 82 -79 248t103 242q97 70 246 94q45 0 113 16q153 13 153 77q0 16 -5.5 23t-18.5 14l-12 8q-31 25 -119 25q-67 0 -113 -28q-18 -22 -24 -35q-7 -11 -17 -11h-259q-10 0 -16 7t-4 16q18 126 113 206q118 92 313 92q219 0 331 -76
q19 -13 21 -15q121 91 290 91q233 0 362 -142q125 -146 125 -403v-66q0 -8 -6 -13.5t-14 -5.5h-634q4 -95 50 -142q48 -55 132 -55q57 0 102 24l-1 -1q37 28 60 77q5 12 17 12zM899 642h343q-3 71 -45 119q-43 43 -129 43q-77 0 -120 -43q-41 -47 -49 -119z" />
    <glyph glyph-name="ccedilla" unicode="&#xe7;" horiz-adv-x="984" 
d="M723 356h193q11 0 16 -7.5t3 -16.5q-41 -163 -170 -259q-129 -92 -313 -92q-230 0 -358 149q-129 146 -129 411q0 250 125 400q134 149 358 149q241 0 375 -146q72 -88 104 -205q3 -9 -2.5 -16.5t-15.5 -7.5h-271q-13 0 -18 11q-16 35 -35 53q-45 48 -129 48
q-75 0 -125 -47q-64 -73 -64 -243q0 -171 64 -238q45 -55 137 -55q66 0 104 25q12 5 27 21l7 7q16 21 35 36q29 23 82 23zM213 -197v100q0 84 79 108h-1q23 10 56 10q31 0 61 -10q63 -21 115 -41q51 -20 102 -22q44 -2 80 37q9 11 21 6.5t12 -18.5q0 -66 -5 -118
q-7 -61 -84 -75l1 1q-19 -5 -41 -5q-44 0 -83 16h1q-69 28 -113 43q-58 17 -98 16q-37 -1 -67 -57q-4 -8 -12.5 -9.5t-16 3.5t-7.5 15z" />
    <glyph glyph-name="egrave" unicode="&#xe8;" horiz-adv-x="1000" 
d="M723 356h193q11 0 16 -7.5t3 -16.5q-41 -163 -169 -259q-129 -92 -314 -92q-230 0 -358 149q-129 146 -129 411q0 250 125 400q134 149 359 149q240 0 374 -146q128 -149 128 -410v-43q0 -24 -7 -37q-5 -9 -16 -9h-649q7 -97 53 -146q45 -55 136 -55q61 0 105 26
q13 4 27 21l-2 -3l6 6q8 15 36 39q29 23 83 23zM427 1127l-236 244q-9 9 -4.5 21t18.5 12h170q23 0 44 -9.5t27.5 -15.5t22.5 -22h-1l9 -9l105 -199q6 -10 0 -19t-17 -9h-124q-8 0 -14 6zM279 657h353q-11 84 -47 123v-1q-45 48 -129 48q-77 0 -125 -48q-44 -44 -52 -122z
" />
    <glyph glyph-name="eacute" unicode="&#xe9;" horiz-adv-x="1000" 
d="M723 356h193q11 0 16 -7.5t3 -16.5q-41 -163 -169 -259q-129 -92 -314 -92q-230 0 -358 149q-129 146 -129 411q0 250 125 400q134 149 359 149q240 0 374 -146q128 -149 128 -410v-43q0 -24 -7 -37q-5 -9 -16 -9h-649q7 -97 53 -146q45 -55 136 -55q61 0 105 26
q13 4 27 21l-2 -3l6 6q8 15 36 39q29 23 83 23zM557 1404h174q14 0 18.5 -12t-5.5 -21l-236 -244q-2 -6 -13 -6h-128q-11 0 -17 9.5t0 19.5l103 189q13 17 22 27.5t32.5 24t49.5 13.5zM279 657h353q-11 84 -47 123v-1q-45 48 -129 48q-77 0 -125 -48q-44 -44 -52 -122z" />
    <glyph glyph-name="ecircumflex" unicode="&#xea;" horiz-adv-x="1000" 
d="M723 356h193q11 0 16 -7.5t3 -16.5q-41 -163 -169 -259q-129 -92 -314 -92q-230 0 -358 149q-129 146 -129 411q0 250 125 400q134 149 359 149q240 0 374 -146q128 -149 128 -410v-43q0 -24 -7 -37q-5 -9 -16 -9h-649q7 -97 53 -146q45 -55 136 -55q61 0 105 26
q13 4 27 21l-2 -3l6 6q8 15 36 39q29 23 83 23zM618 1300l123 -147q9 -10 4 -21t-18 -11h-155q-8 0 -14 6l-107 113l-66 -70q-29 -29 -49 -39t-58 -10h-92q-14 0 -19 11t4 21l124 147l-1 -1q64 85 162 85q94 0 163 -84h-1zM279 657h353q-11 84 -47 123v-1q-45 48 -129 48
q-77 0 -125 -48q-44 -44 -52 -122z" />
    <glyph glyph-name="edieresis" unicode="&#xeb;" horiz-adv-x="1000" 
d="M723 356h193q11 0 16 -7.5t3 -16.5q-41 -163 -169 -259q-129 -92 -314 -92q-230 0 -358 149q-129 146 -129 411q0 250 125 400q134 149 359 149q240 0 374 -146q128 -149 128 -410v-43q0 -24 -7 -37q-5 -9 -16 -9h-649q7 -97 53 -146q45 -55 136 -55q61 0 105 26
q13 4 27 21l-2 -3l6 6q8 15 36 39q29 23 83 23zM739 1249v-108q0 -8 -6 -14t-14 -6h-174q-8 0 -13.5 6t-5.5 14v174q0 19 19 19h108q86 0 86 -85zM387 1249v-108q0 -8 -6 -14t-14 -6h-174q-8 0 -13.5 6t-5.5 14v174q0 19 19 19h109q85 0 85 -85zM279 657h353q-11 84 -47 123
v-1q-45 48 -129 48q-77 0 -125 -48q-44 -44 -52 -122z" />
    <glyph glyph-name="igrave" unicode="&#xec;" horiz-adv-x="364" 
d="M5 19v1029q0 19 19 19h140q62 0 106 -44t44 -107v-897q0 -19 -19 -19h-271q-19 0 -19 19zM65 1127l-228 240q-10 10 -5.5 21.5t18.5 11.5h167q57 0 103 -61l104 -189q5 -10 -0.5 -19.5t-17.5 -9.5h-127q-8 0 -14 6z" />
    <glyph glyph-name="iacute" unicode="&#xed;" horiz-adv-x="364" 
d="M8 19v1029q0 19 19 19h139q63 0 107 -44t44 -107v-897q0 -19 -19 -19h-271q-19 0 -19 19zM263 1400h174q14 0 18.5 -12t-4.5 -21l-236 -240q-6 -6 -14 -6h-124q-11 0 -17 9t0 19l102 194q43 57 101 57z" />
    <glyph glyph-name="icircumflex" unicode="&#xee;" horiz-adv-x="364" 
d="M7 19v1029q0 19 19 19h139q62 0 106 -44q45 -45 45 -107v-897q0 -19 -19 -19h-271q-19 0 -19 19zM327 1296l119 -143q9 -10 4 -21t-18 -11h-155q-8 0 -14 6l-106 112l-63 -73q-45 -45 -107 -45h-93q-13 0 -18 11t4 21l124 143l-1 -1q63 89 162 89q86 0 162 -88z" />
    <glyph glyph-name="idieresis" unicode="&#xef;" horiz-adv-x="364" 
d="M10 19v1029q0 8 6 13.5t14 5.5h135q62 0 106 -44q45 -45 45 -107v-897q0 -19 -19 -19h-267q-8 0 -14 5.5t-6 13.5zM96 1249v-108q0 -8 -6 -14t-14 -6h-174q-8 0 -13.5 6t-5.5 14v174q0 19 19 19h108q86 0 86 -85zM444 1249v-108q0 -8 -6 -14t-14 -6h-174q-8 0 -13.5 6
t-5.5 14v174q0 19 19 19h112q82 0 82 -85z" />
    <glyph glyph-name="ntilde" unicode="&#xf1;" horiz-adv-x="972" 
d="M197 1137v104q0 69 75 107q17 8 49 8q29 0 68 -11q51 -17 66 -23h-1l49 -16q46 -17 104 -22q43 -4 78 39q9 11 21.5 6.5t12.5 -18.5q0 -75 -6 -122q-6 -61 -83 -75l1 1q-19 -5 -41 -5q-44 0 -83 16q-52 21 -112 43q-54 18 -95 14q-42 -5 -66 -55q-6 -14 -21.5 -10.5
t-15.5 19.5zM924 623v-604q0 -19 -19 -19h-136q-66 0 -108 42t-42 109v526q0 83 -49 120q-53 38 -114 38q-62 0 -112 -38q-46 -37 -46 -120v-658q0 -8 -6 -13.5t-14 -5.5h-270q-8 0 -14 5.5t-6 13.5v604q0 273 146 368q147 93 314 99q175 0 323 -91q153 -94 153 -376z" />
    <glyph glyph-name="ograve" unicode="&#xf2;" horiz-adv-x="1000" 
d="M123 98q-86 74 -122 196t-36 251q0 105 30 214q31 107 95 182q103 117 271 144q46 6 99 6q110 0 196 -33q154 -60 228 -210q67 -133 67 -307q0 -223 -100 -379q-102 -133 -248 -162l1 1q-65 -20 -145 -20q-65 0 -121 13q-136 31 -215 104zM427 1127l-236 244
q-9 9 -4.5 21t18.5 12h174q22 0 41.5 -9.5t26 -15.5t22.5 -22h-1l9 -9l105 -199q6 -10 0 -19t-17 -9h-124q-8 0 -14 6zM412 819q-53 -17 -77 -39q-69 -75 -69 -223q0 -6 0.5 -15t0.5 -13q7 -172 61 -235q16 -23 73 -46q29 -10 57 -10q20 0 50 7h-1q55 17 95 79q44 65 48 214
q0 132 -42 198q-41 63 -92 81q-27 9 -56 9q-27 0 -48 -7z" />
    <glyph glyph-name="oacute" unicode="&#xf3;" horiz-adv-x="1000" 
d="M123 98q-86 74 -122 196t-36 251q0 105 30 214q31 107 95 182q103 117 271 144q46 6 99 6q110 0 196 -33q154 -60 228 -210q67 -133 67 -307q0 -223 -100 -379q-102 -133 -248 -162l1 1q-65 -20 -145 -20q-65 0 -121 13q-136 31 -215 104zM557 1404h174q14 0 18.5 -12
t-5.5 -21l-236 -244q-2 -6 -13 -6h-128q-11 0 -17 9.5t0 19.5l103 189q13 17 22 27.5t32.5 24t49.5 13.5zM412 819q-53 -17 -77 -39q-69 -75 -69 -223q0 -6 0.5 -15t0.5 -13q7 -172 61 -235q16 -23 73 -46q29 -10 57 -10q20 0 50 7h-1q55 17 95 79q44 65 48 214
q0 132 -42 198q-41 63 -92 81q-27 9 -56 9q-27 0 -48 -7z" />
    <glyph glyph-name="ocircumflex" unicode="&#xf4;" horiz-adv-x="1000" 
d="M123 98q-86 74 -122 196t-36 251q0 105 30 214q31 107 95 182q103 117 271 144q46 6 99 6q110 0 196 -33q154 -60 228 -210q67 -133 67 -307q0 -223 -100 -379q-102 -133 -248 -162l1 1q-65 -20 -145 -20q-65 0 -121 13q-136 31 -215 104zM618 1300l123 -147q9 -10 4 -21
t-18 -11h-155q-8 0 -14 6l-107 113l-66 -70q-29 -29 -49 -39t-58 -10h-92q-14 0 -19 11t4 21l124 147l-1 -1q64 85 162 85q94 0 163 -84h-1zM412 819q-53 -17 -77 -39q-69 -75 -69 -223q0 -6 0.5 -15t0.5 -13q7 -172 61 -235q16 -23 73 -46q29 -10 57 -10q20 0 50 7h-1
q55 17 95 79q44 65 48 214q0 132 -42 198q-41 63 -92 81q-27 9 -56 9q-27 0 -48 -7z" />
    <glyph glyph-name="otilde" unicode="&#xf5;" horiz-adv-x="1000" 
d="M123 98q-86 74 -122 196t-36 251q0 105 30 214q31 107 95 182q103 117 271 144q46 6 99 6q110 0 196 -33q154 -60 228 -210q67 -133 67 -307q0 -223 -100 -379q-102 -133 -248 -162l1 1q-65 -20 -145 -20q-65 0 -121 13q-136 31 -215 104zM193 1141v100q0 78 79 107
q17 8 49 8q29 0 68 -11q51 -17 66 -23h-1l49 -16q46 -17 104 -22q43 -4 78 39q9 11 21.5 6.5t12.5 -18.5q0 -76 -6 -121q-6 -58 -83 -73l1 1q-17 -4 -41 -4q-46 0 -83 16h1q-68 27 -114 41q-54 15 -99 14q-40 -1 -65 -53q-6 -14 -21.5 -10.5t-15.5 19.5zM412 819
q-53 -17 -77 -39q-69 -75 -69 -223q0 -6 0.5 -15t0.5 -13q7 -172 61 -235q16 -23 73 -46q29 -10 57 -10q20 0 50 7h-1q55 17 95 79q44 65 48 214q0 132 -42 198q-41 63 -92 81q-27 9 -56 9q-27 0 -48 -7z" />
    <glyph glyph-name="odieresis" unicode="&#xf6;" horiz-adv-x="1000" 
d="M123 98q-86 74 -122 196t-36 251q0 105 30 214q31 107 95 182q103 117 271 144q46 6 99 6q110 0 196 -33q154 -60 228 -210q67 -133 67 -307q0 -223 -100 -379q-102 -133 -248 -162l1 1q-65 -20 -145 -20q-65 0 -121 13q-136 31 -215 104zM739 1249v-108q0 -8 -6 -14
t-14 -6h-174q-8 0 -13.5 6t-5.5 14v174q0 19 19 19h108q86 0 86 -85zM387 1249v-108q0 -8 -6 -14t-14 -6h-174q-8 0 -13.5 6t-5.5 14v174q0 19 19 19h109q85 0 85 -85zM412 819q-53 -17 -77 -39q-69 -75 -69 -223q0 -6 0.5 -15t0.5 -13q7 -172 61 -235q16 -23 73 -46
q29 -10 57 -10q20 0 50 7h-1q55 17 95 79q44 65 48 214q0 132 -42 198q-41 63 -92 81q-27 9 -56 9q-27 0 -48 -7z" />
    <glyph glyph-name="oslash" unicode="&#xf8;" horiz-adv-x="1052" 
d="M151 72l-54 -64q-8 -8 -16 -8h-147q-13 0 -18 10.5t4 21.5l129 155q-88 132 -88 358q0 105 32 215q31 106 93 181q101 118 271 144q48 6 99 6q111 0 196 -33q48 -15 107 -58q3 4 54 60q7 7 14 7h151q14 0 18.5 -10.5t-3.5 -21.5l-131 -151l21 -34q64 -137 64 -309
q0 -231 -100 -375q-98 -134 -248 -166l2 1q-67 -21 -146 -21q-57 0 -107 10q-122 25 -197 82zM270 440l299 345q-53 52 -125 41q-83 -14 -112 -46q-53 -61 -65 -173q-4 -36 -4 -73q0 -51 7 -94zM640 632l-305 -346q23 -20 62 -36q34 -12 60 -12q19 0 47 7h-1q55 17 95 79
q44 65 48 214q0 56 -6 94z" />
    <glyph glyph-name="ugrave" unicode="&#xf9;" horiz-adv-x="972" 
d="M769 1067h136q19 0 19 -19v-603q0 -285 -153 -376q-145 -88 -323 -88q-169 6 -314 95q-146 92 -146 369v603q0 8 6 13.5t14 5.5h270q8 0 14 -5.5t6 -13.5v-657q0 -84 46 -120q51 -39 112 -39q62 0 114 39q49 36 49 120v525q0 63 41 107t109 44zM427 1127l-236 244
q-9 9 -4.5 21t18.5 12h174q49 0 88 -46q10 -10 11 -10l108 -198q6 -10 0 -19.5t-18 -9.5h-127q-8 0 -14 6z" />
    <glyph glyph-name="uacute" unicode="&#xfa;" horiz-adv-x="972" 
d="M769 1067h136q19 0 19 -19v-603q0 -285 -153 -376q-145 -88 -323 -88q-169 6 -314 95q-146 92 -146 369v603q0 8 6 13.5t14 5.5h270q8 0 14 -5.5t6 -13.5v-657q0 -84 46 -120q51 -39 112 -39q62 0 114 39q49 36 49 120v525q0 63 41 107t109 44zM561 1404h170
q14 0 18.5 -12t-5.5 -21l-236 -244q-2 -6 -13 -6h-124q-11 0 -17 9.5t0 19.5l108 198l-1 -4q6 19 34 39.5t66 20.5z" />
    <glyph glyph-name="ucircumflex" unicode="&#xfb;" horiz-adv-x="972" 
d="M769 1067h136q19 0 19 -19v-603q0 -285 -153 -376q-145 -88 -323 -88q-169 6 -314 95q-146 92 -146 369v603q0 8 6 13.5t14 5.5h270q8 0 14 -5.5t6 -13.5v-657q0 -84 46 -120q51 -39 112 -39q62 0 114 39q49 36 49 120v525q0 63 41 107t109 44zM622 1300l119 -147
q8 -10 3.5 -21t-17.5 -11h-155q-7 0 -14 7l-103 112l-66 -70q-28 -28 -50.5 -38.5t-60.5 -10.5h-92q-14 0 -19 11t4 21l128 147l-1 -2q59 86 162 86q86 0 162 -84z" />
    <glyph glyph-name="udieresis" unicode="&#xfc;" horiz-adv-x="972" 
d="M769 1067h136q19 0 19 -19v-603q0 -285 -153 -376q-145 -88 -323 -88q-169 6 -314 95q-146 92 -146 369v603q0 8 6 13.5t14 5.5h270q8 0 14 -5.5t6 -13.5v-657q0 -84 46 -120q51 -39 112 -39q62 0 114 39q49 36 49 120v525q0 63 41 107t109 44zM391 1249v-108
q0 -8 -6 -14t-14 -6h-178q-8 0 -13.5 6t-5.5 14v174q0 19 19 19h112q86 0 86 -85zM739 1249v-108q0 -8 -6 -14t-14 -6h-174q-8 0 -13.5 6t-5.5 14v174q0 19 19 19h108q86 0 86 -85z" />
    <glyph glyph-name="arabiccomma" unicode="&#x60c;" horiz-adv-x="424" 
d="M232 4h-132q-19 0 -19 19v206q0 104 58 183q71 71 175 89q10 2 16.5 -3.5t6.5 -15.5v-43q0 -44 -64 -78q-12 -7 -30 -28l2 2q-24 -35 -24 -72q-1 -6 15 -6h78q8 0 13.5 -6t5.5 -14v-132q0 -101 -101 -101z" />
    <glyph glyph-name="arabicsemicolon" unicode="&#x61b;" horiz-adv-x="424" 
d="M232 419h-132q-19 0 -19 19v206q0 104 58 183q71 71 175 89q10 2 16.5 -3.5t6.5 -15.5v-43q0 -43 -64 -79q-9 -4 -30 -27l2 2q-24 -35 -24 -72q-1 -4 3 -5.5t12 -1.5h78q19 0 19 -19v-132q0 -101 -101 -101zM232 10h-132q-19 0 -19 19v214q0 19 19 19h214q19 0 19 -19
v-136q0 -97 -101 -97z" />
    <glyph glyph-name="arabicquestionmark" unicode="&#x61f;" horiz-adv-x="1116" 
d="M680 389h-245q-19 0 -19 19v35q5 80 -43 124q-41 39 -112 96q-65 52 -119 122q-56 74 -56 210q0 170 97 270q95 97 228 129q73 18 144 18q67 0 125 -13q139 -30 223 -106q51 -46 81.5 -110t30.5 -126q0 -122 -87 -128q-63 -4 -174 -4q-19 0 -19 19q-5 103 -50 150
q-40 49 -121 49q-25 0 -50 -4q-114 -17 -114 -156q0 -62 36 -104q43 -48 97 -90q122 -99 144 -175q23 -70 23 -206q0 -8 -6 -13.5t-14 -5.5zM708 187v-168q0 -8 -6 -13.5t-14 -5.5h-268q-8 0 -14 5.5t-6 13.5v269q0 8 6 13.5t14 5.5h171q117 0 117 -120z" />
    <glyph glyph-name="kashida" unicode="&#x640;" horiz-adv-x="321" 
d="M-66 19v263q0 8 6 13.5t14 5.5h409q19 0 19 -19v-263q0 -19 -19 -19h-409q-8 0 -14 5.5t-6 13.5z" />
    <glyph glyph-name="fathatanA" unicode="&#x64b;" 
d="M217 -2l8 -45q5 -18 -15 -23l-360 -77q-61 -10 -76 51l-8 46q-5 19 15 24l359 77q62 12 77 -53zM217 144l8 -45q5 -18 -15 -23l-359 -78l1 1q-63 -15 -78 52l-8 44q-5 19 15 24l359 76q61 12 77 -51z" />
    <glyph glyph-name="dammatanA" unicode="&#x64c;" 
d="M224 182v-1q28 -16 44 -47q21 -38 20 -98q-12 -201 -202 -191q-18 0 -18 20l4 73q0 8 6.5 13.5t14.5 4.5q17 -2 29 3q-2 1 -3 1q-1 1 -2 1q-48 7 -77 32q-35 30 -35 89q0 63 38 93q34 28 79 28q26 0 47 -3q25 -4 55 -18zM155 57l23 -5q0 24 -12 34q-15 13 -34 13
q-11 0 -11 -2q-6 -6 -6 -15q0 -7 4 -14q1 -1 4.5 -2t7.5 -2.5t7 -2.5q2 0 4 -1q6 -2 13 -3zM-67 182l1 -1q25 -16 43 -46q20 -41 19 -99q-12 -201 -201 -191q-18 0 -18 20l3 73q0 8 7 13.5t15 4.5q16 -1 34 5h-11q-42 5 -77 32q-35 30 -35 89q0 63 37 94v-1q34 28 81 28
q25 0 48 -3q26 -5 54 -18zM-114 52q0 23 -11 34q-14 13 -34 13q-11 0 -13 -2q-5 -5 -5 -15q0 -6 4 -13q6 -4 21 -8l6 -2l14 -3q17 -3 18 -4z" />
    <glyph glyph-name="kasratanB" unicode="&#x64d;" 
d="M217 -12l8 -44q5 -19 -15 -24l-360 -76q-61 -10 -76 50l-8 47q-5 18 15 23l359 77q62 14 77 -53zM217 156l8 -44q5 -19 -15 -24l-360 -76q-61 -10 -76 50l-8 47q-5 18 15 23l359 77q62 14 77 -53z" />
    <glyph glyph-name="fathaA" unicode="&#x64e;" 
d="M217 68l8 -45q5 -18 -15 -23l-360 -77q-61 -10 -76 51l-8 46q-5 19 15 24l359 76q62 14 77 -52z" />
    <glyph glyph-name="dammaA" unicode="&#x64f;" 
d="M75 222v-1q30 -19 50 -54q24 -40 22 -115q-12 -233 -235 -223q-8 0 -13.5 6t-4.5 14l6 87q2 20 20 18q29 -2 50 9l-7 1q-9 3 -15 3q-54 7 -89 39q-39 33 -39 101q0 71 43 108q43 32 92 32q34 0 55 -4q32 -5 65 -21zM25 65v5q0 30 -15 45q-16 16 -42 16q-16 0 -20 -6
q-6 -6 -6 -18q0 -8 5 -18q2 -2 9 -4t9 -3l8 -2q1 0 8.5 -2t12.5 -3q16 -4 31 -10z" />
    <glyph glyph-name="kasraB" unicode="&#x650;" 
d="M217 -12l8 -44q5 -19 -15 -24l-360 -76q-61 -10 -76 50l-8 47q-5 18 15 23l359 77q62 14 77 -53z" />
    <glyph glyph-name="shaddaA" unicode="&#x651;" 
d="M163 -95h-315q-69 0 -69 70v153q0 81 80 81h42q8 0 13.5 -6t5.5 -14v-155h18v155q0 8 5.5 14t13.5 6h42q80 0 80 -81v-94h11v155q0 8 6 14t14 6h43q78 0 78 -81l1 -4v-149q0 -70 -69 -70z" />
    <glyph glyph-name="sukunA" unicode="&#x652;" 
d="M-5 71l-14 -6q-11 -15 -10 -38q1 -28 11 -39l2 -1l8 -3q13 -2 16 -1q10 3 18 15q4 6 6 30q0 18 -8 32l1 -1q-3 6 -14 11q-7 2 -18 0zM-110 -99q-28 22 -42 59v-1q-11 36 -11 72q0 31 9 61q11 31 34 54q35 35 89 42q11 1 34 1q39 0 63 -9q50 -17 78 -61q22 -41 22 -89
q0 -34 -9 -63q-10 -28 -25 -46q-35 -38 -83 -48q-21 -4 -49 -4q-18 0 -40 2q-42 8 -70 30z" />
    <glyph glyph-name="sefr" unicode="&#x660;" horiz-adv-x="674" 
d="M484 547v-104q0 -8 -6 -13.5t-14 -5.5h-265q-19 0 -19 19v268q0 8 5.5 14t13.5 6h137q74 0 113 -50q36 -50 35 -134z" />
    <glyph glyph-name="wahed" unicode="&#x661;" horiz-adv-x="696" 
d="M199 1268h143q69 0 117 -51q47 -50 47 -119v-1073q0 -19 -19 -19h-143q-68 0 -118 50q-46 49 -46 121v1072q0 19 19 19z" />
    <glyph glyph-name="ithnan" unicode="&#x662;" horiz-adv-x="1176" 
d="M484 705v-668q0 -8 -5.5 -14t-13.5 -6h-262q-8 0 -14 6t-6 14v632l2 43q13 266 192 423q176 155 469 155h111q8 0 13.5 -6t5.5 -14v-298q0 -8 -5.5 -14t-13.5 -6h-111q-163 0 -253.5 -63.5t-108.5 -183.5z" />
    <glyph glyph-name="thalathah" unicode="&#x663;" horiz-adv-x="1634" 
d="M1086 1204v42q0 8 6 13.5t14 5.5h299q19 0 19 -19v-42q0 -305 -167 -484t-453 -179q-2 0 -3 0.5t-3 0.5q-8 0 -14 6t-6 14v120q-111 -97 -266 -126v-531q0 -19 -19 -19h-143q-71 0 -118 50q-46 49 -46 121v1072q0 8 6 13.5t14 5.5h142q18 0 31 -3q133 -28 133 -167v-220
q135 80 135 326v42q0 19 19 19h299q19 0 19 -19v-42q0 -88 -20 -180.5t-52 -163.5q174 64 174 344z" />
    <glyph glyph-name="arbaa" unicode="&#x664;" horiz-adv-x="1361" 
d="M1000 308h1q59 0 108 -44q48 -43 48 -107v-129q0 -19 -19 -19h-934q-19 0 -19 19l2 264q12 118 58 214q27 61 76 117h-117q-19 0 -19 19v6q0 285 177 453q179 167 484 167h51q69 0 122 -48q55 -49 55 -122v-108q0 -8 -6 -13.5t-14 -5.5h-166q-188 0 -285 -72
q-76 -57 -103 -137l34 15q141 58 312 58h42q8 0 14 -6t6 -14v-258q0 -8 -6 -14t-14 -6q-163 0 -260 -56q-103 -58 -133 -172q85 0 252 -0.5t253 -0.5z" />
    <glyph glyph-name="khamsah" unicode="&#x665;" horiz-adv-x="1308" 
d="M484 725v-129q21 -161 161 -215q139 57 160 215v129q-19 155 -160 214q-140 -57 -161 -214zM1105 717v-115q-5 -119 -38 -213q-54 -143 -167 -237q-107 -87 -255 -121q-152 35 -256 122v-1q-110 86 -165 237q-36 107 -40 213v90l1 25q3 115 39 214v-1q45 135 165 238
q107 85 256 122q146 -38 254 -122q115 -96 168 -237q33 -94 38 -214z" />
    <glyph glyph-name="sittah" unicode="&#x666;" horiz-adv-x="1176" 
d="M957 17h-263q-8 0 -13.5 6t-5.5 14v668q-18 120 -108.5 183.5t-253.5 63.5h-110q-8 0 -14 6t-6 14v298q0 8 6 14t14 6h110q291 0 470 -155q176 -157 193 -423v-675q0 -8 -5.5 -14t-13.5 -6z" />
    <glyph glyph-name="sabaah" unicode="&#x667;" horiz-adv-x="1399" 
d="M915 1268h142q73 0 106 -55v1q21 -33 21 -71q0 -24 -9 -51l-328 -1073q-6 -13 -19 -13h-278q-12 0 -18 13l-329 1073q-8 22 -8 50q0 39 21 72v-1q33 55 105 55h143q12 0 18 -13l207 -677q34 113 103.5 338t103.5 339q6 13 19 13z" />
    <glyph glyph-name="thamaniah" unicode="&#x668;" horiz-adv-x="1399" 
d="M464 6h-143q-73 0 -105 54v-1q-21 33 -21 73q0 29 8 51l329 1072q6 13 18 13h278q13 0 19 -13l327 -1072q9 -30 9 -54q0 -37 -20 -69q-31 -54 -106 -54h-142q-13 0 -19 13l-207 677q-34 -113 -103.5 -338t-103.5 -339q-6 -13 -18 -13z" />
    <glyph glyph-name="tisaah" unicode="&#x669;" horiz-adv-x="1278" 
d="M1057 5h-263q-19 0 -19 19v414q-9 0 -30 0.5t-29 0.5q-196 6 -326 105q-126 98 -169 232q-14 41 -14 98q0 75 44 172q75 136 269 207q94 33 196 37h341q8 0 13.5 -6t5.5 -14v-1246q0 -19 -19 -19zM717 718h58v292q-9 0 -29.5 0.5t-28.5 0.5q-2 0 -3 -1
q-185 -18 -185 -147q0 -121 181 -145h1q1 -1 2 -1z" />
    <glyph glyph-name="arabic.percent" unicode="&#x66a;" horiz-adv-x="1332" 
d="M351 0h-222q-12 0 -17 9.5t1 19.5l742 1283h-1q28 50 71 58q34 6 79 6h121q12 0 17 -9.5t-1 -19.5l-773 -1337q-6 -10 -17 -10zM485 1115v-104q0 -8 -5.5 -14t-13.5 -6h-266q-8 0 -13.5 6t-5.5 14v268q0 19 19 19h137q74 0 113 -49q36 -50 35 -134zM1084 286v-104
q0 -8 -6 -14t-14 -6h-265q-8 0 -13.5 6t-5.5 14v268q0 19 19 19h137q74 0 113 -49q36 -50 35 -134z" />
    <glyph glyph-name="uni066B" unicode="&#x66b;" horiz-adv-x="725" 
d="M486 240v-213q0 -97 -38 -167q-37 -66 -83 -106q-59 -50 -121 -68h-3l-3 -1q-8 0 -13.5 6t-5.5 14v133q0 19 19 19l1 1h2l-6 -1q23 8 46 26q41 39 48 113h-93q-8 0 -13.5 6t-5.5 14v224q0 19 19 19h231q19 0 19 -19z" />
    <glyph glyph-name="uni066C" unicode="&#x66c;" horiz-adv-x="725" 
d="M467 407h-2q-1 0 -3 -1zM217 24v213q0 102 38 167q37 66 83 106q53 45 121 68q1 0 3 0.5t3 0.5q19 0 19 -19v-133q0 -18 -17 -20q-22 -7 -45 -26q-44 -40 -49 -113h94q19 0 19 -19v-225q0 -19 -19 -19h-231q-19 0 -19 19z" />
    <glyph glyph-name="afii63167" unicode="&#x66d;" horiz-adv-x="1118" 
d="M680 1082l316 -184q17 -11 7 -26l-63 -107q-12 -19 -27 -7l-288 191l7 -317q0 -8 -6 -14t-14 -6h-121q-8 0 -14 6t-6 14l5 316l-284 -191q-17 -11 -28 7l-64 107q-10 15 7 26l316 185l-316 184q-17 11 -7 26l64 107q11 18 28 7l286 -192l-7 317q0 8 6 14t14 6h121
q8 0 14 -6t6 -14l-8 -318l289 192q15 12 27 -7l63 -107q10 -15 -7 -26z" />
    <glyph glyph-name="sifr" unicode="&#x6f0;" horiz-adv-x="674" 
d="M484 547v-104q0 -8 -6 -13.5t-14 -5.5h-265q-19 0 -19 19v268q0 8 5.5 14t13.5 6h137q74 0 113 -50q36 -50 35 -134z" />
    <glyph glyph-name="yek" unicode="&#x6f1;" horiz-adv-x="696" 
d="M199 1268h143q69 0 117 -51q47 -50 47 -119v-1073q0 -19 -19 -19h-143q-68 0 -118 50q-46 49 -46 121v1072q0 19 19 19z" />
    <glyph glyph-name="doe" unicode="&#x6f2;" horiz-adv-x="1176" 
d="M484 705v-668q0 -8 -5.5 -14t-13.5 -6h-262q-8 0 -14 6t-6 14v632l2 43q13 266 192 423q176 155 469 155h111q8 0 13.5 -6t5.5 -14v-298q0 -8 -5.5 -14t-13.5 -6h-111q-163 0 -253.5 -63.5t-108.5 -183.5z" />
    <glyph glyph-name="se" unicode="&#x6f3;" horiz-adv-x="1634" 
d="M1086 1204v42q0 8 6 13.5t14 5.5h299q19 0 19 -19v-42q0 -305 -167 -484t-453 -179q-2 0 -3 0.5t-3 0.5q-8 0 -14 6t-6 14v120q-111 -97 -266 -126v-531q0 -19 -19 -19h-143q-71 0 -118 50q-46 49 -46 121v1072q0 8 6 13.5t14 5.5h142q18 0 31 -3q133 -28 133 -167v-220
q135 80 135 326v42q0 19 19 19h299q19 0 19 -19v-42q0 -88 -20 -180.5t-52 -163.5q174 64 174 344z" />
    <glyph glyph-name="char" unicode="&#x6f4;" horiz-adv-x="1634" 
d="M1087 1204v42q0 8 6 13.5t14 5.5h298q19 0 19 -19v-42q0 -222 -96 -373q-94 -152 -237 -229q-141 -76 -306 -78q-149 0 -272 65v-564q0 -19 -19 -19h-143q-71 0 -118 50t-47 121v1072q0 8 6 13.5t14 5.5h142q18 0 31 -3q134 -29 134 -167v-239q63 -26 80 -25q27 0 37 -2
l-27 29q-55 59 -55 176q0 13 2 45q6 77 38 124q38 56 104 83q69 26 175 26q20 0 31 -1q2 0 5.5 -0.5t5.5 -0.5q8 0 14 -6t6 -14v-150q0 -10 -7 -16t-16 -4q-27 5 -39 5q-39 0 -58 -21q-28 -34 -30 -85q-2 -56 21 -110q16 -48 48 -73q180 4 207 119q30 126 32 246z" />
    <glyph glyph-name="panj" unicode="&#x6f5;" horiz-adv-x="1549" 
d="M759 1244v-1q199 -227 369 -427q213 -253 213 -515q0 -140 -95 -217q-94 -78 -222 -78q-110 0 -185 46q-63 46 -108 133q-59 -107 -137 -141q-53 -24 -103 -24q-35 0 -70 12q-83 28 -144 108t-71 179q-3 30 -3 61q0 160 95 303q44 65 127 190.5t126 189.5q-70 80 -79 90
q-6 6 -5.5 14.5t7.5 13.5l87 77q39 37 102 32q57 -4 96 -46zM748 353l35 1q48 -103 125 -103q51 0 86 38h-1q38 40 38 94q0 106 -85 215q-82 105 -181 210q-99 -105 -181 -210q-84 -108 -84 -215q0 -54 37 -94h-1q35 -38 87 -38q79 0 125 102z" />
    <glyph glyph-name="shish" unicode="&#x6f6;" horiz-adv-x="1210" 
d="M232 113q0 257 291 487h-165q-63 41 -76 165q-1 11 -1 36q0 103 43 210q52 125 173 225q122 101 326 101h41q62 0 102 -42q44 -41 44 -99v-94q0 -8 -6 -13.5t-14 -5.5l-133 -1q-171 0 -227 -63q-51 -59 -54 -156h413q8 0 14 -6t6 -14v-224q0 -5 -4.5 -11t-9.5 -7
q-250 -86 -433 -227q-181 -134 -254 -358q-5 -18 -24 -13l-30 10q-13 5 -14 14q-8 46 -8 86z" />
    <glyph glyph-name="haft" unicode="&#x6f7;" horiz-adv-x="1399" 
d="M915 1268h142q73 0 106 -55v1q21 -33 21 -71q0 -24 -9 -51l-328 -1073q-6 -13 -19 -13h-278q-12 0 -18 13l-329 1073q-8 22 -8 50q0 39 21 72v-1q33 55 105 55h143q12 0 18 -13l207 -677q34 113 103.5 338t103.5 339q6 13 19 13z" />
    <glyph glyph-name="hast" unicode="&#x6f8;" horiz-adv-x="1399" 
d="M464 6h-143q-73 0 -105 54v-1q-21 33 -21 73q0 29 8 51l329 1072q6 13 18 13h278q13 0 19 -13l327 -1072q9 -30 9 -54q0 -37 -20 -69q-31 -54 -106 -54h-142q-13 0 -19 13l-207 677q-34 -113 -103.5 -338t-103.5 -339q-6 -13 -18 -13z" />
    <glyph glyph-name="noh" unicode="&#x6f9;" horiz-adv-x="1278" 
d="M1057 5h-263q-19 0 -19 19v414q-9 0 -30 0.5t-29 0.5q-196 6 -326 105q-126 98 -169 232q-14 41 -14 98q0 75 44 172q75 136 269 207q94 33 196 37h341q8 0 13.5 -6t5.5 -14v-1246q0 -19 -19 -19zM717 718h58v292q-9 0 -29.5 0.5t-28.5 0.5q-2 0 -3 -1
q-185 -18 -185 -147q0 -121 181 -145h1q1 -1 2 -1z" />
    <glyph glyph-name="shaddaA.fathatanA" unicode="&#xe82a;" 
d="M151 -161h-314q-69 0 -69 70v153q0 81 79 81h43q8 0 14 -6t6 -14v-155h16v155q0 8 5.5 14t13.5 6h43q79 0 79 -81l1 -4v-90h11v155q0 8 5.5 14t13.5 6h43q79 0 79 -81l1 -4v-149q0 -70 -70 -70zM215 333l9 -44q5 -19 -15 -24l-360 -76q-63 -14 -76 52l-9 44q-5 18 15 23
l359 78q62 14 77 -53zM215 488l9 -45q5 -18 -15 -23l-360 -77q-30 -7 -50 7.5t-26 45.5l-9 43q-5 19 15 24l359 77q62 14 77 -52z" />
    <glyph glyph-name="NULL" 
 />
    <glyph glyph-name="CR" horiz-adv-x="2048" 
 />
    <glyph glyph-name="shaddaA.sukunA" 
d="M162 -95h-313q-68 0 -68 70v153q0 80 79 80h41q8 0 14 -6t6 -14v-154h17v154q0 8 6 14t14 6h41q79 0 79 -80v-94h12v154q0 8 5.5 14t13.5 6h43q78 0 78 -80l1 -4v-149q0 -70 -69 -70zM-5 419l-14 -6q-11 -13 -10 -38q1 -28 11 -39q2 0 3 -1q6 -2 7 -2q8 -4 16 -1
q11 2 18 14q4 6 6 30q0 18 -8 32l1 -1q-3 6 -14 11q-7 2 -18 0zM-109 249q-29 23 -42 59v-1q-11 36 -11 72q0 31 9 61q10 30 33 53q35 35 89 42q11 1 34 1q37 0 63 -9q50 -17 77 -61q22 -37 22 -88q0 -31 -8 -63q-8 -22 -25 -45q-37 -38 -84 -49q-17 -4 -48 -4q-18 0 -40 2
q-40 7 -69 30z" />
  </font>
</defs>
</svg>
